NotoSerifBengali-ExtraBold.ufo
<glyph name="exclam" format="2">
  <advance width="394.33333333333337"/>
  <unicode hex="0021"/>
  <outline>
    <contour>
      <point x="181.11904761904762" y="223.11904761904762" type="line"/>
      <point x="234.85714285714286" y="223.11904761904762" type="line"/>
      <point x="289.42857142857144" y="714.0" type="line"/>
      <point x="126.54761904761904" y="714.0" type="line"/>
    </contour>
    <contour>
      <point x="208.76190476190476" y="-8.0" type="curve" smooth="yes"/>
      <point x="250.5" y="-8.0"/>
      <point x="287.23809523809524" y="11.547619047619047"/>
      <point x="287.23809523809524" y="69.73809523809524" type="curve" smooth="yes"/>
      <point x="287.23809523809524" y="129.02380952380952"/>
      <point x="250.5" y="147.57142857142856"/>
      <point x="208.76190476190476" y="147.57142857142856" type="curve" smooth="yes"/>
      <point x="164.47619047619048" y="147.57142857142856"/>
      <point x="129.83333333333334" y="129.02380952380952"/>
      <point x="129.83333333333334" y="69.73809523809524" type="curve" smooth="yes"/>
      <point x="129.83333333333334" y="11.547619047619047"/>
      <point x="164.47619047619048" y="-8.0"/>
    </contour>
  </outline>
</glyph>
<glyph name="quotedbl" format="2">
  <advance width="489.2857142857143"/>
  <unicode hex="0022"/>
  <outline>
    <contour>
      <point x="327.9761904761905" y="446.5952380952381" type="line"/>
      <point x="390.45238095238096" y="446.5952380952381" type="line"/>
      <point x="424.0952380952381" y="714.0" type="line"/>
      <point x="277.95238095238096" y="714.0" type="line"/>
    </contour>
    <contour>
      <point x="107.11904761904762" y="446.5952380952381" type="line"/>
      <point x="170.04761904761904" y="446.5952380952381" type="line"/>
      <point x="212.42857142857144" y="714.0" type="line"/>
      <point x="64.73809523809524" y="714.0" type="line"/>
    </contour>
  </outline>
</glyph>
<glyph name="numbersign" format="2">
  <advance width="559.0"/>
  <unicode hex="0023"/>
  <outline>
    <contour>
      <point x="83.09523809523809" y="0.0" type="line"/>
      <point x="152.38095238095238" y="0.0" type="line"/>
      <point x="190.38095238095238" y="200.9047619047619" type="line"/>
      <point x="305.1666666666667" y="200.9047619047619" type="line"/>
      <point x="267.7142857142857" y="0.0" type="line"/>
      <point x="337.0" y="0.0" type="line"/>
      <point x="374.0" y="200.9047619047619" type="line"/>
      <point x="499.45238095238096" y="200.9047619047619" type="line"/>
      <point x="499.45238095238096" y="267.1904761904762" type="line"/>
      <point x="387.54761904761904" y="267.1904761904762" type="line"/>
      <point x="422.0" y="451.8095238095238" type="line"/>
      <point x="531.452380952381" y="451.8095238095238" type="line"/>
      <point x="531.452380952381" y="519.0952380952381" type="line"/>
      <point x="435.0" y="519.0952380952381" type="line"/>
      <point x="472.0" y="714.0" type="line"/>
      <point x="402.7142857142857" y="714.0" type="line"/>
      <point x="365.7142857142857" y="519.0952380952381" type="line"/>
      <point x="250.92857142857142" y="519.0952380952381" type="line"/>
      <point x="287.3809523809524" y="714.0" type="line"/>
      <point x="217.0952380952381" y="714.0" type="line"/>
      <point x="182.64285714285714" y="519.0952380952381" type="line"/>
      <point x="59.54761904761905" y="519.0952380952381" type="line"/>
      <point x="59.54761904761905" y="451.8095238095238" type="line"/>
      <point x="169.54761904761904" y="451.8095238095238" type="line"/>
      <point x="133.64285714285714" y="267.1904761904762" type="line"/>
      <point x="27.095238095238095" y="267.1904761904762" type="line"/>
      <point x="27.095238095238095" y="200.9047619047619" type="line"/>
      <point x="122.0952380952381" y="200.9047619047619" type="line"/>
    </contour>
    <contour>
      <point x="203.38095238095238" y="267.1904761904762" type="line"/>
      <point x="238.38095238095238" y="451.8095238095238" type="line"/>
      <point x="354.1666666666667" y="451.8095238095238" type="line"/>
      <point x="319.26190476190476" y="267.1904761904762" type="line"/>
    </contour>
  </outline>
</glyph>
<glyph name="percent" format="2">
  <advance width="903.7380952380952"/>
  <unicode hex="0025"/>
  <outline>
    <contour>
      <point x="238.64285714285714" y="0.0" type="line"/>
      <point x="314.4761904761904" y="0.0" type="line"/>
      <point x="661.6428571428572" y="714.0" type="line"/>
      <point x="586.8095238095237" y="714.0" type="line"/>
    </contour>
    <contour>
      <point x="212.64285714285714" y="280.0" type="curve" smooth="yes"/>
      <point x="332.3809523809524" y="280.0"/>
      <point x="391.0238095238095" y="369.0"/>
      <point x="391.0238095238095" y="503.0" type="curve"/>
      <point x="391.0238095238095" y="637.0"/>
      <point x="332.3809523809524" y="724.0"/>
      <point x="213.64285714285714" y="724.0" type="curve" smooth="yes"/>
      <point x="88.35714285714286" y="724.0"/>
      <point x="36.26190476190476" y="637.0"/>
      <point x="36.26190476190476" y="503.0" type="curve" smooth="yes"/>
      <point x="36.26190476190476" y="369.0"/>
      <point x="88.35714285714286" y="280.0"/>
    </contour>
    <contour>
      <point x="212.64285714285714" y="328.73809523809524" type="curve" smooth="yes"/>
      <point x="163.2857142857143" y="328.73809523809524"/>
      <point x="143.38095238095238" y="392.6428571428571"/>
      <point x="143.38095238095238" y="503.0" type="curve"/>
      <point x="143.38095238095238" y="611.3571428571428"/>
      <point x="162.83333333333334" y="674.2619047619048"/>
      <point x="213.64285714285714" y="674.2619047619048" type="curve" smooth="yes"/>
      <point x="264.45238095238096" y="674.2619047619048"/>
      <point x="281.3571428571429" y="611.3571428571428"/>
      <point x="281.3571428571429" y="503.0" type="curve" smooth="yes"/>
      <point x="281.3571428571429" y="392.6428571428571"/>
      <point x="264.45238095238096" y="328.73809523809524"/>
    </contour>
    <contour>
      <point x="690.6428571428572" y="-10.0" type="curve" smooth="yes"/>
      <point x="810.3809523809524" y="-10.0"/>
      <point x="869.0238095238096" y="79.0"/>
      <point x="869.0238095238096" y="213.0" type="curve" smooth="yes"/>
      <point x="869.0238095238096" y="347.0"/>
      <point x="810.3809523809524" y="434.0"/>
      <point x="691.6428571428572" y="434.0" type="curve" smooth="yes"/>
      <point x="566.3571428571428" y="434.0"/>
      <point x="514.2619047619048" y="347.0"/>
      <point x="514.2619047619048" y="213.0" type="curve" smooth="yes"/>
      <point x="514.2619047619048" y="79.0"/>
      <point x="566.3571428571428" y="-10.0"/>
    </contour>
    <contour>
      <point x="690.6428571428572" y="38.73809523809524" type="curve" smooth="yes"/>
      <point x="641.2857142857142" y="38.73809523809524"/>
      <point x="621.3809523809524" y="102.64285714285714"/>
      <point x="621.3809523809524" y="213.0" type="curve" smooth="yes"/>
      <point x="621.3809523809524" y="321.3571428571429"/>
      <point x="640.8333333333334" y="384.26190476190476"/>
      <point x="691.6428571428572" y="384.26190476190476" type="curve" smooth="yes"/>
      <point x="742.452380952381" y="384.26190476190476"/>
      <point x="758.9047619047619" y="321.35714285714283"/>
      <point x="758.9047619047619" y="213.0" type="curve" smooth="yes"/>
      <point x="758.9047619047619" y="102.64285714285715"/>
      <point x="742.452380952381" y="38.73809523809524"/>
    </contour>
  </outline>
</glyph>
<glyph name="quotesingle" format="2">
  <advance width="277.61904761904765"/>
  <unicode hex="0027"/>
  <outline>
    <contour>
      <point x="107.11904761904762" y="446.5952380952381" type="line"/>
      <point x="170.04761904761904" y="446.5952380952381" type="line"/>
      <point x="212.42857142857144" y="714.0" type="line"/>
      <point x="64.73809523809524" y="714.0" type="line"/>
    </contour>
  </outline>
</glyph>
<glyph name="parenright" format="2">
  <advance width="468.1666666666667"/>
  <unicode hex="0029"/>
  <outline>
    <contour>
      <point x="125.19047619047619" y="-136.73809523809524" type="line"/>
      <point x="341.14285714285717" y="-51.35714285714286"/>
      <point x="425.9761904761905" y="97.11904761904762"/>
      <point x="425.9761904761905" y="318.0" type="curve" smooth="yes"/>
      <point x="425.9761904761905" y="537.4285714285714"/>
      <point x="341.14285714285717" y="683.9047619047619"/>
      <point x="125.19047619047619" y="769.2857142857142" type="curve"/>
      <point x="125.19047619047619" y="710.3571428571428" type="line"/>
      <point x="250.9047619047619" y="627.8095238095237"/>
      <point x="275.6428571428571" y="476.0"/>
      <point x="275.6428571428571" y="318.0" type="curve" smooth="yes"/>
      <point x="275.6428571428571" y="159.0"/>
      <point x="250.9047619047619" y="5.642857142857143"/>
      <point x="125.19047619047619" y="-76.35714285714286" type="curve"/>
    </contour>
  </outline>
</glyph>
<glyph name="asterisk" format="2">
  <advance width="500.73809523809524"/>
  <unicode hex="002A"/>
  <outline>
    <contour>
      <point x="197.35714285714286" y="369.26190476190476" type="line"/>
      <point x="303.4761904761904" y="369.26190476190476" type="line"/>
      <point x="269.2857142857143" y="530.8095238095237" type="line"/>
      <point x="419.73809523809524" y="428.07142857142856" type="line"/>
      <point x="463.4761904761905" y="523.0952380952381" type="line"/>
      <point x="306.2142857142857" y="564.3571428571428" type="line"/>
      <point x="463.4761904761905" y="606.1666666666666" type="line"/>
      <point x="419.73809523809524" y="701.1904761904761" type="line"/>
      <point x="269.2857142857143" y="599.0" type="line"/>
      <point x="304.4761904761905" y="760.0" type="line"/>
      <point x="197.35714285714286" y="760.0" type="line"/>
      <point x="228.54761904761907" y="597.452380952381" type="line"/>
      <point x="79.0952380952381" y="703.1904761904763" type="line"/>
      <point x="36.35714285714286" y="607.1666666666666" type="line"/>
      <point x="193.61904761904762" y="564.3571428571428" type="line"/>
      <point x="36.35714285714286" y="522.0952380952381" type="line"/>
      <point x="79.0952380952381" y="426.6190476190476" type="line"/>
      <point x="228.54761904761904" y="531.3571428571428" type="line"/>
    </contour>
  </outline>
</glyph>
<glyph name="plus" format="2">
  <advance width="559.0"/>
  <unicode hex="002B"/>
  <outline>
    <contour>
      <point x="244.35714285714286" y="143.0" type="line"/>
      <point x="313.64285714285717" y="143.0" type="line"/>
      <point x="313.64285714285717" y="323.35714285714283" type="line"/>
      <point x="494.0" y="323.35714285714283" type="line"/>
      <point x="494.0" y="391.6428571428571" type="line"/>
      <point x="313.64285714285717" y="391.6428571428571" type="line"/>
      <point x="313.64285714285717" y="572.0" type="line"/>
      <point x="244.35714285714286" y="572.0" type="line"/>
      <point x="244.35714285714286" y="391.6428571428571" type="line"/>
      <point x="65.0" y="391.6428571428571" type="line"/>
      <point x="65.0" y="323.35714285714283" type="line"/>
      <point x="244.35714285714286" y="323.35714285714283" type="line"/>
    </contour>
  </outline>
</glyph>
<glyph name="comma" format="2">
  <advance width="347.30952380952385"/>
  <unicode hex="002C"/>
  <outline>
    <contour>
      <point x="103.3809523809524" y="-154.0" type="line"/>
      <point x="231.21428571428572" y="-119.0"/>
      <point x="279.30952380952385" y="-43.452380952380956"/>
      <point x="279.30952380952385" y="41.095238095238095" type="curve" smooth="yes"/>
      <point x="279.30952380952385" y="107.83333333333333"/>
      <point x="246.85714285714286" y="147.57142857142856"/>
      <point x="193.47619047619048" y="147.57142857142856" type="curve" smooth="yes"/>
      <point x="153.38095238095238" y="147.57142857142856"/>
      <point x="119.73809523809524" y="124.02380952380952"/>
      <point x="119.73809523809524" y="79.83333333333333" type="curve" smooth="yes"/>
      <point x="119.73809523809524" y="4.357142857142858"/>
      <point x="192.73809523809524" y="14.452380952380953"/>
      <point x="192.73809523809524" y="-24.0" type="curve" smooth="yes"/>
      <point x="192.73809523809524" y="-61.0"/>
      <point x="163.73809523809524" y="-83.26190476190476"/>
      <point x="103.3809523809524" y="-104.26190476190476" type="curve"/>
    </contour>
  </outline>
</glyph>
<glyph name="hyphen" format="2">
  <advance width="310.0"/>
  <unicode hex="002D"/>
  <outline>
    <contour>
      <point x="25.0" y="222.61904761904762" type="line"/>
      <point x="285.0" y="222.61904761904762" type="line"/>
      <point x="285.0" y="322.38095238095235" type="line"/>
      <point x="25.0" y="322.38095238095235" type="line"/>
    </contour>
  </outline>
</glyph>
<glyph name="period" format="2">
  <advance width="345.14285714285717"/>
  <unicode hex="002E"/>
  <outline>
    <contour>
      <point x="203.66666666666669" y="-8.0" type="curve" smooth="yes"/>
      <point x="245.4047619047619" y="-8.0"/>
      <point x="281.14285714285717" y="11.547619047619047"/>
      <point x="281.14285714285717" y="69.73809523809524" type="curve" smooth="yes"/>
      <point x="281.14285714285717" y="129.02380952380952"/>
      <point x="245.4047619047619" y="147.57142857142856"/>
      <point x="203.66666666666669" y="147.57142857142856" type="curve" smooth="yes"/>
      <point x="159.38095238095238" y="147.57142857142856"/>
      <point x="125.19047619047619" y="129.02380952380952"/>
      <point x="125.19047619047619" y="69.73809523809524" type="curve" smooth="yes"/>
      <point x="125.19047619047619" y="11.547619047619047"/>
      <point x="159.38095238095238" y="-8.0"/>
    </contour>
  </outline>
</glyph>
<glyph name="zero" format="2">
  <advance width="559.0"/>
  <unicode hex="0030"/>
  <outline>
    <contour>
      <point x="280.0" y="-10.0" type="curve" smooth="yes"/>
      <point x="450.8333333333333" y="-10.0"/>
      <point x="522.7380952380952" y="137.0"/>
      <point x="522.7380952380952" y="358.0" type="curve" smooth="yes"/>
      <point x="522.7380952380952" y="580.0"/>
      <point x="450.8333333333333" y="724.0"/>
      <point x="281.0" y="724.0" type="curve" smooth="yes"/>
      <point x="100.61904761904762" y="724.0"/>
      <point x="36.26190476190476" y="580.0"/>
      <point x="36.26190476190476" y="359.0" type="curve" smooth="yes"/>
      <point x="36.26190476190476" y="137.0"/>
      <point x="100.61904761904762" y="-10.0"/>
    </contour>
    <contour>
      <point x="280.0" y="52.73809523809524" type="curve" smooth="yes"/>
      <point x="201.47619047619048" y="52.73809523809524"/>
      <point x="181.3095238095238" y="165.64285714285714"/>
      <point x="181.3095238095238" y="358.0" type="curve" smooth="yes"/>
      <point x="181.3095238095238" y="550.3571428571428"/>
      <point x="201.47619047619048" y="661.2619047619048"/>
      <point x="281.0" y="661.2619047619048" type="curve" smooth="yes"/>
      <point x="358.5238095238096" y="661.2619047619048"/>
      <point x="377.69047619047615" y="550.3571428571428"/>
      <point x="377.69047619047615" y="358.0" type="curve" smooth="yes"/>
      <point x="377.69047619047615" y="165.64285714285714"/>
      <point x="358.5238095238096" y="52.73809523809524"/>
    </contour>
  </outline>
</glyph>
<glyph name="one" format="2">
  <advance width="559.0"/>
  <unicode hex="0031"/>
  <outline>
    <contour>
      <point x="97.0" y="0.0" type="line"/>
      <point x="503.66666666666663" y="0.0" type="line"/>
      <point x="503.66666666666663" y="50.73809523809524" type="line"/>
      <point x="429.0" y="50.73809523809524" type="line" smooth="yes"/>
      <point x="386.09523809523813" y="50.73809523809524"/>
      <point x="372.1190476190476" y="71.47619047619048"/>
      <point x="372.1190476190476" y="117.09523809523809" type="curve" smooth="yes"/>
      <point x="372.1190476190476" y="718.0" type="line"/>
      <point x="269.1666666666667" y="718.0" type="line"/>
      <point x="199.16666666666666" y="666.0" type="line" smooth="yes"/>
      <point x="133.16666666666666" y="617.0"/>
      <point x="86.52380952380952" y="599.0"/>
      <point x="46.523809523809526" y="589.0" type="curve"/>
      <point x="46.523809523809526" y="546.2619047619048"/>
      <point x="71.6190476190476" y="518.6190476190476"/>
      <point x="103.16666666666667" y="518.6190476190476" type="curve" smooth="yes"/>
      <point x="143.16666666666666" y="518.6190476190476"/>
      <point x="181.16666666666666" y="560.6190476190476"/>
      <point x="232.16666666666666" y="622.6190476190476" type="curve"/>
      <point x="232.16666666666666" y="117.09523809523809" type="line" smooth="yes"/>
      <point x="232.16666666666666" y="64.83333333333333"/>
      <point x="212.0952380952381" y="50.73809523809524"/>
      <point x="175.83333333333334" y="50.73809523809524" type="curve" smooth="yes"/>
      <point x="97.0" y="50.73809523809524" type="line"/>
    </contour>
  </outline>
</glyph>
<glyph name="two" format="2">
  <advance width="559.0"/>
  <unicode hex="0032"/>
  <outline>
    <contour>
      <point x="39.976190476190474" y="0.0" type="line"/>
      <point x="504.8333333333333" y="0.0" type="line"/>
      <point x="509.8333333333333" y="202.76190476190476" type="line"/>
      <point x="454.0" y="202.76190476190476" type="line"/>
      <point x="446.90476190476187" y="174.47619047619048" type="line" smooth="yes"/>
      <point x="435.3571428571429" y="131.38095238095238"/>
      <point x="408.0714285714286" y="104.11904761904762"/>
      <point x="363.4523809523809" y="104.11904761904762" type="curve" smooth="yes"/>
      <point x="130.9047619047619" y="104.11904761904762" type="line"/>
      <point x="244.02380952380952" y="216.76190476190476" type="line" smooth="yes"/>
      <point x="425.92857142857144" y="392.73809523809524"/>
      <point x="484.8333333333333" y="465.0"/>
      <point x="484.8333333333333" y="558.0" type="curve" smooth="yes"/>
      <point x="484.8333333333333" y="660.547619047619"/>
      <point x="405.2857142857143" y="724.0"/>
      <point x="260.8095238095238" y="724.0" type="curve" smooth="yes"/>
      <point x="117.97619047619048" y="724.0"/>
      <point x="45.333333333333336" y="662.3571428571428"/>
      <point x="45.333333333333336" y="589.0" type="curve" smooth="yes"/>
      <point x="45.333333333333336" y="521.0714285714286"/>
      <point x="94.6190476190476" y="496.7857142857143"/>
      <point x="165.19047619047618" y="496.7857142857143" type="curve"/>
      <point x="165.19047619047618" y="604.0"/>
      <point x="188.28571428571428" y="665.2619047619048"/>
      <point x="260.8095238095238" y="665.2619047619048" type="curve" smooth="yes"/>
      <point x="312.88095238095235" y="665.2619047619048"/>
      <point x="343.33333333333337" y="627.6428571428572"/>
      <point x="343.33333333333337" y="551.6428571428572" type="curve" smooth="yes"/>
      <point x="343.33333333333337" y="450.9047619047619"/>
      <point x="311.42857142857144" y="381.8095238095238"/>
      <point x="191.5952380952381" y="256.26190476190476" type="curve" smooth="yes"/>
      <point x="39.976190476190474" y="97.11904761904762" type="line"/>
    </contour>
  </outline>
</glyph>
<glyph name="three" format="2">
  <advance width="559.0"/>
  <unicode hex="0033"/>
  <outline>
    <contour>
      <point x="243.9047619047619" y="-10.0" type="curve" smooth="yes"/>
      <point x="377.3809523809524" y="-10.0"/>
      <point x="510.73809523809524" y="43.0"/>
      <point x="510.73809523809524" y="205.54761904761907" type="curve" smooth="yes"/>
      <point x="510.73809523809524" y="323.7142857142857"/>
      <point x="410.4761904761905" y="367.3571428571429"/>
      <point x="331.3809523809524" y="381.0" type="curve"/>
      <point x="419.2857142857143" y="408.6428571428571"/>
      <point x="485.73809523809524" y="471.90476190476187"/>
      <point x="485.73809523809524" y="561.9047619047619" type="curve" smooth="yes"/>
      <point x="485.73809523809524" y="665.0"/>
      <point x="397.6428571428571" y="724.0"/>
      <point x="258.8095238095238" y="724.0" type="curve" smooth="yes"/>
      <point x="115.97619047619048" y="724.0"/>
      <point x="42.33333333333333" y="668.0"/>
      <point x="42.33333333333333" y="595.6428571428572" type="curve" smooth="yes"/>
      <point x="42.33333333333333" y="536.452380952381"/>
      <point x="87.97619047619048" y="511.1666666666667"/>
      <point x="164.1904761904762" y="511.1666666666667" type="curve"/>
      <point x="164.1904761904762" y="589.6190476190476"/>
      <point x="179.0952380952381" y="665.2619047619048"/>
      <point x="254.71428571428575" y="665.2619047619048" type="curve" smooth="yes"/>
      <point x="313.23809523809524" y="665.2619047619048"/>
      <point x="342.23809523809524" y="620.8095238095237"/>
      <point x="342.23809523809524" y="547.452380952381" type="curve" smooth="yes"/>
      <point x="342.23809523809524" y="458.09523809523813"/>
      <point x="295.8095238095238" y="399.0952380952381"/>
      <point x="209.35714285714286" y="399.0952380952381" type="curve"/>
      <point x="150.14285714285714" y="399.0952380952381" type="line"/>
      <point x="150.14285714285714" y="339.3571428571429" type="line"/>
      <point x="206.26190476190476" y="339.3571428571429" type="line" smooth="yes"/>
      <point x="308.5238095238095" y="339.3571428571429"/>
      <point x="366.23809523809524" y="284.3571428571429"/>
      <point x="366.23809523809524" y="206.54761904761907" type="curve" smooth="yes"/>
      <point x="366.23809523809524" y="90.64285714285714"/>
      <point x="305.9761904761905" y="56.833333333333336"/>
      <point x="238.26190476190476" y="56.833333333333336" type="curve" smooth="yes"/>
      <point x="163.9047619047619" y="56.833333333333336"/>
      <point x="114.35714285714286" y="101.64285714285714"/>
      <point x="114.35714285714286" y="183.47619047619048" type="curve"/>
      <point x="70.16666666666667" y="183.47619047619048"/>
      <point x="33.88095238095238" y="157.38095238095238"/>
      <point x="33.88095238095238" y="108.19047619047619" type="curve" smooth="yes"/>
      <point x="33.88095238095238" y="46.095238095238095"/>
      <point x="96.52380952380952" y="-10.0"/>
    </contour>
  </outline>
</glyph>
<glyph name="four" format="2">
  <advance width="559.0"/>
  <unicode hex="0034"/>
  <outline>
    <contour>
      <point x="186.78571428571428" y="0.0" type="line"/>
      <point x="528.2857142857142" y="0.0" type="line"/>
      <point x="528.2857142857142" y="50.73809523809524" type="line"/>
      <point x="515.2857142857142" y="50.73809523809524" type="line" smooth="yes"/>
      <point x="470.2857142857143" y="50.73809523809524"/>
      <point x="433.2857142857143" y="59.73809523809524"/>
      <point x="433.2857142857143" y="122.73809523809524" type="curve" smooth="yes"/>
      <point x="433.2857142857143" y="187.8095238095238" type="line"/>
      <point x="540.9047619047619" y="187.8095238095238" type="line"/>
      <point x="540.9047619047619" y="252.0" type="line"/>
      <point x="433.2857142857143" y="252.0" type="line"/>
      <point x="433.2857142857143" y="714.0" type="line"/>
      <point x="302.4285714285714" y="714.0" type="line"/>
      <point x="13.904761904761903" y="245.1904761904762" type="line"/>
      <point x="13.904761904761903" y="187.8095238095238" type="line"/>
      <point x="296.7857142857143" y="187.8095238095238" type="line"/>
      <point x="296.7857142857143" y="122.73809523809524" type="line" smooth="yes"/>
      <point x="296.7857142857143" y="59.73809523809524"/>
      <point x="259.7857142857143" y="50.73809523809524"/>
      <point x="214.78571428571428" y="50.73809523809524" type="curve" smooth="yes"/>
      <point x="186.78571428571428" y="50.73809523809524" type="line"/>
    </contour>
    <contour>
      <point x="84.35714285714285" y="252.0" type="line"/>
      <point x="222.52380952380952" y="477.7142857142857" type="line" smooth="yes"/>
      <point x="238.8809523809524" y="504.9761904761904"/>
      <point x="290.7857142857143" y="593.4285714285714"/>
      <point x="303.7857142857143" y="623.9761904761905" type="curve"/>
      <point x="298.7857142857143" y="561.9761904761905"/>
      <point x="296.7857142857143" y="486.8095238095238"/>
      <point x="296.7857142857143" y="428.8095238095238" type="curve" smooth="yes"/>
      <point x="296.7857142857143" y="252.0" type="line"/>
    </contour>
  </outline>
</glyph>
<glyph name="five" format="2">
  <advance width="559.0"/>
  <unicode hex="0035"/>
  <outline>
    <contour>
      <point x="245.0" y="-10.0" type="curve" smooth="yes"/>
      <point x="371.88095238095235" y="-10.0"/>
      <point x="502.3809523809524" y="53.78571428571429"/>
      <point x="502.3809523809524" y="219.54761904761907" type="curve" smooth="yes"/>
      <point x="502.3809523809524" y="362.09523809523813"/>
      <point x="401.38095238095235" y="433.0952380952381"/>
      <point x="251.35714285714286" y="433.0952380952381" type="curve" smooth="yes"/>
      <point x="207.1904761904762" y="433.0952380952381"/>
      <point x="161.0" y="425.6428571428571"/>
      <point x="140.0" y="417.6428571428571" type="curve"/>
      <point x="156.9047619047619" y="609.8809523809524" type="line"/>
      <point x="362.1904761904762" y="609.8809523809524" type="line" smooth="yes"/>
      <point x="396.0" y="609.8809523809524"/>
      <point x="404.0" y="595.8809523809524"/>
      <point x="409.54761904761904" y="570.9761904761905" type="curve" smooth="yes"/>
      <point x="416.6428571428571" y="537.8809523809524" type="line"/>
      <point x="470.92857142857144" y="537.8809523809524" type="line"/>
      <point x="465.92857142857144" y="714.0" type="line"/>
      <point x="96.52380952380952" y="714.0" type="line"/>
      <point x="64.52380952380952" y="366.1904761904762" type="line"/>
      <point x="106.0" y="350.45238095238096" type="line"/>
      <point x="135.0952380952381" y="359.90476190476187"/>
      <point x="165.0952380952381" y="369.3571428571429"/>
      <point x="219.26190476190476" y="369.3571428571429" type="curve" smooth="yes"/>
      <point x="306.6190476190476" y="369.3571428571429"/>
      <point x="358.4285714285714" y="320.4523809523809"/>
      <point x="358.4285714285714" y="219.54761904761907" type="curve" smooth="yes"/>
      <point x="358.4285714285714" y="95.64285714285715"/>
      <point x="300.9761904761905" y="57.73809523809524"/>
      <point x="231.80952380952382" y="57.73809523809524" type="curve" smooth="yes"/>
      <point x="149.8095238095238" y="57.73809523809524"/>
      <point x="119.54761904761905" y="117.11904761904762"/>
      <point x="119.54761904761905" y="174.11904761904762" type="curve"/>
      <point x="72.45238095238096" y="174.11904761904762"/>
      <point x="42.714285714285715" y="151.57142857142856"/>
      <point x="42.714285714285715" y="107.38095238095238" type="curve" smooth="yes"/>
      <point x="42.714285714285715" y="48.54761904761905"/>
      <point x="95.0" y="-10.0"/>
    </contour>
  </outline>
</glyph>
<glyph name="six" format="2">
  <advance width="559.0"/>
  <unicode hex="0036"/>
  <outline>
    <contour>
      <point x="293.0" y="-10.0" type="curve" smooth="yes"/>
      <point x="441.8333333333333" y="-10.0"/>
      <point x="520.8333333333334" y="88.0"/>
      <point x="520.8333333333334" y="230.54761904761907" type="curve" smooth="yes"/>
      <point x="520.8333333333334" y="360.09523809523813"/>
      <point x="441.8333333333333" y="437.09523809523813"/>
      <point x="320.8333333333333" y="437.09523809523813" type="curve" smooth="yes"/>
      <point x="253.28571428571428" y="437.09523809523813"/>
      <point x="209.83333333333334" y="417.1904761904762"/>
      <point x="181.92857142857144" y="397.3809523809524" type="curve"/>
      <point x="189.47619047619048" y="570.9047619047619"/>
      <point x="238.38095238095238" y="667.2619047619048"/>
      <point x="321.0" y="667.2619047619048" type="curve" smooth="yes"/>
      <point x="376.26190476190476" y="667.2619047619048"/>
      <point x="391.5238095238096" y="601.4285714285714"/>
      <point x="391.5238095238096" y="540.5238095238095" type="curve"/>
      <point x="472.2857142857143" y="540.5238095238095"/>
      <point x="503.3809523809524" y="574.3571428571428"/>
      <point x="503.3809523809524" y="614.9047619047619" type="curve" smooth="yes"/>
      <point x="503.3809523809524" y="671.452380952381"/>
      <point x="454.0238095238095" y="724.0"/>
      <point x="328.64285714285717" y="724.0" type="curve" smooth="yes"/>
      <point x="138.35714285714286" y="724.0"/>
      <point x="48.166666666666664" y="550.0"/>
      <point x="48.166666666666664" y="335.88095238095235" type="curve" smooth="yes"/>
      <point x="48.166666666666664" y="97.0"/>
      <point x="147.7142857142857" y="-10.0"/>
    </contour>
    <contour>
      <point x="296.0" y="53.73809523809524" type="curve" smooth="yes"/>
      <point x="231.38095238095238" y="53.73809523809524"/>
      <point x="182.92857142857144" y="134.73809523809524"/>
      <point x="181.47619047619048" y="328.09523809523813" type="curve"/>
      <point x="200.73809523809524" y="352.0"/>
      <point x="247.83333333333334" y="378.3571428571429"/>
      <point x="287.0" y="378.3571428571429" type="curve" smooth="yes"/>
      <point x="347.6190476190476" y="378.3571428571429"/>
      <point x="383.9761904761905" y="329.90476190476187"/>
      <point x="383.9761904761905" y="220.54761904761907" type="curve" smooth="yes"/>
      <point x="383.9761904761905" y="104.64285714285714"/>
      <point x="350.6190476190476" y="53.73809523809524"/>
    </contour>
  </outline>
</glyph>
<glyph name="seven" format="2">
  <advance width="559.0"/>
  <unicode hex="0037"/>
  <outline>
    <contour>
      <point x="169.97619047619045" y="0.0" type="line"/>
      <point x="252.71428571428572" y="0.0" type="line"/>
      <point x="523.2857142857142" y="668.6190476190476" type="line"/>
      <point x="523.2857142857142" y="714.0" type="line"/>
      <point x="51.714285714285715" y="714.0" type="line"/>
      <point x="46.714285714285715" y="509.42857142857144" type="line"/>
      <point x="103.54761904761904" y="509.42857142857144" type="line"/>
      <point x="109.0952380952381" y="559.4285714285714" type="line" smooth="yes"/>
      <point x="112.64285714285715" y="592.4285714285714"/>
      <point x="131.0952380952381" y="610.4285714285714"/>
      <point x="167.0952380952381" y="610.4285714285714" type="curve" smooth="yes"/>
      <point x="430.0952380952381" y="610.4285714285714" type="line"/>
    </contour>
  </outline>
</glyph>
<glyph name="eight" format="2">
  <advance width="559.0"/>
  <unicode hex="0038"/>
  <outline>
    <contour>
      <point x="273.0" y="-10.0" type="curve" smooth="yes"/>
      <point x="431.2857142857143" y="-10.0"/>
      <point x="525.8333333333334" y="63.0"/>
      <point x="525.8333333333334" y="189.45238095238093" type="curve" smooth="yes"/>
      <point x="525.8333333333334" y="271.35714285714283"/>
      <point x="475.76190476190476" y="330.3571428571429"/>
      <point x="359.8333333333333" y="386.09523809523813" type="curve"/>
      <point x="442.38095238095235" y="428.6428571428571"/>
      <point x="494.8333333333333" y="468.0952380952381"/>
      <point x="494.8333333333333" y="549.452380952381" type="curve" smooth="yes"/>
      <point x="494.8333333333333" y="650.452380952381"/>
      <point x="422.8333333333333" y="724.0"/>
      <point x="285.0" y="724.0" type="curve" smooth="yes"/>
      <point x="116.61904761904762" y="724.0"/>
      <point x="56.166666666666664" y="635.452380952381"/>
      <point x="56.166666666666664" y="542.452380952381" type="curve" smooth="yes"/>
      <point x="56.166666666666664" y="463.5476190476191"/>
      <point x="101.97619047619048" y="406.54761904761904"/>
      <point x="181.07142857142858" y="361.0" type="curve"/>
      <point x="93.07142857142857" y="317.4523809523809"/>
      <point x="33.166666666666664" y="269.3571428571429"/>
      <point x="33.166666666666664" y="181.54761904761904" type="curve" smooth="yes"/>
      <point x="33.166666666666664" y="75.54761904761905"/>
      <point x="109.16666666666667" y="-10.0"/>
    </contour>
    <contour>
      <point x="278.0" y="44.73809523809524" type="curve" smooth="yes"/>
      <point x="205.92857142857142" y="44.73809523809524"/>
      <point x="160.92857142857144" y="98.64285714285714"/>
      <point x="160.92857142857144" y="177.54761904761904" type="curve" smooth="yes"/>
      <point x="160.92857142857144" y="248.45238095238093"/>
      <point x="195.83333333333334" y="294.26190476190476"/>
      <point x="244.45238095238093" y="324.1666666666667" type="curve"/>
      <point x="352.42857142857144" y="275.35714285714283"/>
      <point x="395.8809523809524" y="237.0"/>
      <point x="395.8809523809524" y="171.54761904761904" type="curve" smooth="yes"/>
      <point x="395.8809523809524" y="97.64285714285714"/>
      <point x="349.6190476190476" y="44.73809523809524"/>
    </contour>
    <contour>
      <point x="301.09523809523813" y="418.2857142857143" type="curve"/>
      <point x="227.47619047619048" y="451.6428571428571"/>
      <point x="188.11904761904762" y="485.0"/>
      <point x="188.11904761904762" y="554.452380952381" type="curve" smooth="yes"/>
      <point x="188.11904761904762" y="619.3571428571428"/>
      <point x="220.38095238095238" y="668.2619047619048"/>
      <point x="279.0" y="668.2619047619048" type="curve" smooth="yes"/>
      <point x="344.5238095238096" y="668.2619047619048"/>
      <point x="376.07142857142856" y="609.3571428571428"/>
      <point x="376.07142857142856" y="551.452380952381" type="curve" smooth="yes"/>
      <point x="376.07142857142856" y="485.0"/>
      <point x="355.0714285714286" y="447.6428571428571"/>
    </contour>
  </outline>
</glyph>
<glyph name="nine" format="2">
  <advance width="559.0"/>
  <unicode hex="0039"/>
  <outline>
    <contour>
      <point x="227.0" y="-10.0" type="curve"/>
      <point x="429.73809523809524" y="-10.0"/>
      <point x="510.8333333333333" y="169.8095238095238"/>
      <point x="510.8333333333333" y="388.0" type="curve" smooth="yes"/>
      <point x="510.8333333333333" y="623.0"/>
      <point x="407.1904761904762" y="724.0"/>
      <point x="264.0" y="724.0" type="curve" smooth="yes"/>
      <point x="122.8095238095238" y="724.0"/>
      <point x="38.166666666666664" y="625.0952380952381"/>
      <point x="38.166666666666664" y="481.09523809523813" type="curve" smooth="yes"/>
      <point x="38.166666666666664" y="346.09523809523813"/>
      <point x="119.16666666666667" y="275.0"/>
      <point x="234.16666666666666" y="275.0" type="curve" smooth="yes"/>
      <point x="301.6190476190476" y="275.0"/>
      <point x="347.5238095238096" y="304.90476190476187"/>
      <point x="377.0714285714286" y="343.0" type="curve"/>
      <point x="370.0714285714286" y="149.19047619047618"/>
      <point x="323.6190476190476" y="51.19047619047619"/>
      <point x="231.0952380952381" y="51.19047619047619" type="curve" smooth="yes"/>
      <point x="165.0" y="51.19047619047619"/>
      <point x="131.0" y="96.3809523809524"/>
      <point x="112.0" y="152.76190476190476" type="curve"/>
      <point x="81.6190476190476" y="146.21428571428572"/>
      <point x="66.6190476190476" y="126.11904761904762"/>
      <point x="66.6190476190476" y="97.57142857142858" type="curve" smooth="yes"/>
      <point x="66.6190476190476" y="43.73809523809524"/>
      <point x="107.35714285714286" y="-10.0"/>
    </contour>
    <contour>
      <point x="273.09523809523813" y="344.73809523809524" type="curve" smooth="yes"/>
      <point x="208.38095238095238" y="344.73809523809524"/>
      <point x="175.02380952380952" y="392.38095238095235"/>
      <point x="175.02380952380952" y="488.0" type="curve" smooth="yes"/>
      <point x="175.02380952380952" y="600.9047619047619"/>
      <point x="209.38095238095238" y="659.2619047619048"/>
      <point x="269.0952380952381" y="659.2619047619048" type="curve" smooth="yes"/>
      <point x="333.26190476190476" y="659.2619047619048"/>
      <point x="375.0714285714286" y="585.8095238095237"/>
      <point x="377.5238095238096" y="414.0" type="curve"/>
      <point x="358.5238095238095" y="373.54761904761904"/>
      <point x="322.7142857142857" y="344.73809523809524"/>
    </contour>
  </outline>
</glyph>
<glyph name="colon" format="2">
  <advance width="345.14285714285717"/>
  <unicode hex="003A"/>
  <outline>
    <contour>
      <point x="203.11904761904762" y="388.5238095238095" type="curve" smooth="yes"/>
      <point x="245.4047619047619" y="388.5238095238095"/>
      <point x="281.14285714285717" y="407.6190476190476"/>
      <point x="281.14285714285717" y="466.35714285714283" type="curve" smooth="yes"/>
      <point x="281.14285714285717" y="525.547619047619"/>
      <point x="245.4047619047619" y="543.6428571428572"/>
      <point x="203.11904761904762" y="543.6428571428572" type="curve" smooth="yes"/>
      <point x="159.38095238095238" y="543.6428571428572"/>
      <point x="125.19047619047619" y="525.547619047619"/>
      <point x="125.19047619047619" y="466.35714285714283" type="curve" smooth="yes"/>
      <point x="125.19047619047619" y="407.6190476190476"/>
      <point x="159.38095238095238" y="388.5238095238095"/>
    </contour>
    <contour>
      <point x="203.11904761904762" y="-8.0" type="curve" smooth="yes"/>
      <point x="245.4047619047619" y="-8.0"/>
      <point x="281.14285714285717" y="11.547619047619047"/>
      <point x="281.14285714285717" y="69.73809523809524" type="curve" smooth="yes"/>
      <point x="281.14285714285717" y="129.02380952380952"/>
      <point x="245.4047619047619" y="147.57142857142856"/>
      <point x="203.11904761904762" y="147.57142857142856" type="curve" smooth="yes"/>
      <point x="159.38095238095238" y="147.57142857142856"/>
      <point x="125.19047619047619" y="129.02380952380952"/>
      <point x="125.19047619047619" y="69.73809523809524" type="curve" smooth="yes"/>
      <point x="125.19047619047619" y="11.547619047619047"/>
      <point x="159.38095238095238" y="-8.0"/>
    </contour>
  </outline>
</glyph>
<glyph name="semicolon" format="2">
  <advance width="352.1190476190476"/>
  <unicode hex="003B"/>
  <outline>
    <contour>
      <point x="103.3809523809524" y="-154.0" type="line"/>
      <point x="230.66666666666666" y="-119.0"/>
      <point x="279.30952380952385" y="-43.452380952380956"/>
      <point x="279.30952380952385" y="41.095238095238095" type="curve" smooth="yes"/>
      <point x="279.30952380952385" y="107.83333333333333"/>
      <point x="245.85714285714286" y="147.57142857142856"/>
      <point x="193.02380952380952" y="147.57142857142856" type="curve" smooth="yes"/>
      <point x="153.38095238095238" y="147.57142857142856"/>
      <point x="119.73809523809524" y="124.02380952380952"/>
      <point x="119.73809523809524" y="79.83333333333333" type="curve" smooth="yes"/>
      <point x="119.73809523809524" y="4.357142857142858"/>
      <point x="192.73809523809524" y="14.452380952380953"/>
      <point x="192.73809523809524" y="-24.0" type="curve"/>
      <point x="192.73809523809524" y="-62.0"/>
      <point x="162.73809523809524" y="-83.26190476190476"/>
      <point x="103.3809523809524" y="-104.26190476190476" type="curve"/>
    </contour>
    <contour>
      <point x="201.47619047619048" y="388.5238095238095" type="curve" smooth="yes"/>
      <point x="242.76190476190476" y="388.5238095238095"/>
      <point x="279.95238095238096" y="407.6190476190476"/>
      <point x="279.95238095238096" y="466.35714285714283" type="curve" smooth="yes"/>
      <point x="279.95238095238096" y="525.547619047619"/>
      <point x="242.76190476190476" y="543.6428571428572"/>
      <point x="201.47619047619048" y="543.6428571428572" type="curve" smooth="yes"/>
      <point x="156.73809523809524" y="543.6428571428572"/>
      <point x="123.0" y="525.547619047619"/>
      <point x="123.0" y="466.35714285714283" type="curve" smooth="yes"/>
      <point x="123.0" y="407.6190476190476"/>
      <point x="156.73809523809524" y="388.5238095238095"/>
    </contour>
  </outline>
</glyph>
<glyph name="less" format="2">
  <advance width="559.0"/>
  <unicode hex="003C"/>
  <outline>
    <contour>
      <point x="494.0" y="105.35714285714286" type="line"/>
      <point x="494.0" y="181.19047619047618" type="line"/>
      <point x="168.38095238095238" y="357.0" type="line"/>
      <point x="494.0" y="534.8095238095237" type="line"/>
      <point x="494.0" y="610.6428571428572" type="line"/>
      <point x="65.0" y="377.5476190476191" type="line"/>
      <point x="65.0" y="337.4523809523809" type="line"/>
    </contour>
  </outline>
</glyph>
<glyph name="equal" format="2">
  <advance width="559.0"/>
  <unicode hex="003D"/>
  <outline>
    <contour>
      <point x="63.452380952380956" y="420.8095238095238" type="line"/>
      <point x="496.5476190476191" y="420.8095238095238" type="line"/>
      <point x="496.5476190476191" y="488.0952380952381" type="line"/>
      <point x="63.452380952380956" y="488.0952380952381" type="line"/>
    </contour>
    <contour>
      <point x="63.452380952380956" y="225.9047619047619" type="line"/>
      <point x="496.5476190476191" y="225.9047619047619" type="line"/>
      <point x="496.5476190476191" y="293.1904761904762" type="line"/>
      <point x="63.452380952380956" y="293.1904761904762" type="line"/>
    </contour>
  </outline>
</glyph>
<glyph name="question" format="2">
  <advance width="541.6190476190476"/>
  <unicode hex="003F"/>
  <outline>
    <contour>
      <point x="209.11904761904762" y="230.76190476190476" type="line"/>
      <point x="289.59523809523813" y="230.76190476190476" type="line"/>
      <point x="308.07142857142856" y="321.1904761904762" type="line"/>
      <point x="444.3571428571429" y="377.8333333333333"/>
      <point x="506.1666666666667" y="433.0"/>
      <point x="506.1666666666667" y="538.9047619047619" type="curve" smooth="yes"/>
      <point x="506.1666666666667" y="655.452380952381"/>
      <point x="406.9761904761905" y="724.0"/>
      <point x="253.30952380952382" y="724.0" type="curve" smooth="yes"/>
      <point x="99.19047619047619" y="724.0"/>
      <point x="29.904761904761905" y="660.6190476190476"/>
      <point x="29.904761904761905" y="594.0714285714286" type="curve" smooth="yes"/>
      <point x="29.904761904761905" y="532.5952380952382"/>
      <point x="83.3809523809524" y="513.6904761904761"/>
      <point x="179.07142857142858" y="513.6904761904761" type="curve"/>
      <point x="179.07142857142858" y="612.9047619047619"/>
      <point x="203.97619047619048" y="659.6190476190476"/>
      <point x="255.66666666666666" y="659.6190476190476" type="curve" smooth="yes"/>
      <point x="302.4523809523809" y="659.6190476190476"/>
      <point x="328.26190476190476" y="620.8095238095239"/>
      <point x="328.26190476190476" y="554.3571428571428" type="curve" smooth="yes"/>
      <point x="328.26190476190476" y="470.26190476190476"/>
      <point x="302.5476190476191" y="403.09523809523813"/>
      <point x="190.64285714285714" y="350.4523809523809" type="curve"/>
    </contour>
    <contour>
      <point x="246.85714285714286" y="-8.547619047619047" type="curve" smooth="yes"/>
      <point x="294.1428571428571" y="-8.547619047619047"/>
      <point x="334.9761904761905" y="13.095238095238097"/>
      <point x="334.9761904761905" y="78.92857142857143" type="curve" smooth="yes"/>
      <point x="334.9761904761905" y="145.3095238095238"/>
      <point x="294.1428571428571" y="166.40476190476193"/>
      <point x="246.85714285714286" y="166.40476190476193" type="curve" smooth="yes"/>
      <point x="198.47619047619048" y="166.40476190476193"/>
      <point x="159.73809523809524" y="145.3095238095238"/>
      <point x="159.73809523809524" y="78.92857142857143" type="curve" smooth="yes"/>
      <point x="159.73809523809524" y="13.095238095238097"/>
      <point x="198.47619047619048" y="-8.547619047619047"/>
    </contour>
  </outline>
</glyph>
<glyph name="bracketleft" format="2">
  <advance width="416.9761904761905"/>
  <unicode hex="005B"/>
  <outline>
    <contour>
      <point x="71.19047619047619" y="-128.0" type="line"/>
      <point x="338.9761904761905" y="-128.0" type="line"/>
      <point x="338.9761904761905" y="-77.26190476190476" type="line"/>
      <point x="295.5238095238095" y="-77.26190476190476" type="line" smooth="yes"/>
      <point x="250.52380952380955" y="-77.26190476190476"/>
      <point x="213.97619047619048" y="-68.26190476190476"/>
      <point x="213.97619047619048" y="-5.261904761904761" type="curve" smooth="yes"/>
      <point x="213.97619047619048" y="637.2619047619048" type="line" smooth="yes"/>
      <point x="213.97619047619048" y="700.2619047619048"/>
      <point x="250.52380952380955" y="709.2619047619048"/>
      <point x="295.5238095238095" y="709.2619047619048" type="curve" smooth="yes"/>
      <point x="338.9761904761905" y="709.2619047619048" type="line"/>
      <point x="338.9761904761905" y="760.0" type="line"/>
      <point x="71.19047619047619" y="760.0" type="line"/>
    </contour>
  </outline>
</glyph>
<glyph name="backslash" format="2">
  <advance width="288.0"/>
  <unicode hex="005C"/>
  <outline>
    <contour>
      <point x="218.16666666666666" y="-121.0" type="line"/>
      <point x="288.0" y="-121.0" type="line"/>
      <point x="68.83333333333333" y="760.0" type="line"/>
      <point x="0.0" y="760.0" type="line"/>
    </contour>
  </outline>
</glyph>
<glyph name="bracketright" format="2">
  <advance width="462.26190476190476"/>
  <unicode hex="005D"/>
  <outline>
    <contour>
      <point x="124.28571428571429" y="-128.0" type="line"/>
      <point x="391.07142857142856" y="-128.0" type="line"/>
      <point x="391.07142857142856" y="760.0" type="line"/>
      <point x="124.28571428571429" y="760.0" type="line"/>
      <point x="124.28571428571429" y="709.2619047619048" type="line"/>
      <point x="167.73809523809524" y="709.2619047619048" type="line" smooth="yes"/>
      <point x="212.73809523809524" y="709.2619047619048"/>
      <point x="249.2857142857143" y="700.2619047619048"/>
      <point x="249.2857142857143" y="637.2619047619048" type="curve" smooth="yes"/>
      <point x="249.2857142857143" y="-5.261904761904761" type="line" smooth="yes"/>
      <point x="249.2857142857143" y="-68.26190476190476"/>
      <point x="212.73809523809524" y="-77.26190476190476"/>
      <point x="167.73809523809524" y="-77.26190476190476" type="curve" smooth="yes"/>
      <point x="124.28571428571429" y="-77.26190476190476" type="line"/>
    </contour>
  </outline>
</glyph>
<glyph name="braceleft" format="2">
  <advance width="498.45238095238096"/>
  <unicode hex="007B"/>
  <outline>
    <contour>
      <point x="313.85714285714283" y="-125.45238095238096" type="curve" smooth="yes"/>
      <point x="404.07142857142856" y="-125.45238095238096" type="line"/>
      <point x="404.07142857142856" y="-74.16666666666667" type="line"/>
      <point x="365.88095238095235" y="-74.16666666666667" type="line" smooth="yes"/>
      <point x="309.42857142857144" y="-74.16666666666667"/>
      <point x="293.6190476190476" y="-39.26190476190476"/>
      <point x="293.6190476190476" y="24.642857142857146" type="curve" smooth="yes"/>
      <point x="293.6190476190476" y="196.0952380952381" type="line" smooth="yes"/>
      <point x="293.6190476190476" y="257.45238095238096"/>
      <point x="259.61904761904765" y="297.8095238095238"/>
      <point x="184.07142857142856" y="315.45238095238096" type="curve"/>
      <point x="184.07142857142856" y="322.0952380952381" type="line"/>
      <point x="260.1666666666667" y="338.73809523809524"/>
      <point x="293.6190476190476" y="379.0952380952381"/>
      <point x="293.6190476190476" y="440.0" type="curve" smooth="yes"/>
      <point x="293.6190476190476" y="610.452380952381" type="line" smooth="yes"/>
      <point x="293.6190476190476" y="674.8095238095239"/>
      <point x="309.42857142857144" y="709.2619047619048"/>
      <point x="366.3333333333333" y="709.2619047619048" type="curve" smooth="yes"/>
      <point x="404.07142857142856" y="709.2619047619048" type="line"/>
      <point x="404.07142857142856" y="760.0" type="line"/>
      <point x="313.85714285714283" y="760.0" type="line" smooth="yes"/>
      <point x="204.92857142857144" y="760.0"/>
      <point x="147.73809523809524" y="707.0"/>
      <point x="147.73809523809524" y="614.9047619047619" type="curve" smooth="yes"/>
      <point x="147.73809523809524" y="442.0" type="line" smooth="yes"/>
      <point x="147.73809523809524" y="365.6428571428571"/>
      <point x="96.73809523809524" y="348.73809523809524"/>
      <point x="31.285714285714285" y="346.73809523809524" type="curve"/>
      <point x="31.285714285714285" y="289.8095238095238" type="line"/>
      <point x="96.73809523809524" y="286.8095238095238"/>
      <point x="147.73809523809524" y="270.45238095238096"/>
      <point x="147.73809523809524" y="193.0952380952381" type="curve" smooth="yes"/>
      <point x="147.73809523809524" y="21.642857142857142" type="line" smooth="yes"/>
      <point x="147.73809523809524" y="-68.90476190476191"/>
      <point x="204.92857142857144" y="-125.45238095238096"/>
    </contour>
  </outline>
</glyph>
<glyph name="braceright" format="2">
  <advance width="528.3571428571429"/>
  <unicode hex="007D"/>
  <outline>
    <contour>
      <point x="124.28571428571429" y="-125.45238095238096" type="line"/>
      <point x="213.95238095238096" y="-125.45238095238096" type="line" smooth="yes"/>
      <point x="322.88095238095235" y="-125.45238095238096"/>
      <point x="379.6190476190476" y="-68.90476190476191"/>
      <point x="379.6190476190476" y="21.642857142857142" type="curve" smooth="yes"/>
      <point x="379.6190476190476" y="193.0952380952381" type="line" smooth="yes"/>
      <point x="379.6190476190476" y="270.45238095238096"/>
      <point x="432.07142857142856" y="286.8095238095238"/>
      <point x="497.07142857142856" y="289.8095238095238" type="curve"/>
      <point x="497.07142857142856" y="346.73809523809524" type="line"/>
      <point x="432.07142857142856" y="348.73809523809524"/>
      <point x="379.6190476190476" y="365.6428571428571"/>
      <point x="379.6190476190476" y="442.0" type="curve" smooth="yes"/>
      <point x="379.6190476190476" y="614.9047619047619" type="line" smooth="yes"/>
      <point x="379.6190476190476" y="707.0"/>
      <point x="322.88095238095235" y="760.0"/>
      <point x="213.95238095238096" y="760.0" type="curve" smooth="yes"/>
      <point x="124.28571428571429" y="760.0" type="line"/>
      <point x="124.28571428571429" y="709.2619047619048" type="line"/>
      <point x="162.47619047619048" y="709.2619047619048" type="line" smooth="yes"/>
      <point x="219.92857142857144" y="709.2619047619048"/>
      <point x="234.73809523809524" y="674.8095238095239"/>
      <point x="234.73809523809524" y="610.452380952381" type="curve" smooth="yes"/>
      <point x="234.73809523809524" y="440.0" type="line" smooth="yes"/>
      <point x="234.73809523809524" y="379.0952380952381"/>
      <point x="268.64285714285717" y="338.73809523809524"/>
      <point x="344.73809523809524" y="322.0952380952381" type="curve"/>
      <point x="344.73809523809524" y="315.45238095238096" type="line"/>
      <point x="268.73809523809524" y="297.8095238095238"/>
      <point x="234.73809523809524" y="257.45238095238096"/>
      <point x="234.73809523809524" y="196.0952380952381" type="curve" smooth="yes"/>
      <point x="234.73809523809524" y="24.642857142857146" type="line" smooth="yes"/>
      <point x="234.73809523809524" y="-39.26190476190476"/>
      <point x="219.92857142857144" y="-74.16666666666667"/>
      <point x="162.47619047619048" y="-74.16666666666667" type="curve" smooth="yes"/>
      <point x="124.28571428571429" y="-74.16666666666667" type="line"/>
    </contour>
  </outline>
</glyph>
<glyph name="asciitilde" format="2">
  <advance width="559.0"/>
  <unicode hex="007E"/>
  <outline>
    <contour>
      <point x="47.80952380952381" y="263.35714285714283" type="curve"/>
      <point x="117.64285714285714" y="263.35714285714283" type="line"/>
      <point x="121.54761904761904" y="345.90476190476187"/>
      <point x="140.0952380952381" y="379.8095238095238"/>
      <point x="176.0" y="379.8095238095238" type="curve" smooth="yes"/>
      <point x="204.9047619047619" y="379.8095238095238"/>
      <point x="222.26190476190476" y="359.4523809523809"/>
      <point x="256.8095238095238" y="328.3571428571429" type="curve" smooth="yes"/>
      <point x="302.54761904761904" y="285.7142857142857"/>
      <point x="333.4523809523809" y="263.35714285714283"/>
      <point x="383.54761904761904" y="263.35714285714283" type="curve" smooth="yes"/>
      <point x="481.64285714285717" y="263.35714285714283"/>
      <point x="504.73809523809524" y="349.88095238095235"/>
      <point x="510.1904761904762" y="449.64285714285717" type="curve"/>
      <point x="439.35714285714283" y="449.64285714285717" type="line"/>
      <point x="434.45238095238096" y="371.0"/>
      <point x="419.4523809523809" y="333.1904761904762"/>
      <point x="384.54761904761904" y="333.1904761904762" type="curve" smooth="yes"/>
      <point x="359.6428571428571" y="333.1904761904762"/>
      <point x="337.73809523809524" y="353.09523809523813"/>
      <point x="304.6428571428571" y="382.6428571428571" type="curve" smooth="yes"/>
      <point x="249.9047619047619" y="431.2857142857143"/>
      <point x="225.0952380952381" y="449.64285714285717"/>
      <point x="179.64285714285714" y="449.64285714285717" type="curve" smooth="yes"/>
      <point x="79.45238095238096" y="449.64285714285717"/>
      <point x="50.714285714285715" y="362.3809523809524"/>
    </contour>
  </outline>
</glyph>
<glyph name="multiply" format="2">
  <advance width="559.0"/>
  <unicode hex="00D7"/>
  <outline>
    <contour>
      <point x="128.47619047619048" y="157.73809523809524" type="line"/>
      <point x="279.0" y="309.8095238095238" type="line"/>
      <point x="430.0714285714286" y="157.73809523809524" type="line"/>
      <point x="478.26190476190476" y="205.92857142857142" type="line"/>
      <point x="327.1904761904762" y="358.0" type="line"/>
      <point x="478.26190476190476" y="509.07142857142856" type="line"/>
      <point x="429.5238095238096" y="558.8095238095239" type="line"/>
      <point x="279.0" y="407.73809523809524" type="line"/>
      <point x="128.47619047619048" y="557.8095238095239" type="line"/>
      <point x="78.73809523809524" y="509.07142857142856" type="line"/>
      <point x="230.26190476190476" y="359.0" type="line"/>
      <point x="78.73809523809524" y="206.92857142857142" type="line"/>
    </contour>
  </outline>
</glyph>
<glyph name="divide" format="2">
  <advance width="559.0"/>
  <unicode hex="00F7"/>
  <outline>
    <contour>
      <point x="65.0" y="323.35714285714283" type="line"/>
      <point x="494.0" y="323.35714285714283" type="line"/>
      <point x="494.0" y="391.6428571428571" type="line"/>
      <point x="65.0" y="391.6428571428571" type="line"/>
    </contour>
    <contour>
      <point x="280.0" y="108.80952380952381" type="curve" smooth="yes"/>
      <point x="310.5476190476191" y="108.80952380952381"/>
      <point x="334.6428571428571" y="124.35714285714288"/>
      <point x="334.6428571428571" y="168.45238095238093" type="curve" smooth="yes"/>
      <point x="334.6428571428571" y="213.54761904761904"/>
      <point x="310.5476190476191" y="228.0952380952381"/>
      <point x="280.0" y="228.0952380952381" type="curve" smooth="yes"/>
      <point x="248.45238095238096" y="228.0952380952381"/>
      <point x="225.35714285714286" y="213.54761904761904"/>
      <point x="225.35714285714286" y="168.45238095238093" type="curve" smooth="yes"/>
      <point x="225.35714285714286" y="124.35714285714288"/>
      <point x="248.45238095238096" y="108.80952380952381"/>
    </contour>
    <contour>
      <point x="280.0" y="487.3571428571429" type="curve" smooth="yes"/>
      <point x="310.5476190476191" y="487.3571428571429"/>
      <point x="334.6428571428571" y="502.4523809523809"/>
      <point x="334.6428571428571" y="546.547619047619" type="curve" smooth="yes"/>
      <point x="334.6428571428571" y="591.6428571428572"/>
      <point x="310.5476190476191" y="606.1904761904763"/>
      <point x="280.0" y="606.1904761904763" type="curve" smooth="yes"/>
      <point x="248.45238095238096" y="606.1904761904763"/>
      <point x="225.35714285714286" y="591.6428571428572"/>
      <point x="225.35714285714286" y="546.547619047619" type="curve" smooth="yes"/>
      <point x="225.35714285714286" y="502.4523809523809"/>
      <point x="248.45238095238096" y="487.3571428571429"/>
    </contour>
  </outline>
</glyph>
<glyph name="udatta-deva" format="2">
  <unicode hex="0951"/>
  <anchor x="-299.0" y="-277.73809523809524" name="_vedic"/>
  <outline>
    <contour>
      <point x="-351.0238095238096" y="706.0" type="line"/>
      <point x="-247.88095238095238" y="706.0" type="line"/>
      <point x="-247.88095238095238" y="919.8333333333334" type="line"/>
      <point x="-351.0238095238096" y="919.8333333333334" type="line"/>
    </contour>
  </outline>
</glyph>
<glyph name="anudatta-deva" format="2">
  <unicode hex="0952"/>
  <anchor x="-299.0" y="430.95238095238096" name="_vedic"/>
  <outline>
    <contour>
      <point x="-543.6666666666667" y="-160.02380952380952" type="line"/>
      <point x="-53.78571428571428" y="-160.02380952380952" type="line"/>
      <point x="-53.78571428571428" y="-80.35714285714286" type="line"/>
      <point x="-543.6666666666667" y="-80.35714285714286" type="line"/>
    </contour>
  </outline>
</glyph>
<glyph name="danda-deva" format="2">
  <advance width="480.92857142857144"/>
  <unicode hex="0964"/>
  <outline>
    <contour>
      <point x="397.66666666666663" y="-39.38095238095238" type="line"/>
      <point x="407.3095238095238" y="-36.38095238095238" type="line"/>
      <point x="407.3095238095238" y="589.6428571428572" type="line"/>
      <point x="306.6190476190476" y="626.6428571428572" type="line"/>
      <point x="303.6190476190476" y="626.6428571428572" type="line"/>
      <point x="303.6190476190476" y="0.35714285714285676" type="line"/>
    </contour>
  </outline>
</glyph>
<glyph name="dbldanda-deva" format="2">
  <advance width="675.3333333333333"/>
  <unicode hex="0965"/>
  <outline>
    <contour>
      <point x="592.5238095238095" y="-39.38095238095238" type="line"/>
      <point x="601.7142857142857" y="-36.38095238095238" type="line"/>
      <point x="601.7142857142857" y="589.6428571428572" type="line"/>
      <point x="501.4761904761905" y="626.6428571428572" type="line"/>
      <point x="498.4761904761905" y="626.6428571428572" type="line"/>
      <point x="498.4761904761905" y="0.35714285714285676" type="line"/>
    </contour>
    <contour>
      <point x="397.66666666666663" y="-39.38095238095238" type="line"/>
      <point x="407.3095238095238" y="-36.38095238095238" type="line"/>
      <point x="407.3095238095238" y="589.6428571428572" type="line"/>
      <point x="306.6190476190476" y="626.6428571428572" type="line"/>
      <point x="303.6190476190476" y="626.6428571428572" type="line"/>
      <point x="303.6190476190476" y="0.35714285714285676" type="line"/>
    </contour>
  </outline>
</glyph>
<glyph name="anji-beng" format="2">
  <advance width="622.452380952381"/>
  <unicode hex="0980"/>
  <anchor x="333.76190476190476" y="587.9285714285714" name="top"/>
  <outline>
    <contour>
      <point x="516.3571428571429" y="-48.6904761904762" type="curve" smooth="yes"/>
      <point x="575.7380952380953" y="-48.6904761904762"/>
      <point x="607.0238095238095" y="-14.500000000000005"/>
      <point x="607.0238095238095" y="38.42857142857142" type="curve" smooth="yes"/>
      <point x="607.0238095238095" y="91.80952380952381"/>
      <point x="570.7380952380952" y="124.45238095238096"/>
      <point x="527.6428571428571" y="124.45238095238096" type="curve" smooth="yes"/>
      <point x="476.26190476190476" y="124.45238095238096"/>
      <point x="458.61904761904765" y="85.97619047619048"/>
      <point x="457.71428571428567" y="55.42857142857142" type="curve"/>
      <point x="504.64285714285717" y="48.238095238095234" type="line"/>
      <point x="504.64285714285717" y="464.6190476190476" type="line" smooth="yes"/>
      <point x="504.64285714285717" y="563.7380952380952"/>
      <point x="428.8809523809524" y="634.8333333333334"/>
      <point x="308.85714285714283" y="634.8333333333334" type="curve" smooth="yes"/>
      <point x="161.19047619047618" y="634.8333333333334"/>
      <point x="48.61904761904761" y="538.547619047619"/>
      <point x="48.61904761904761" y="393.14285714285717" type="curve" smooth="yes"/>
      <point x="48.61904761904761" y="261.3095238095238"/>
      <point x="131.42857142857142" y="178.73809523809524"/>
      <point x="252.11904761904762" y="178.73809523809524" type="curve" smooth="yes"/>
      <point x="327.5" y="178.73809523809524"/>
      <point x="369.78571428571433" y="222.02380952380952"/>
      <point x="369.78571428571433" y="285.40476190476187" type="curve" smooth="yes"/>
      <point x="369.78571428571433" y="344.04761904761904"/>
      <point x="333.6904761904762" y="383.88095238095235"/>
      <point x="275.4047619047619" y="383.88095238095235" type="curve" smooth="yes"/>
      <point x="224.11904761904762" y="383.88095238095235"/>
      <point x="188.47619047619048" y="347.14285714285717"/>
      <point x="188.47619047619048" y="296.5" type="curve" smooth="yes"/>
      <point x="188.47619047619048" y="276.76190476190476"/>
      <point x="192.02380952380952" y="257.11904761904765"/>
      <point x="198.11904761904762" y="245.57142857142856" type="curve"/>
      <point x="252.85714285714286" y="270.6666666666667" type="line"/>
      <point x="239.7619047619048" y="267.66666666666663"/>
      <point x="225.66666666666669" y="266.66666666666663"/>
      <point x="213.11904761904762" y="266.66666666666663" type="curve" smooth="yes"/>
      <point x="175.57142857142858" y="266.66666666666663"/>
      <point x="151.47619047619048" y="296.57142857142856"/>
      <point x="151.47619047619048" y="356.76190476190476" type="curve" smooth="yes"/>
      <point x="151.47619047619048" y="459.5952380952381"/>
      <point x="266.76190476190476" y="528.2380952380952"/>
      <point x="345.14285714285717" y="528.2380952380952" type="curve" smooth="yes"/>
      <point x="388.04761904761904" y="528.2380952380952"/>
      <point x="400.95238095238096" y="508.7857142857143"/>
      <point x="400.95238095238096" y="465.7857142857143" type="curve" smooth="yes"/>
      <point x="400.95238095238096" y="89.16666666666667" type="line" smooth="yes"/>
      <point x="400.95238095238096" y="11.238095238095234"/>
      <point x="441.69047619047615" y="-48.6904761904762"/>
    </contour>
  </outline>
</glyph>
<glyph name="candrabindu-beng" format="2">
  <unicode hex="0981"/>
  <anchor x="0.0" y="622.0" name="_top"/>
  <outline>
    <contour>
      <point x="-18.357142857142854" y="701.4285714285714" type="curve" smooth="yes"/>
      <point x="76.73809523809524" y="701.4285714285714"/>
      <point x="140.85714285714286" y="761.3333333333334"/>
      <point x="156.7619047619048" y="892.8333333333334" type="curve"/>
      <point x="110.47619047619048" y="908.3809523809524" type="line"/>
      <point x="92.92857142857143" y="835.2619047619048"/>
      <point x="48.0" y="799.0952380952381"/>
      <point x="-18.26190476190476" y="799.0952380952381" type="curve" smooth="yes"/>
      <point x="-84.07142857142857" y="799.0952380952381"/>
      <point x="-131.0952380952381" y="835.8095238095239"/>
      <point x="-150.0" y="908.3809523809524" type="curve"/>
      <point x="-195.28571428571428" y="892.8333333333334" type="line"/>
      <point x="-180.47619047619048" y="762.3333333333334"/>
      <point x="-114.80952380952381" y="701.4285714285714"/>
    </contour>
    <contour>
      <point x="-19.80952380952381" y="835.3571428571428" type="curve" smooth="yes"/>
      <point x="18.476190476190478" y="835.3571428571428"/>
      <point x="43.023809523809526" y="858.0"/>
      <point x="43.023809523809526" y="897.7380952380952" type="curve" smooth="yes"/>
      <point x="43.023809523809526" y="934.3809523809524"/>
      <point x="18.476190476190478" y="959.0238095238096"/>
      <point x="-19.80952380952381" y="959.0238095238096" type="curve" smooth="yes"/>
      <point x="-59.095238095238095" y="959.0238095238096"/>
      <point x="-83.64285714285714" y="934.9285714285714"/>
      <point x="-83.64285714285714" y="897.7380952380952" type="curve" smooth="yes"/>
      <point x="-83.64285714285714" y="858.0"/>
      <point x="-57.095238095238095" y="835.3571428571428"/>
    </contour>
  </outline>
</glyph>
<glyph name="anusvara-beng" format="2">
  <advance width="394.73809523809524"/>
  <unicode hex="0982"/>
  <anchor x="-237.14285714285714" y="0.0" name="vedic"/>
  <outline>
    <contour>
      <point x="190.64285714285714" y="322.95238095238096" type="curve" smooth="yes"/>
      <point x="280.92857142857144" y="322.95238095238096"/>
      <point x="346.1190476190476" y="385.6904761904762"/>
      <point x="346.1190476190476" y="474.9761904761905" type="curve" smooth="yes"/>
      <point x="346.1190476190476" y="556.2619047619048"/>
      <point x="290.4761904761904" y="621.452380952381"/>
      <point x="201.64285714285714" y="621.452380952381" type="curve" smooth="yes"/>
      <point x="112.35714285714286" y="621.452380952381"/>
      <point x="48.61904761904762" y="557.2619047619048"/>
      <point x="48.61904761904762" y="469.9761904761905" type="curve" smooth="yes"/>
      <point x="48.61904761904762" y="391.69047619047615"/>
      <point x="100.80952380952381" y="322.95238095238096"/>
    </contour>
    <contour>
      <point x="163.19047619047618" y="404.26190476190476" type="curve" smooth="yes"/>
      <point x="144.73809523809524" y="404.26190476190476"/>
      <point x="130.38095238095238" y="414.6190476190476"/>
      <point x="130.38095238095238" y="437.61904761904765" type="curve" smooth="yes"/>
      <point x="130.38095238095238" y="481.23809523809524"/>
      <point x="190.47619047619048" y="539.7857142857143"/>
      <point x="233.0952380952381" y="539.7857142857143" type="curve" smooth="yes"/>
      <point x="255.0" y="539.7857142857143"/>
      <point x="265.90476190476187" y="528.4285714285714"/>
      <point x="265.90476190476187" y="511.52380952380946" type="curve" smooth="yes"/>
      <point x="265.90476190476187" y="469.26190476190476"/>
      <point x="207.9047619047619" y="404.26190476190476"/>
    </contour>
    <contour>
      <point x="328.35714285714283" y="-78.5" type="curve"/>
      <point x="384.0238095238095" y="-58.85714285714286" type="line"/>
      <point x="315.1904761904762" y="96.0"/>
      <point x="223.54761904761904" y="228.71428571428572"/>
      <point x="118.35714285714286" y="291.7857142857143" type="curve"/>
      <point x="47.166666666666664" y="159.19047619047618" type="line"/>
      <point x="147.7142857142857" y="114.66666666666666"/>
      <point x="222.07142857142858" y="73.33333333333334"/>
    </contour>
  </outline>
</glyph>
<glyph name="visarga-beng" format="2">
  <advance width="415.30952380952385"/>
  <unicode hex="0983"/>
  <anchor x="-237.14285714285714" y="0.0" name="vedic"/>
  <outline>
    <contour>
      <point x="200.38095238095238" y="320.40476190476187" type="curve" smooth="yes"/>
      <point x="297.3095238095238" y="320.40476190476187"/>
      <point x="367.1428571428571" y="384.14285714285717"/>
      <point x="367.1428571428571" y="474.9761904761905" type="curve" smooth="yes"/>
      <point x="367.1428571428571" y="558.2619047619048"/>
      <point x="307.8571428571429" y="624.0"/>
      <point x="211.92857142857142" y="624.0" type="curve" smooth="yes"/>
      <point x="117.0" y="624.0"/>
      <point x="48.61904761904762" y="559.2619047619048"/>
      <point x="48.61904761904762" y="469.9761904761905" type="curve" smooth="yes"/>
      <point x="48.61904761904762" y="390.14285714285717"/>
      <point x="104.90476190476191" y="320.40476190476187"/>
    </contour>
    <contour>
      <point x="174.47619047619048" y="401.1666666666667" type="curve" smooth="yes"/>
      <point x="155.47619047619048" y="401.1666666666667"/>
      <point x="140.11904761904762" y="411.5238095238096"/>
      <point x="140.11904761904762" y="434.0714285714286" type="curve" smooth="yes"/>
      <point x="140.11904761904762" y="478.69047619047615"/>
      <point x="198.11904761904762" y="542.8809523809524"/>
      <point x="242.83333333333334" y="542.8809523809524" type="curve" smooth="yes"/>
      <point x="266.2857142857143" y="542.8809523809524"/>
      <point x="277.1904761904762" y="531.5238095238095"/>
      <point x="277.1904761904762" y="514.6190476190476" type="curve" smooth="yes"/>
      <point x="277.1904761904762" y="471.8095238095238"/>
      <point x="222.73809523809524" y="401.1666666666667"/>
    </contour>
    <contour>
      <point x="201.38095238095238" y="-32.04761904761905" type="curve" smooth="yes"/>
      <point x="295.7619047619048" y="-32.04761904761905"/>
      <point x="363.5952380952381" y="30.690476190476186"/>
      <point x="363.5952380952381" y="119.97619047619048" type="curve" smooth="yes"/>
      <point x="363.5952380952381" y="201.26190476190476"/>
      <point x="305.85714285714283" y="266.0"/>
      <point x="211.92857142857142" y="266.0" type="curve" smooth="yes"/>
      <point x="119.0" y="266.0"/>
      <point x="51.71428571428571" y="202.26190476190476"/>
      <point x="51.71428571428571" y="114.97619047619048" type="curve" smooth="yes"/>
      <point x="51.71428571428571" y="36.69047619047619"/>
      <point x="106.45238095238095" y="-32.04761904761905"/>
    </contour>
    <contour>
      <point x="175.47619047619048" y="46.71428571428571" type="curve" smooth="yes"/>
      <point x="156.02380952380952" y="46.71428571428571"/>
      <point x="141.11904761904762" y="57.07142857142857"/>
      <point x="141.11904761904762" y="79.61904761904762" type="curve" smooth="yes"/>
      <point x="141.11904761904762" y="123.69047619047619"/>
      <point x="198.11904761904762" y="186.88095238095238"/>
      <point x="242.2857142857143" y="186.88095238095238" type="curve" smooth="yes"/>
      <point x="264.73809523809524" y="186.88095238095238"/>
      <point x="276.1904761904762" y="175.52380952380952"/>
      <point x="276.1904761904762" y="159.07142857142858" type="curve" smooth="yes"/>
      <point x="276.1904761904762" y="116.80952380952381"/>
      <point x="222.73809523809524" y="46.71428571428571"/>
    </contour>
  </outline>
</glyph>
<glyph name="aa-beng" format="2">
  <advance width="1090.6904761904761"/>
  <unicode hex="0986"/>
  <anchor x="756.452380952381" y="0.0" name="bottom"/>
  <anchor x="756.452380952381" y="94.11904761904762" name="bottom.rakaar"/>
  <anchor x="756.452380952381" y="11.0" name="bottom.rvocalic"/>
  <anchor x="736.452380952381" y="17.285714285714285" name="bottom.virama"/>
  <anchor x="1011.1428571428571" y="542.3333333333334" name="top"/>
  <anchor x="1011.1428571428571" y="526.6190476190476" name="topright"/>
  <anchor x="545.0714285714286" y="0.0" name="vedic"/>
  <outline>
    <contour>
      <point x="746.8095238095239" y="-28.380952380952383" type="line"/>
      <point x="756.452380952381" y="-25.833333333333336" type="line"/>
      <point x="756.452380952381" y="542.3333333333334" type="line"/>
      <point x="818.452380952381" y="542.3333333333334" type="line"/>
      <point x="774.1666666666666" y="622.0" type="line"/>
      <point x="-37.19047619047619" y="622.0" type="line"/>
      <point x="7.095238095238095" y="542.3333333333334" type="line"/>
      <point x="653.2142857142857" y="542.3333333333334" type="line"/>
      <point x="653.2142857142857" y="78.19047619047619" type="line"/>
      <point x="669.952380952381" y="95.19047619047619" type="line"/>
      <point x="630.5" y="175.64285714285714"/>
      <point x="587.6904761904763" y="216.54761904761904"/>
      <point x="553.7142857142857" y="238.26190476190476" type="curve"/>
      <point x="520.8809523809524" y="150.14285714285714" type="line"/>
      <point x="581.7857142857142" y="120.23809523809524"/>
      <point x="627.5952380952381" y="78.97619047619048"/>
      <point x="668.047619047619" y="15.809523809523807" type="curve"/>
    </contour>
    <contour>
      <point x="369.85714285714283" y="27.380952380952372" type="curve" smooth="yes"/>
      <point x="485.2857142857143" y="27.380952380952372"/>
      <point x="586.0714285714287" y="101.71428571428572"/>
      <point x="586.0714285714287" y="266.5952380952381" type="curve" smooth="yes"/>
      <point x="586.0714285714287" y="394.6190476190476"/>
      <point x="505.23809523809524" y="496.1666666666667"/>
      <point x="353.76190476190476" y="496.1666666666667" type="curve" smooth="yes"/>
      <point x="261.1904761904762" y="496.1666666666667"/>
      <point x="205.64285714285714" y="445.23809523809524"/>
      <point x="205.64285714285714" y="369.04761904761904" type="curve" smooth="yes"/>
      <point x="205.64285714285714" y="302.40476190476187"/>
      <point x="252.73809523809524" y="251.47619047619045"/>
      <point x="325.76190476190476" y="251.47619047619045" type="curve" smooth="yes"/>
      <point x="397.59523809523813" y="251.47619047619045"/>
      <point x="435.23809523809524" y="300.11904761904765"/>
      <point x="435.23809523809524" y="365.30952380952385" type="curve" smooth="yes"/>
      <point x="435.23809523809524" y="457.88095238095235"/>
      <point x="366.4761904761904" y="525.5238095238095"/>
      <point x="321.2857142857143" y="557.5238095238095" type="curve"/>
      <point x="139.47619047619048" y="556.5238095238095" type="line"/>
      <point x="291.3571428571429" y="525.5238095238095"/>
      <point x="346.0238095238095" y="445.76190476190476"/>
      <point x="357.0238095238095" y="357.57142857142856" type="curve"/>
      <point x="369.8333333333333" y="365.0238095238095"/>
      <point x="391.11904761904765" y="375.76190476190476"/>
      <point x="415.7619047619048" y="375.76190476190476" type="curve" smooth="yes"/>
      <point x="460.95238095238096" y="375.76190476190476"/>
      <point x="508.95238095238096" y="349.95238095238096"/>
      <point x="508.95238095238096" y="285.23809523809524" type="curve" smooth="yes"/>
      <point x="508.95238095238096" y="209.97619047619045"/>
      <point x="447.2142857142857" y="177.80952380952382"/>
      <point x="362.4047619047619" y="177.80952380952382" type="curve" smooth="yes"/>
      <point x="240.66666666666669" y="177.80952380952382"/>
      <point x="141.83333333333334" y="247.61904761904762"/>
      <point x="69.73809523809524" y="474.0714285714286" type="curve"/>
      <point x="9.80952380952381" y="459.5238095238095" type="line"/>
      <point x="82.07142857142857" y="164.35714285714286"/>
      <point x="194.52380952380952" y="27.380952380952372"/>
    </contour>
    <contour>
      <point x="1001.5" y="-39.38095238095238" type="line"/>
      <point x="1011.1428571428571" y="-36.833333333333336" type="line"/>
      <point x="1011.1428571428571" y="542.3333333333334" type="line"/>
      <point x="1127.8809523809523" y="542.3333333333334" type="line"/>
      <point x="1082.595238095238" y="622.0" type="line"/>
      <point x="1001.4047619047619" y="622.0" type="line"/>
      <point x="992.3095238095239" y="681.9285714285714" type="line"/>
      <point x="915.547619047619" y="719.0238095238096" type="line"/>
      <point x="907.452380952381" y="715.4761904761905" type="line"/>
      <point x="907.452380952381" y="614.9047619047619" type="line" smooth="yes"/>
      <point x="907.452380952381" y="594.3571428571428"/>
      <point x="909.9047619047619" y="538.3571428571428"/>
      <point x="915.452380952381" y="491.35714285714283" type="curve"/>
      <point x="927.0952380952381" y="494.35714285714283" type="line"/>
      <point x="910.9047619047619" y="580.3571428571428"/>
      <point x="883.7380952380953" y="622.0"/>
      <point x="825.1666666666666" y="622.0" type="curve" smooth="yes"/>
      <point x="765.6190476190476" y="622.0" type="line"/>
      <point x="810.9047619047619" y="542.3333333333334" type="line"/>
      <point x="840.0" y="542.3333333333334" type="line" smooth="yes"/>
      <point x="881.0" y="542.3333333333334"/>
      <point x="900.547619047619" y="496.23809523809524"/>
      <point x="907.452380952381" y="447.88095238095235" type="curve"/>
      <point x="907.452380952381" y="-0.09523809523809534" type="line"/>
    </contour>
  </outline>
</glyph>
<glyph name="i-beng" format="2">
  <advance width="524.4285714285714"/>
  <unicode hex="0987"/>
  <anchor x="317.78571428571433" y="37.214285714285715" name="bottom"/>
  <anchor x="448.07142857142856" y="-92.30952380952382" name="bottom.rakaar"/>
  <anchor x="403.54761904761904" y="31.571428571428562" name="bottom.rvocalic"/>
  <anchor x="308.07142857142856" y="41.3095238095238" name="bottom.virama"/>
  <anchor x="349.3571428571429" y="607.2619047619048" name="top"/>
  <anchor x="295.54761904761904" y="607.6190476190476" name="topright"/>
  <anchor x="262.2142857142857" y="0.0" name="vedic"/>
  <outline>
    <contour>
      <point x="406.88095238095235" y="592.5238095238095" type="curve"/>
      <point x="473.45238095238096" y="592.5238095238095" type="line"/>
      <point x="470.0" y="737.452380952381"/>
      <point x="410.61904761904765" y="826.0238095238096"/>
      <point x="306.88095238095235" y="826.0238095238096" type="curve" smooth="yes"/>
      <point x="247.85714285714286" y="826.0238095238096"/>
      <point x="209.85714285714286" y="816.5714285714286"/>
      <point x="151.76190476190476" y="816.5714285714286" type="curve" smooth="yes"/>
      <point x="77.02380952380952" y="816.5714285714286"/>
      <point x="50.30952380952381" y="839.3095238095239"/>
      <point x="50.30952380952381" y="894.7380952380952" type="curve" smooth="yes"/>
      <point x="50.30952380952381" y="907.2857142857142"/>
      <point x="51.30952380952381" y="922.3809523809524"/>
      <point x="52.85714285714286" y="933.4761904761905" type="curve"/>
      <point x="-1.9761904761904727" y="939.5714285714286" type="line"/>
      <point x="-7.071428571428569" y="915.3809523809524"/>
      <point x="-10.619047619047617" y="886.6428571428572"/>
      <point x="-10.619047619047617" y="853.2619047619048" type="curve" smooth="yes"/>
      <point x="-10.619047619047617" y="751.6190476190476"/>
      <point x="48.30952380952381" y="686.9761904761904"/>
      <point x="156.04761904761904" y="686.9761904761904" type="curve" smooth="yes"/>
      <point x="232.33333333333331" y="686.9761904761904"/>
      <point x="280.23809523809524" y="698.9761904761904"/>
      <point x="324.42857142857144" y="698.9761904761904" type="curve" smooth="yes"/>
      <point x="375.42857142857144" y="698.9761904761904"/>
      <point x="406.9761904761905" y="678.2619047619048"/>
    </contour>
    <component base="ha-beng"/>
  </outline>
</glyph>
<glyph name="ii-beng" format="2">
  <advance width="719.7619047619047"/>
  <unicode hex="0988"/>
  <anchor x="641.5714285714287" y="-26.38095238095238" name="bottom"/>
  <anchor x="645.1190476190477" y="37.69047619047619" name="bottom.rakaar"/>
  <anchor x="631.952380952381" y="-42.97619047619048" name="bottom.rvocalic"/>
  <anchor x="628.7619047619048" y="-52.78571428571429" name="bottom.virama"/>
  <anchor x="448.0" y="607.2619047619048" name="top"/>
  <anchor x="396.45238095238096" y="607.6190476190476" name="topright"/>
  <anchor x="359.88095238095235" y="0.0" name="vedic"/>
  <outline>
    <contour>
      <point x="592.3809523809523" y="-95.0" type="curve"/>
      <point x="645.2142857142857" y="-73.90476190476191" type="line"/>
      <point x="623.7619047619048" y="-8.809523809523817"/>
      <point x="614.8571428571429" y="38.45238095238095"/>
      <point x="614.8571428571429" y="99.99999999999997" type="curve" smooth="yes"/>
      <point x="614.8571428571429" y="191.73809523809524"/>
      <point x="641.952380952381" y="295.3095238095238"/>
      <point x="692.0476190476192" y="380.5952380952381" type="curve"/>
      <point x="560.9047619047619" y="487.8095238095238" type="line"/>
      <point x="470.92857142857144" y="427.9285714285714"/>
      <point x="409.45238095238096" y="348.2857142857143"/>
      <point x="363.64285714285717" y="270.38095238095235" type="curve"/>
      <point x="399.8809523809524" y="225.73809523809524" type="line"/>
      <point x="405.9761904761905" y="249.02380952380952"/>
      <point x="407.5238095238096" y="274.21428571428567"/>
      <point x="407.5238095238096" y="297.5" type="curve" smooth="yes"/>
      <point x="407.5238095238096" y="401.4285714285714"/>
      <point x="358.6190476190476" y="493.61904761904765"/>
      <point x="195.66666666666666" y="493.61904761904765" type="curve" smooth="yes"/>
      <point x="103.3809523809524" y="493.61904761904765"/>
      <point x="50.095238095238095" y="450.88095238095235"/>
      <point x="50.095238095238095" y="381.5" type="curve" smooth="yes"/>
      <point x="50.095238095238095" y="310.92857142857144"/>
      <point x="99.57142857142858" y="274.8333333333333"/>
      <point x="160.3095238095238" y="274.8333333333333" type="curve" smooth="yes"/>
      <point x="224.14285714285717" y="274.8333333333333"/>
      <point x="266.9761904761905" y="318.0238095238095"/>
      <point x="266.9761904761905" y="391.95238095238096" type="curve" smooth="yes"/>
      <point x="266.9761904761905" y="465.1666666666667"/>
      <point x="216.95238095238096" y="531.7142857142858"/>
      <point x="183.04761904761904" y="549.3333333333334" type="curve"/>
      <point x="22.42857142857143" y="549.3333333333334" type="line"/>
      <point x="77.61904761904762" y="534.8809523809524"/>
      <point x="145.64285714285714" y="505.6190476190476"/>
      <point x="187.85714285714286" y="457.26190476190476" type="curve"/>
      <point x="163.07142857142856" y="366.95238095238096" type="line"/>
      <point x="182.5952380952381" y="385.95238095238096"/>
      <point x="216.88095238095238" y="404.6904761904762"/>
      <point x="246.04761904761904" y="404.6904761904762" type="curve" smooth="yes"/>
      <point x="304.76190476190476" y="404.6904761904762"/>
      <point x="333.5" y="368.8809523809524"/>
      <point x="333.5" y="316.23809523809524" type="curve" smooth="yes"/>
      <point x="333.5" y="279.14285714285717"/>
      <point x="324.59523809523813" y="248.78571428571428"/>
      <point x="304.14285714285717" y="219.33333333333331" type="curve" smooth="yes"/>
      <point x="280.23809523809524" y="183.97619047619045"/>
      <point x="250.14285714285714" y="165.33333333333331"/>
      <point x="202.3095238095238" y="165.33333333333331" type="curve" smooth="yes"/>
      <point x="164.57142857142858" y="165.33333333333331"/>
      <point x="135.02380952380952" y="188.52380952380952"/>
      <point x="107.02380952380952" y="236.88095238095238" type="curve"/>
      <point x="50.0" y="209.14285714285714" type="line"/>
      <point x="95.0" y="103.59523809523807"/>
      <point x="157.92857142857142" y="21.904761904761898"/>
      <point x="250.88095238095238" y="21.904761904761898" type="curve" smooth="yes"/>
      <point x="332.5476190476191" y="21.904761904761898"/>
      <point x="386.4761904761905" y="86.02380952380952"/>
      <point x="454.1428571428571" y="176.88095238095238" type="curve" smooth="yes"/>
      <point x="496.3095238095238" y="234.85714285714283"/>
      <point x="549.5952380952381" y="317.88095238095235"/>
      <point x="612.4761904761905" y="370.76190476190476" type="curve"/>
      <point x="575.7380952380953" y="387.7857142857143" type="line"/>
      <point x="544.1904761904763" y="303.76190476190476"/>
      <point x="522.0" y="232.66666666666663"/>
      <point x="522.0" y="151.19047619047618" type="curve" smooth="yes"/>
      <point x="522.0" y="58.45238095238095"/>
      <point x="555.8333333333334" y="-26.738095238095248"/>
    </contour>
    <contour>
      <point x="7.095238095238095" y="542.3333333333334" type="line"/>
      <point x="756.952380952381" y="542.3333333333334" type="line"/>
      <point x="713.2142857142857" y="622.0" type="line"/>
      <point x="-37.19047619047619" y="622.0" type="line"/>
    </contour>
    <contour>
      <point x="554.7142857142857" y="592.5238095238095" type="curve"/>
      <point x="621.2857142857143" y="592.5238095238095" type="line"/>
      <point x="611.3809523809523" y="737.452380952381"/>
      <point x="551.3571428571429" y="831.6666666666666"/>
      <point x="418.88095238095235" y="831.6666666666666" type="curve" smooth="yes"/>
      <point x="348.3095238095238" y="831.6666666666666"/>
      <point x="299.1190476190476" y="817.0238095238096"/>
      <point x="226.2857142857143" y="817.0238095238096" type="curve" smooth="yes"/>
      <point x="142.92857142857142" y="817.0238095238096"/>
      <point x="109.57142857142857" y="839.7619047619048"/>
      <point x="109.57142857142857" y="895.1904761904763" type="curve" smooth="yes"/>
      <point x="109.57142857142857" y="907.2857142857142"/>
      <point x="110.11904761904762" y="921.9285714285714"/>
      <point x="112.11904761904762" y="933.4761904761905" type="curve"/>
      <point x="57.28571428571429" y="939.5714285714286" type="line"/>
      <point x="51.73809523809524" y="915.3809523809524"/>
      <point x="48.64285714285714" y="887.0952380952381"/>
      <point x="48.64285714285714" y="860.3571428571428" type="curve" smooth="yes"/>
      <point x="48.64285714285714" y="757.8095238095237"/>
      <point x="109.73809523809524" y="687.4285714285714"/>
      <point x="239.11904761904762" y="687.4285714285714" type="curve" smooth="yes"/>
      <point x="319.85714285714283" y="687.4285714285714"/>
      <point x="383.4047619047619" y="704.6190476190476"/>
      <point x="446.8809523809524" y="704.6190476190476" type="curve" smooth="yes"/>
      <point x="516.6190476190476" y="704.6190476190476"/>
      <point x="548.3571428571429" y="678.2619047619048"/>
    </contour>
  </outline>
</glyph>
<glyph name="u-beng" format="2">
  <advance width="645.6666666666666"/>
  <unicode hex="0989"/>
  <anchor x="505.5" y="-14.690476190476197" name="bottom"/>
  <anchor x="568.8809523809524" y="-10.095238095238095" name="bottom.rakaar"/>
  <anchor x="490.23809523809524" y="12.857142857142858" name="bottom.rvocalic"/>
  <anchor x="426.14285714285717" y="-6.476190476190478" name="bottom.virama"/>
  <anchor x="413.42857142857144" y="600.6190476190476" name="top"/>
  <anchor x="344.1428571428571" y="607.6190476190476" name="topright"/>
  <anchor x="322.8333333333333" y="0.0" name="vedic"/>
  <anchor x="346.2857142857143" y="-126.61904761904762" name="nukta"/>
  <outline>
    <contour>
      <point x="520.8571428571429" y="591.9761904761905" type="curve"/>
      <point x="587.4285714285714" y="591.9761904761905" type="line"/>
      <point x="573.9761904761905" y="736.452380952381"/>
      <point x="515.5" y="825.4761904761905"/>
      <point x="388.11904761904765" y="825.4761904761905" type="curve" smooth="yes"/>
      <point x="323.1904761904762" y="825.4761904761905"/>
      <point x="291.4761904761904" y="816.4761904761905"/>
      <point x="232.47619047619048" y="816.4761904761905" type="curve" smooth="yes"/>
      <point x="138.83333333333334" y="816.4761904761905"/>
      <point x="105.47619047619048" y="838.7619047619048"/>
      <point x="105.47619047619048" y="894.6428571428572" type="curve" smooth="yes"/>
      <point x="105.47619047619048" y="906.2857142857142"/>
      <point x="106.47619047619047" y="920.9285714285714"/>
      <point x="108.02380952380952" y="932.4761904761905" type="curve"/>
      <point x="53.19047619047619" y="939.0238095238095" type="line"/>
      <point x="47.64285714285714" y="914.3809523809524"/>
      <point x="44.54761904761905" y="886.0952380952381"/>
      <point x="44.54761904761905" y="859.8095238095237" type="curve" smooth="yes"/>
      <point x="44.54761904761905" y="756.8095238095239"/>
      <point x="105.0952380952381" y="686.4285714285714"/>
      <point x="240.66666666666669" y="686.4285714285714" type="curve" smooth="yes"/>
      <point x="311.66666666666663" y="686.4285714285714"/>
      <point x="358.2857142857143" y="697.9761904761905"/>
      <point x="403.8333333333333" y="697.9761904761905" type="curve" smooth="yes"/>
      <point x="478.66666666666663" y="697.9761904761905"/>
      <point x="511.4047619047619" y="677.2619047619048"/>
    </contour>
    <component base="dda-beng"/>
  </outline>
</glyph>
<glyph name="uu-beng" format="2">
  <advance width="742.0714285714287"/>
  <unicode hex="098A"/>
  <anchor x="590.6190476190476" y="-22.880952380952383" name="bottom"/>
  <anchor x="654.0" y="-18.285714285714285" name="bottom.rakaar"/>
  <anchor x="575.3571428571429" y="4.666666666666664" name="bottom.rvocalic"/>
  <anchor x="511.26190476190476" y="-14.214285714285715" name="bottom.virama"/>
  <anchor x="471.90476190476187" y="604.7142857142858" name="top"/>
  <anchor x="446.45238095238096" y="607.6190476190476" name="topright"/>
  <anchor x="370.7619047619048" y="0.0" name="vedic"/>
  <outline>
    <contour>
      <point x="448.0238095238095" y="-18.714285714285715" type="curve" smooth="yes"/>
      <point x="637.9047619047619" y="-18.714285714285715"/>
      <point x="718.0952380952381" y="91.76190476190476"/>
      <point x="718.0952380952381" y="239.42857142857142" type="curve" smooth="yes"/>
      <point x="718.0952380952381" y="349.26190476190476"/>
      <point x="672.8095238095239" y="431.6428571428571"/>
      <point x="613.2619047619048" y="484.1904761904762" type="curve"/>
      <point x="555.7857142857142" y="406.26190476190476"/>
      <point x="500.3333333333333" y="366.2857142857143"/>
      <point x="464.9047619047619" y="366.2857142857143" type="curve" smooth="yes"/>
      <point x="447.0" y="366.2857142857143"/>
      <point x="430.3571428571429" y="372.73809523809524"/>
      <point x="430.3571428571429" y="397.3809523809524" type="curve" smooth="yes"/>
      <point x="430.3571428571429" y="542.3333333333334" type="line"/>
      <point x="779.2619047619048" y="542.3333333333334" type="line"/>
      <point x="732.9761904761905" y="622.0" type="line"/>
      <point x="-37.19047619047619" y="622.0" type="line"/>
      <point x="9.095238095238095" y="542.3333333333334" type="line"/>
      <point x="327.1190476190476" y="542.3333333333334" type="line"/>
      <point x="327.1190476190476" y="372.7142857142857" type="line" smooth="yes"/>
      <point x="327.1190476190476" y="321.23809523809524"/>
      <point x="345.85714285714283" y="288.5952380952381"/>
      <point x="372.5" y="261.95238095238096" type="curve" smooth="yes"/>
      <point x="400.23809523809524" y="234.66666666666663"/>
      <point x="436.42857142857144" y="219.11904761904762"/>
      <point x="479.26190476190476" y="219.11904761904762" type="curve" smooth="yes"/>
      <point x="541.2619047619048" y="219.11904761904762"/>
      <point x="620.0952380952381" y="269.21428571428567"/>
      <point x="670.7380952380953" y="344.40476190476187" type="curve"/>
      <point x="608.6190476190476" y="366.6190476190476" type="line"/>
      <point x="631.5238095238095" y="339.88095238095235"/>
      <point x="648.6190476190476" y="311.3333333333333"/>
      <point x="648.6190476190476" y="269.61904761904765" type="curve" smooth="yes"/>
      <point x="648.6190476190476" y="185.61904761904762"/>
      <point x="580.2380952380953" y="129.16666666666666"/>
      <point x="478.5" y="128.71428571428572" type="curve" smooth="yes"/>
      <point x="304.9285714285714" y="127.80952380952381"/>
      <point x="253.47619047619048" y="274.0714285714286"/>
      <point x="193.47619047619048" y="490.7142857142857" type="curve"/>
      <point x="134.0" y="475.61904761904765" type="line"/>
      <point x="165.16666666666666" y="308.54761904761904"/>
      <point x="205.7142857142857" y="196.54761904761904"/>
      <point x="267.14285714285717" y="112.61904761904762" type="curve"/>
      <point x="310.5238095238095" y="121.35714285714286" type="line"/>
      <point x="202.52380952380952" y="154.9047619047619"/>
      <point x="130.8095238095238" y="272.35714285714283"/>
      <point x="63.80952380952381" y="482.5238095238095" type="curve"/>
      <point x="4.88095238095238" y="467.42857142857144" type="line"/>
      <point x="72.14285714285714" y="151.14285714285714"/>
      <point x="214.88095238095238" y="-18.714285714285715"/>
    </contour>
    <contour>
      <point x="607.9761904761905" y="592.5238095238095" type="curve"/>
      <point x="674.547619047619" y="592.5238095238095" type="line"/>
      <point x="661.547619047619" y="737.452380952381"/>
      <point x="593.0714285714287" y="830.0238095238096"/>
      <point x="452.3095238095238" y="830.0238095238096" type="curve" smooth="yes"/>
      <point x="365.2857142857143" y="830.0238095238096"/>
      <point x="324.57142857142856" y="812.5714285714286"/>
      <point x="220.0952380952381" y="812.5714285714286" type="curve" smooth="yes"/>
      <point x="129.0" y="812.5714285714286"/>
      <point x="100.09523809523809" y="839.7619047619048"/>
      <point x="100.09523809523809" y="895.1904761904763" type="curve" smooth="yes"/>
      <point x="100.09523809523809" y="907.2857142857142"/>
      <point x="101.0952380952381" y="921.9285714285714"/>
      <point x="102.64285714285715" y="933.4761904761905" type="curve"/>
      <point x="47.80952380952381" y="939.5714285714286" type="line"/>
      <point x="42.71428571428571" y="915.3809523809524"/>
      <point x="39.16666666666667" y="887.0952380952381"/>
      <point x="39.16666666666667" y="860.3571428571428" type="curve" smooth="yes"/>
      <point x="39.16666666666667" y="756.452380952381"/>
      <point x="93.71428571428571" y="684.5238095238095"/>
      <point x="240.57142857142856" y="684.5238095238095" type="curve" smooth="yes"/>
      <point x="336.4761904761905" y="684.5238095238095"/>
      <point x="398.4047619047619" y="704.5238095238095"/>
      <point x="474.95238095238096" y="704.5238095238095" type="curve" smooth="yes"/>
      <point x="553.5952380952381" y="704.5238095238095"/>
      <point x="598.5238095238095" y="678.2619047619048"/>
    </contour>
  </outline>
</glyph>
<glyph name="rVocalic-beng" format="2">
  <advance width="814.8095238095239"/>
  <unicode hex="098B"/>
  <anchor x="540.8571428571428" y="0.0" name="bottom"/>
  <anchor x="540.8571428571428" y="94.11904761904762" name="bottom.rakaar"/>
  <anchor x="469.5" y="90.95238095238095" name="bottom.rvocalic"/>
  <anchor x="520.8571428571429" y="17.285714285714285" name="bottom.virama"/>
  <anchor x="540.8571428571428" y="542.3333333333334" name="top"/>
  <anchor x="543.8571428571428" y="542.3333333333334" name="topright"/>
  <anchor x="407.4047619047619" y="0.0" name="vedic"/>
  <outline>
    <contour>
      <point x="530.7619047619048" y="-39.11904761904762" type="line"/>
      <point x="540.8571428571428" y="-36.11904761904762" type="line"/>
      <point x="540.8571428571428" y="637.3571428571428" type="line"/>
      <point x="445.26190476190476" y="690.8333333333334" type="line"/>
      <point x="437.1666666666667" y="687.7380952380952" type="line"/>
      <point x="437.1666666666667" y="416.8571428571429" type="line"/>
      <point x="448.8095238095238" y="480.90476190476187" type="line"/>
      <point x="324.54761904761904" y="446.09523809523813"/>
      <point x="181.04761904761904" y="382.61904761904765"/>
      <point x="73.88095238095238" y="315.4523809523809" type="curve"/>
      <point x="133.35714285714286" y="158.85714285714286" type="line"/>
      <point x="261.6190476190476" y="150.85714285714286"/>
      <point x="386.6428571428571" y="106.59523809523807"/>
      <point x="452.0" y="5.523809523809522" type="curve"/>
    </contour>
    <contour>
      <point x="437.1666666666667" y="67.90476190476191" type="line"/>
      <point x="453.9047619047619" y="84.45238095238096" type="line"/>
      <point x="381.0" y="232.0"/>
      <point x="263.0" y="255.90476190476193"/>
      <point x="169.54761904761904" y="266.0714285714286" type="curve"/>
      <point x="190.28571428571428" y="203.11904761904762" type="line"/>
      <point x="253.26190476190473" y="248.64285714285717"/>
      <point x="368.09523809523813" y="308.11904761904765"/>
      <point x="455.8095238095238" y="331.4761904761904" type="curve"/>
      <point x="437.1666666666667" y="364.4047619047619" type="line"/>
    </contour>
    <contour>
      <point x="137.26190476190476" y="422.61904761904765" type="curve" smooth="yes"/>
      <point x="196.78571428571428" y="422.61904761904765"/>
      <point x="299.07142857142856" y="458.1666666666667"/>
      <point x="347.88095238095235" y="525.8809523809524" type="curve"/>
      <point x="313.5238095238096" y="530.6190476190476" type="line"/>
      <point x="337.7857142857143" y="509.26190476190476"/>
      <point x="361.7142857142857" y="481.5238095238096"/>
      <point x="380.1428571428571" y="441.4523809523809" type="curve"/>
      <point x="434.07142857142856" y="454.54761904761904" type="line"/>
      <point x="411.0" y="525.2619047619048"/>
      <point x="365.8095238095238" y="599.8333333333334"/>
      <point x="306.88095238095235" y="636.2857142857142" type="curve"/>
      <point x="262.35714285714283" y="569.8571428571429"/>
      <point x="202.38095238095238" y="536.4761904761905"/>
      <point x="135.07142857142856" y="536.4761904761905" type="curve" smooth="yes"/>
      <point x="119.97619047619048" y="536.4761904761905"/>
      <point x="105.97619047619047" y="540.4761904761905"/>
      <point x="94.33333333333334" y="545.5714285714286" type="curve"/>
      <point x="147.0952380952381" y="482.90476190476187" type="line"/>
      <point x="167.64285714285714" y="500.45238095238096"/>
      <point x="174.64285714285714" y="517.0"/>
      <point x="174.64285714285714" y="546.0952380952381" type="curve" smooth="yes"/>
      <point x="174.64285714285714" y="582.6428571428572"/>
      <point x="149.64285714285714" y="617.3809523809524"/>
      <point x="95.26190476190476" y="617.3809523809524" type="curve" smooth="yes"/>
      <point x="44.61904761904762" y="617.3809523809524"/>
      <point x="11.428571428571425" y="583.1904761904761"/>
      <point x="11.428571428571425" y="531.547619047619" type="curve" smooth="yes"/>
      <point x="11.428571428571425" y="461.4523809523809"/>
      <point x="60.69047619047619" y="422.61904761904765"/>
    </contour>
    <contour>
      <point x="725.6190476190476" y="46.595238095238095" type="line"/>
      <point x="734.8095238095239" y="49.14285714285714" type="line"/>
      <point x="734.8095238095239" y="542.3333333333334" type="line"/>
      <point x="852.0" y="542.3333333333334" type="line"/>
      <point x="806.2619047619047" y="622.0" type="line"/>
      <point x="725.0714285714287" y="622.0" type="line"/>
      <point x="716.4285714285714" y="681.9285714285714" type="line"/>
      <point x="639.6666666666666" y="719.0238095238096" type="line"/>
      <point x="631.5714285714286" y="715.4761904761905" type="line"/>
      <point x="631.5714285714286" y="159.26190476190476" type="line"/>
      <point x="648.3095238095239" y="176.80952380952382" type="line"/>
      <point x="607.7619047619048" y="273.4761904761905"/>
      <point x="568.4047619047618" y="306.0952380952381"/>
      <point x="508.1190476190476" y="339.54761904761904" type="curve"/>
      <point x="497.57142857142856" y="233.23809523809524" type="line"/>
      <point x="565.8571428571428" y="202.23809523809524"/>
      <point x="606.8571428571429" y="168.16666666666666"/>
      <point x="646.4047619047618" y="91.78571428571428" type="curve"/>
    </contour>
  </outline>
</glyph>
<glyph name="lVocalic-beng" format="2">
  <advance width="561.952380952381"/>
  <unicode hex="098C"/>
  <anchor x="438.16666666666663" y="542.3333333333334" name="top"/>
  <anchor x="280.4761904761904" y="0.0" name="vedic"/>
  <outline>
    <contour>
      <point x="314.73809523809524" y="-19.952380952380956" type="line"/>
      <point x="417.2857142857143" y="-7.142857142857146"/>
      <point x="544.6904761904761" y="69.54761904761904"/>
      <point x="544.6904761904761" y="265.5238095238096" type="curve" smooth="yes"/>
      <point x="544.6904761904761" y="419.26190476190476"/>
      <point x="464.95238095238096" y="477.6428571428571"/>
      <point x="300.5714285714286" y="507.0" type="curve" smooth="yes"/>
      <point x="211.57142857142858" y="523.3571428571428"/>
      <point x="149.57142857142856" y="539.3571428571428"/>
      <point x="149.57142857142856" y="616.9047619047619" type="curve" smooth="yes"/>
      <point x="149.57142857142856" y="647.547619047619"/>
      <point x="155.57142857142856" y="670.452380952381"/>
      <point x="167.11904761904762" y="699.0" type="curve"/>
      <point x="112.73809523809524" y="716.6428571428572" type="line"/>
      <point x="98.83333333333333" y="691.9285714285714"/>
      <point x="68.80952380952381" y="628.452380952381"/>
      <point x="68.80952380952381" y="563.1428571428572" type="curve" smooth="yes"/>
      <point x="68.80952380952381" y="440.4047619047619"/>
      <point x="145.64285714285714" y="399.3095238095238"/>
      <point x="275.54761904761904" y="376.95238095238096" type="curve" smooth="yes"/>
      <point x="394.38095238095235" y="356.5"/>
      <point x="468.0238095238095" y="345.2380952380952"/>
      <point x="468.0238095238095" y="232.23809523809524" type="curve" smooth="yes"/>
      <point x="468.0238095238095" y="155.04761904761904"/>
      <point x="426.0238095238095" y="108.26190476190476"/>
      <point x="366.3809523809524" y="104.0" type="curve"/>
      <point x="421.14285714285717" y="72.16666666666667" type="line"/>
      <point x="422.14285714285717" y="214.38095238095238"/>
      <point x="351.9285714285714" y="329.38095238095235"/>
      <point x="217.73809523809524" y="329.38095238095235" type="curve" smooth="yes"/>
      <point x="91.97619047619048" y="329.38095238095235"/>
      <point x="39.976190476190474" y="241.26190476190476"/>
      <point x="39.976190476190474" y="149.97619047619048" type="curve" smooth="yes"/>
      <point x="39.976190476190474" y="46.14285714285714"/>
      <point x="96.71428571428571" y="-5.5000000000000036"/>
      <point x="171.0" y="-5.5000000000000036" type="curve" smooth="yes"/>
      <point x="229.73809523809524" y="-5.5000000000000036"/>
      <point x="256.3809523809524" y="35.14285714285714"/>
      <point x="256.3809523809524" y="82.42857142857142" type="curve" smooth="yes"/>
      <point x="256.3809523809524" y="132.26190476190476"/>
      <point x="222.73809523809524" y="164.9047619047619"/>
      <point x="174.45238095238096" y="164.9047619047619" type="curve" smooth="yes"/>
      <point x="132.71428571428572" y="164.9047619047619"/>
      <point x="93.97619047619048" y="136.26190476190476"/>
      <point x="94.52380952380952" y="98.52380952380952" type="curve"/>
      <point x="156.54761904761904" y="92.33333333333334" type="line"/>
      <point x="135.64285714285714" y="98.78571428571429"/>
      <point x="120.19047619047619" y="116.23809523809521"/>
      <point x="120.19047619047619" y="148.69047619047618" type="curve" smooth="yes"/>
      <point x="120.19047619047619" y="185.14285714285714"/>
      <point x="148.64285714285714" y="213.04761904761904"/>
      <point x="195.0952380952381" y="213.04761904761904" type="curve" smooth="yes"/>
      <point x="282.73809523809524" y="213.04761904761904"/>
      <point x="311.73809523809524" y="111.76190476190477"/>
      <point x="311.73809523809524" y="29.4047619047619" type="curve" smooth="yes"/>
      <point x="311.73809523809524" y="14.499999999999996"/>
      <point x="310.73809523809524" y="0.5952380952380949"/>
      <point x="307.73809523809524" y="-13.85714285714286" type="curve"/>
    </contour>
  </outline>
</glyph>
<glyph name="e-beng" format="2">
  <advance width="687.5952380952381"/>
  <unicode hex="098F"/>
  <anchor x="621.6904761904763" y="0.0" name="bottom"/>
  <anchor x="621.6904761904763" y="-7.738095238095239" name="bottom.rvocalic"/>
  <anchor x="601.6904761904763" y="9.095238095238095" name="bottom.virama"/>
  <anchor x="529.2380952380952" y="542.3333333333334" name="top"/>
  <anchor x="532.2380952380952" y="542.3333333333334" name="topright"/>
  <anchor x="343.57142857142856" y="0.0" name="vedic"/>
  <outline>
    <contour>
      <point x="611.5952380952381" y="-35.57142857142857" type="line"/>
      <point x="621.6904761904763" y="-33.023809523809526" type="line"/>
      <point x="621.6904761904763" y="480.88095238095235" type="line" smooth="yes"/>
      <point x="621.6904761904763" y="570.7142857142858"/>
      <point x="565.2142857142857" y="633.0"/>
      <point x="464.1904761904762" y="633.0" type="curve" smooth="yes"/>
      <point x="329.5476190476191" y="633.0"/>
      <point x="202.61904761904762" y="519.5714285714286"/>
      <point x="202.61904761904762" y="385.4523809523809" type="curve" smooth="yes"/>
      <point x="202.61904761904762" y="300.7142857142857"/>
      <point x="255.80952380952382" y="253.52380952380955"/>
      <point x="328.09523809523813" y="253.07142857142856" type="curve" smooth="yes"/>
      <point x="400.2857142857143" y="252.61904761904762"/>
      <point x="440.4761904761905" y="298.9047619047619"/>
      <point x="440.4761904761905" y="355.6428571428571" type="curve" smooth="yes"/>
      <point x="440.4761904761905" y="407.3809523809524"/>
      <point x="406.73809523809524" y="442.38095238095235"/>
      <point x="356.8333333333333" y="442.38095238095235" type="curve" smooth="yes"/>
      <point x="333.1904761904762" y="442.38095238095235"/>
      <point x="309.73809523809524" y="431.2857142857143"/>
      <point x="296.73809523809524" y="411.8333333333333" type="curve"/>
      <point x="370.07142857142856" y="405.1904761904762" type="line"/>
      <point x="370.61904761904765" y="469.6428571428571"/>
      <point x="423.8571428571429" y="544.6904761904761"/>
      <point x="477.4761904761904" y="544.6904761904761" type="curve" smooth="yes"/>
      <point x="506.45238095238096" y="544.6904761904761"/>
      <point x="518.0" y="527.0714285714286"/>
      <point x="518.0" y="499.09523809523813" type="curve" smooth="yes"/>
      <point x="518.0" y="254.71428571428572" type="line" smooth="yes"/>
      <point x="518.0" y="201.7857142857143"/>
      <point x="523.0952380952381" y="132.38095238095238"/>
      <point x="531.1904761904761" y="94.83333333333333" type="curve"/>
      <point x="485.0" y="182.3095238095238"/>
      <point x="440.26190476190476" y="198.11904761904762"/>
      <point x="373.61904761904765" y="198.11904761904762" type="curve" smooth="yes"/>
      <point x="324.8095238095238" y="198.11904761904762"/>
      <point x="281.88095238095235" y="189.11904761904762"/>
      <point x="227.45238095238093" y="189.11904761904762" type="curve" smooth="yes"/>
      <point x="158.0952380952381" y="189.11904761904762"/>
      <point x="101.64285714285715" y="230.3095238095238"/>
      <point x="101.64285714285715" y="315.76190476190476" type="curve" smooth="yes"/>
      <point x="101.64285714285715" y="337.4761904761905"/>
      <point x="103.54761904761904" y="364.4761904761905"/>
      <point x="111.64285714285715" y="396.2142857142857" type="curve"/>
      <point x="54.26190476190476" y="406.2142857142857" type="line"/>
      <point x="40.61904761904762" y="361.38095238095235"/>
      <point x="33.61904761904761" y="307.4523809523809"/>
      <point x="33.61904761904761" y="260.26190476190476" type="curve" smooth="yes"/>
      <point x="33.61904761904761" y="99.42857142857143"/>
      <point x="129.9047619047619" y="39.69047619047619"/>
      <point x="236.1904761904762" y="39.69047619047619" type="curve" smooth="yes"/>
      <point x="309.1904761904762" y="39.69047619047619"/>
      <point x="367.66666666666663" y="60.333333333333336"/>
      <point x="429.3809523809524" y="60.333333333333336" type="curve" smooth="yes"/>
      <point x="473.8333333333333" y="60.333333333333336"/>
      <point x="511.11904761904765" y="47.88095238095238"/>
      <point x="547.1190476190476" y="1.4285714285714288" type="curve"/>
    </contour>
  </outline>
</glyph>
<glyph name="ai-beng" format="2">
  <advance width="801.047619047619"/>
  <unicode hex="0990"/>
  <anchor x="567.1666666666666" y="604.6428571428572" name="top"/>
  <anchor x="517.3333333333334" y="597.3571428571428" name="topright"/>
  <anchor x="400.0238095238095" y="0.0" name="vedic"/>
  <anchor x="621.6904761904763" y="0.0" name="bottom"/>
  <anchor x="621.6904761904763" y="-7.738095238095239" name="bottom.rvocalic"/>
  <anchor x="601.6904761904763" y="9.095238095238095" name="bottom.virama"/>
  <outline>
    <contour>
      <point x="608.047619047619" y="290.4047619047619" type="line"/>
      <point x="685.6190476190477" y="361.42857142857144"/>
      <point x="741.9761904761905" y="444.1666666666667"/>
      <point x="741.9761904761905" y="561.9047619047619" type="curve" smooth="yes"/>
      <point x="741.9761904761905" y="763.4761904761905"/>
      <point x="584.047619047619" y="783.6666666666666"/>
      <point x="445.1190476190476" y="803.2142857142857" type="curve" smooth="yes"/>
      <point x="323.5238095238096" y="820.5714285714286"/>
      <point x="236.64285714285714" y="835.9285714285714"/>
      <point x="236.64285714285714" y="924.8571428571428" type="curve" smooth="yes"/>
      <point x="236.64285714285714" y="953.4047619047618"/>
      <point x="244.1904761904762" y="985.5"/>
      <point x="258.2857142857143" y="1014.1428571428571" type="curve"/>
      <point x="194.16666666666666" y="1034.7857142857142" type="line"/>
      <point x="171.07142857142856" y="989.1428571428571"/>
      <point x="157.42857142857144" y="944.5952380952381"/>
      <point x="157.42857142857144" y="889.4761904761905" type="curve" smooth="yes"/>
      <point x="157.42857142857144" y="733.0"/>
      <point x="301.54761904761904" y="708.3571428571428"/>
      <point x="437.0238095238095" y="691.8095238095237" type="curve" smooth="yes"/>
      <point x="569.1666666666667" y="675.9047619047619"/>
      <point x="671.7619047619048" y="660.2857142857142"/>
      <point x="671.7619047619048" y="550.3571428571428" type="curve" smooth="yes"/>
      <point x="671.7619047619048" y="486.0"/>
      <point x="646.1428571428572" y="440.09523809523813"/>
      <point x="581.5" y="392.45238095238096" type="curve"/>
    </contour>
    <component base="e-beng"/>
  </outline>
</glyph>
<glyph name="o-beng" format="2">
  <advance width="729.1428571428571"/>
  <unicode hex="0993"/>
  <anchor x="566.8809523809524" y="-9.690476190476197" name="bottom"/>
  <anchor x="628.2619047619047" y="0.0" name="bottom.rakaar"/>
  <anchor x="554.1666666666666" y="15.85714285714285" name="bottom.rvocalic"/>
  <anchor x="492.61904761904765" y="0.523809523809522" name="bottom.virama"/>
  <anchor x="486.23809523809524" y="507.4761904761904" name="top"/>
  <anchor x="489.23809523809524" y="507.4761904761904" name="topright"/>
  <anchor x="364.5714285714286" y="0.0" name="vedic"/>
  <outline>
    <contour>
      <point x="450.2142857142857" y="21.690476190476186" type="curve" smooth="yes"/>
      <point x="596.1190476190476" y="21.690476190476186"/>
      <point x="692.3333333333333" y="100.95238095238095"/>
      <point x="692.3333333333333" y="220.88095238095238" type="curve" smooth="yes"/>
      <point x="692.3333333333333" y="348.1904761904762"/>
      <point x="563.3571428571428" y="432.3809523809524"/>
      <point x="494.4761904761904" y="432.3809523809524" type="curve" smooth="yes"/>
      <point x="443.8333333333333" y="432.3809523809524"/>
      <point x="407.6428571428571" y="395.6428571428571"/>
      <point x="407.6428571428571" y="340.8095238095238" type="curve" smooth="yes"/>
      <point x="407.6428571428571" y="288.0714285714286"/>
      <point x="443.3809523809524" y="251.8809523809524"/>
      <point x="499.5714285714286" y="251.8809523809524" type="curve" smooth="yes"/>
      <point x="587.8571428571429" y="251.8809523809524"/>
      <point x="663.1428571428571" y="352.5"/>
      <point x="663.1428571428571" y="460.88095238095235" type="curve" smooth="yes"/>
      <point x="663.1428571428571" y="557.6190476190476"/>
      <point x="590.7619047619048" y="629.452380952381"/>
      <point x="462.1904761904762" y="629.452380952381" type="curve" smooth="yes"/>
      <point x="307.4523809523809" y="629.452380952381"/>
      <point x="185.45238095238096" y="535.6428571428572"/>
      <point x="185.45238095238096" y="417.4523809523809" type="curve" smooth="yes"/>
      <point x="185.45238095238096" y="344.26190476190476"/>
      <point x="232.0952380952381" y="304.0714285714286"/>
      <point x="292.9285714285714" y="304.0714285714286" type="curve" smooth="yes"/>
      <point x="356.8571428571429" y="304.0714285714286"/>
      <point x="392.5" y="342.90476190476187"/>
      <point x="392.5" y="398.5476190476191" type="curve" smooth="yes"/>
      <point x="392.5" y="449.8333333333333"/>
      <point x="363.8571428571429" y="473.73809523809524"/>
      <point x="322.30952380952385" y="473.73809523809524" type="curve" smooth="yes"/>
      <point x="290.3809523809524" y="473.73809523809524"/>
      <point x="269.4761904761904" y="456.90476190476187"/>
      <point x="262.6666666666667" y="440.45238095238096" type="curve"/>
      <point x="352.26190476190476" y="410.5238095238095" type="line"/>
      <point x="351.42857142857144" y="487.88095238095235"/>
      <point x="429.3333333333333" y="548.7857142857143"/>
      <point x="501.30952380952385" y="548.7857142857143" type="curve" smooth="yes"/>
      <point x="545.3809523809524" y="548.7857142857143"/>
      <point x="561.547619047619" y="529.5238095238095"/>
      <point x="561.547619047619" y="504.0" type="curve" smooth="yes"/>
      <point x="561.547619047619" y="466.38095238095235"/>
      <point x="534.1904761904763" y="422.09523809523813"/>
      <point x="485.54761904761904" y="406.92857142857144" type="curve"/>
      <point x="507.1904761904762" y="338.6190476190476" type="line"/>
      <point x="551.4761904761905" y="340.61904761904765"/>
      <point x="608.5714285714286" y="315.7142857142857"/>
      <point x="608.5714285714286" y="260.90476190476187" type="curve" smooth="yes"/>
      <point x="608.5714285714286" y="193.8095238095238"/>
      <point x="543.7380952380952" y="158.83333333333334"/>
      <point x="447.0238095238095" y="158.83333333333334" type="curve" smooth="yes"/>
      <point x="276.35714285714283" y="158.83333333333334"/>
      <point x="168.11904761904762" y="243.35714285714286"/>
      <point x="73.92857142857143" y="525.8809523809524" type="curve"/>
      <point x="13.452380952380953" y="510.3333333333333" type="line"/>
      <point x="91.45238095238096" y="179.52380952380952"/>
      <point x="234.33333333333331" y="21.690476190476186"/>
    </contour>
  </outline>
</glyph>
<glyph name="au-beng" format="2">
  <advance width="815.1428571428572"/>
  <unicode hex="0994"/>
  <anchor x="592.547619047619" y="-5.5952380952380985" name="bottom"/>
  <anchor x="655.9285714285714" y="-1.0" name="bottom.rakaar"/>
  <anchor x="577.7380952380953" y="21.499999999999993" name="bottom.rvocalic"/>
  <anchor x="513.6428571428571" y="2.619047619047617" name="bottom.virama"/>
  <anchor x="621.7380952380953" y="604.6428571428572" name="top"/>
  <anchor x="559.6428571428571" y="597.3571428571428" name="topright"/>
  <anchor x="407.5714285714286" y="0.0" name="vedic"/>
  <outline>
    <contour>
      <point x="622.1428571428572" y="306.3333333333333" type="line"/>
      <point x="699.7142857142857" y="377.35714285714283"/>
      <point x="756.0714285714287" y="452.3571428571429"/>
      <point x="756.0714285714287" y="562.8095238095237" type="curve" smooth="yes"/>
      <point x="756.0714285714287" y="762.1190476190476"/>
      <point x="598.1428571428572" y="783.6666666666666"/>
      <point x="458.76190476190476" y="803.2142857142857" type="curve" smooth="yes"/>
      <point x="348.4761904761905" y="818.7619047619048"/>
      <point x="250.73809523809524" y="832.3095238095239"/>
      <point x="250.73809523809524" y="924.8571428571428" type="curve" smooth="yes"/>
      <point x="250.73809523809524" y="953.4047619047618"/>
      <point x="258.2857142857143" y="985.5"/>
      <point x="272.3809523809524" y="1014.1428571428571" type="curve"/>
      <point x="208.26190476190476" y="1034.7857142857142" type="line"/>
      <point x="185.16666666666666" y="989.1428571428571"/>
      <point x="171.52380952380952" y="944.5952380952381"/>
      <point x="171.52380952380952" y="889.4761904761905" type="curve" smooth="yes"/>
      <point x="171.52380952380952" y="733.0"/>
      <point x="315.6428571428571" y="708.3571428571428"/>
      <point x="451.11904761904765" y="691.8095238095237" type="curve" smooth="yes"/>
      <point x="572.8571428571429" y="676.8095238095237"/>
      <point x="686.4047619047618" y="661.2619047619048"/>
      <point x="686.4047619047618" y="547.2619047619048" type="curve" smooth="yes"/>
      <point x="686.4047619047618" y="480.6428571428571"/>
      <point x="659.7857142857142" y="438.73809523809524"/>
      <point x="595.5952380952381" y="390.6428571428571" type="curve"/>
    </contour>
    <component base="o-beng"/>
  </outline>
</glyph>
<glyph name="ka-beng" format="2">
  <advance width="759.4285714285714"/>
  <unicode hex="0995"/>
  <anchor x="470.59523809523813" y="35.642857142857146" name="bottom"/>
  <anchor x="479.6904761904762" y="-23.833333333333336" name="bottom.rakaar"/>
  <anchor x="479.6904761904762" y="11.0" name="bottom.rvocalic"/>
  <anchor x="475.6190476190476" y="-26.309523809523814" name="bottom.virama"/>
  <anchor x="228.11904761904762" y="31.59523809523809" name="nukta"/>
  <anchor x="451.0238095238095" y="587.9285714285714" name="top"/>
  <anchor x="452.4761904761904" y="571.547619047619" name="topright"/>
  <anchor x="379.2142857142857" y="0.0" name="vedic"/>
  <outline>
    <contour>
      <point x="469.5952380952381" y="-28.380952380952383" type="line"/>
      <point x="479.6904761904762" y="-25.833333333333336" type="line"/>
      <point x="479.6904761904762" y="393.0238095238095" type="line"/>
      <point x="462.14285714285717" y="367.4761904761905" type="line"/>
      <point x="468.69047619047615" y="369.4761904761905"/>
      <point x="475.69047619047615" y="370.4761904761905"/>
      <point x="482.23809523809524" y="370.4761904761905" type="curve" smooth="yes"/>
      <point x="592.3095238095239" y="370.4761904761905"/>
      <point x="676.1428571428571" y="314.95238095238096"/>
      <point x="676.1428571428571" y="249.14285714285714" type="curve" smooth="yes"/>
      <point x="676.1428571428571" y="234.14285714285714"/>
      <point x="673.1428571428572" y="223.04761904761904"/>
      <point x="664.1428571428572" y="210.04761904761904" type="curve"/>
      <point x="682.1428571428571" y="211.04761904761904" type="line"/>
      <point x="677.7857142857142" y="257.69047619047615"/>
      <point x="649.1428571428571" y="282.33333333333337"/>
      <point x="601.7619047619048" y="282.33333333333337" type="curve" smooth="yes"/>
      <point x="553.1190476190476" y="282.33333333333337"/>
      <point x="516.7380952380952" y="250.33333333333334"/>
      <point x="516.7380952380952" y="199.5" type="curve" smooth="yes"/>
      <point x="516.7380952380952" y="145.57142857142856"/>
      <point x="550.5714285714286" y="105.47619047619048"/>
      <point x="611.7619047619048" y="105.47619047619048" type="curve" smooth="yes"/>
      <point x="685.5952380952381" y="105.47619047619048"/>
      <point x="734.5238095238095" y="160.57142857142856"/>
      <point x="734.5238095238095" y="260.23809523809524" type="curve" smooth="yes"/>
      <point x="734.5238095238095" y="395.8095238095238"/>
      <point x="631.9761904761905" y="499.6190476190476"/>
      <point x="464.69047619047615" y="513.2619047619048" type="curve"/>
      <point x="479.6904761904762" y="487.7142857142857" type="line"/>
      <point x="479.6904761904762" y="542.3333333333334" type="line"/>
      <point x="796.6190476190477" y="542.3333333333334" type="line"/>
      <point x="752.3333333333333" y="622.0" type="line"/>
      <point x="-37.19047619047619" y="622.0" type="line"/>
      <point x="7.5476190476190474" y="542.3333333333334" type="line"/>
      <point x="376.0" y="542.3333333333334" type="line"/>
      <point x="376.0" y="456.95238095238096" type="line"/>
      <point x="387.6428571428571" y="515.8095238095239" type="line"/>
      <point x="250.54761904761907" y="482.6428571428571"/>
      <point x="116.78571428571428" y="422.9047619047619"/>
      <point x="7.071428571428569" y="352.6428571428571" type="curve"/>
      <point x="67.54761904761905" y="191.95238095238096" type="line"/>
      <point x="207.0952380952381" y="176.5"/>
      <point x="319.2857142857143" y="121.42857142857142"/>
      <point x="391.2857142857143" y="16.80952380952381" type="curve"/>
    </contour>
    <contour>
      <point x="376.0" y="84.83333333333333" type="line"/>
      <point x="392.73809523809524" y="107.47619047619047" type="line"/>
      <point x="339.3095238095238" y="210.97619047619045"/>
      <point x="246.42857142857144" y="268.42857142857144"/>
      <point x="161.16666666666669" y="289.88095238095235" type="curve"/>
      <point x="167.52380952380952" y="267.42857142857144" type="line"/>
      <point x="234.14285714285714" y="308.5"/>
      <point x="322.7619047619048" y="348.76190476190476"/>
      <point x="394.6428571428571" y="368.38095238095235" type="curve"/>
      <point x="376.0" y="410.5" type="line"/>
    </contour>
  </outline>
</glyph>
<glyph name="kha-beng" format="2">
  <advance width="663.3333333333333"/>
  <unicode hex="0996"/>
  <anchor x="573.2380952380953" y="35.642857142857146" name="bottom"/>
  <anchor x="583.3333333333333" y="94.11904761904762" name="bottom.rakaar"/>
  <anchor x="583.3333333333333" y="11.0" name="bottom.rvocalic"/>
  <anchor x="563.3333333333333" y="17.285714285714285" name="bottom.virama"/>
  <anchor x="551.0238095238095" y="577.9285714285714" name="top"/>
  <anchor x="536.952380952381" y="568.3809523809524" name="topright"/>
  <anchor x="311.6666666666667" y="0.0" name="vedic"/>
  <outline>
    <contour>
      <point x="573.2380952380953" y="-28.380952380952383" type="line"/>
      <point x="583.3333333333333" y="-25.833333333333336" type="line"/>
      <point x="583.3333333333333" y="542.3333333333334" type="line"/>
      <point x="700.5238095238095" y="542.3333333333334" type="line"/>
      <point x="654.7857142857142" y="622.0" type="line"/>
      <point x="573.5952380952381" y="622.0" type="line"/>
      <point x="564.5" y="681.9285714285714" type="line"/>
      <point x="487.73809523809524" y="719.0238095238096" type="line"/>
      <point x="479.6428571428571" y="715.4761904761905" type="line"/>
      <point x="479.6428571428571" y="78.19047619047619" type="line"/>
      <point x="496.38095238095235" y="95.19047619047619" type="line"/>
      <point x="441.4761904761905" y="208.73809523809524"/>
      <point x="361.66666666666663" y="260.3571428571429"/>
      <point x="278.42857142857144" y="288.6190476190476" type="curve"/>
      <point x="287.8809523809524" y="247.88095238095235" type="line"/>
      <point x="391.14285714285717" y="271.9761904761905"/>
      <point x="440.4047619047619" y="328.0714285714286"/>
      <point x="440.4047619047619" y="426.4285714285714" type="curve" smooth="yes"/>
      <point x="440.4047619047619" y="533.547619047619"/>
      <point x="360.0952380952381" y="598.2857142857142"/>
      <point x="300.61904761904765" y="634.7380952380952" type="curve"/>
      <point x="253.54761904761907" y="564.2142857142857"/>
      <point x="200.28571428571428" y="510.8333333333333"/>
      <point x="133.52380952380952" y="510.8333333333333" type="curve" smooth="yes"/>
      <point x="122.61904761904762" y="510.8333333333333"/>
      <point x="107.97619047619047" y="512.2857142857142"/>
      <point x="100.42857142857143" y="515.7380952380952" type="curve"/>
      <point x="147.0952380952381" y="472.90476190476187" type="line"/>
      <point x="167.64285714285714" y="490.45238095238096"/>
      <point x="174.64285714285714" y="507.0"/>
      <point x="174.64285714285714" y="536.0952380952381" type="curve" smooth="yes"/>
      <point x="174.64285714285714" y="572.6428571428572"/>
      <point x="149.64285714285714" y="607.3809523809524"/>
      <point x="95.26190476190476" y="607.3809523809524" type="curve" smooth="yes"/>
      <point x="44.61904761904762" y="607.3809523809524"/>
      <point x="11.428571428571425" y="573.1904761904761"/>
      <point x="11.428571428571425" y="521.547619047619" type="curve" smooth="yes"/>
      <point x="11.428571428571425" y="439.8095238095238"/>
      <point x="67.97619047619047" y="399.0714285714286"/>
      <point x="140.45238095238093" y="399.0714285714286" type="curve" smooth="yes"/>
      <point x="212.26190476190476" y="399.0714285714286"/>
      <point x="293.3571428571429" y="433.5952380952381"/>
      <point x="345.26190476190476" y="524.3333333333334" type="curve"/>
      <point x="298.6190476190476" y="537.2619047619048" type="line"/>
      <point x="321.07142857142856" y="516.8095238095239"/>
      <point x="339.26190476190476" y="492.8095238095238"/>
      <point x="339.26190476190476" y="463.45238095238096" type="curve" smooth="yes"/>
      <point x="339.26190476190476" y="380.6428571428571"/>
      <point x="248.47619047619048" y="344.6428571428571"/>
      <point x="113.16666666666667" y="344.6428571428571" type="curve"/>
      <point x="167.0" y="190.95238095238096" type="line"/>
      <point x="301.1666666666667" y="179.59523809523807"/>
      <point x="428.0238095238095" y="118.88095238095238"/>
      <point x="495.4761904761904" y="15.809523809523807" type="curve"/>
    </contour>
  </outline>
</glyph>
<glyph name="ga-beng" format="2">
  <advance width="666.2619047619048"/>
  <unicode hex="0997"/>
  <anchor x="564.9761904761905" y="59.73809523809524" name="bottom"/>
  <anchor x="586.2619047619048" y="-19.92857142857143" name="bottom.rakaar"/>
  <anchor x="586.2619047619048" y="-3.0" name="bottom.rvocalic"/>
  <anchor x="549.8809523809524" y="9.095238095238095" name="bottom.virama"/>
  <anchor x="553.952380952381" y="577.9285714285714" name="top"/>
  <anchor x="539.8809523809524" y="568.3809523809524" name="topright"/>
  <anchor x="332.8571428571429" y="0.0" name="vedic"/>
  <outline>
    <contour>
      <point x="576.6190476190477" y="-39.38095238095238" type="line"/>
      <point x="586.2619047619048" y="-36.833333333333336" type="line"/>
      <point x="586.2619047619048" y="542.3333333333334" type="line"/>
      <point x="703.452380952381" y="542.3333333333334" type="line"/>
      <point x="657.7142857142857" y="622.0" type="line"/>
      <point x="576.5238095238095" y="622.0" type="line"/>
      <point x="567.8809523809524" y="681.9285714285714" type="line"/>
      <point x="491.1190476190476" y="719.0238095238096" type="line"/>
      <point x="483.0238095238095" y="715.4761904761905" type="line"/>
      <point x="483.0238095238095" y="606.1428571428571" type="line" smooth="yes"/>
      <point x="483.0238095238095" y="543.5714285714286"/>
      <point x="486.0238095238095" y="486.1190476190476"/>
      <point x="493.11904761904765" y="419.6190476190476" type="curve"/>
      <point x="505.66666666666663" y="420.61904761904765" type="line"/>
      <point x="444.5" y="570.452380952381"/>
      <point x="354.1190476190476" y="635.6428571428572"/>
      <point x="257.92857142857144" y="635.6428571428572" type="curve" smooth="yes"/>
      <point x="153.26190476190476" y="635.6428571428572"/>
      <point x="61.97619047619048" y="568.6190476190476"/>
      <point x="-5.023809523809527" y="443.7142857142857" type="curve"/>
      <point x="99.92857142857143" y="340.30952380952385" type="line"/>
      <point x="137.28571428571428" y="368.11904761904765"/>
      <point x="181.38095238095238" y="395.95238095238096"/>
      <point x="222.38095238095238" y="395.95238095238096" type="curve" smooth="yes"/>
      <point x="253.0952380952381" y="395.95238095238096"/>
      <point x="272.6428571428571" y="381.6904761904762"/>
      <point x="272.6428571428571" y="351.2380952380952" type="curve" smooth="yes"/>
      <point x="272.6428571428571" y="310.88095238095235"/>
      <point x="222.73809523809524" y="278.0714285714286"/>
      <point x="123.90476190476191" y="252.2619047619048" type="curve"/>
      <point x="206.47619047619048" y="113.57142857142856" type="line"/>
      <point x="343.88095238095235" y="170.92857142857144"/>
      <point x="390.5238095238095" y="253.59523809523807"/>
      <point x="390.5238095238095" y="334.6904761904762" type="curve" smooth="yes"/>
      <point x="390.5238095238095" y="411.88095238095235"/>
      <point x="342.9761904761905" y="472.0714285714286"/>
      <point x="255.14285714285717" y="472.0714285714286" type="curve" smooth="yes"/>
      <point x="205.14285714285717" y="472.0714285714286"/>
      <point x="167.5" y="456.0714285714286"/>
      <point x="139.30952380952382" y="438.4285714285714" type="curve"/>
      <point x="157.76190476190476" y="409.5" type="line"/>
      <point x="183.38095238095238" y="463.73809523809524"/>
      <point x="239.11904761904762" y="521.7857142857143"/>
      <point x="298.59523809523813" y="521.7857142857143" type="curve" smooth="yes"/>
      <point x="362.85714285714283" y="521.7857142857143"/>
      <point x="430.95238095238096" y="475.5952380952381"/>
      <point x="497.0238095238095" y="325.1428571428571" type="curve"/>
      <point x="483.0238095238095" y="392.3333333333333" type="line"/>
      <point x="483.0238095238095" y="-0.09523809523809534" type="line"/>
    </contour>
  </outline>
</glyph>
<glyph name="gha-beng" format="2">
  <advance width="588.0714285714286"/>
  <unicode hex="0998"/>
  <anchor x="499.42857142857144" y="35.642857142857146" name="bottom"/>
  <anchor x="508.5238095238095" y="94.11904761904762" name="bottom.rakaar"/>
  <anchor x="508.5238095238095" y="11.0" name="bottom.rvocalic"/>
  <anchor x="488.5238095238095" y="17.285714285714285" name="bottom.virama"/>
  <anchor x="479.85714285714283" y="587.9285714285714" name="top"/>
  <anchor x="481.30952380952385" y="571.547619047619" name="topright"/>
  <anchor x="293.76190476190476" y="0.0" name="vedic"/>
  <outline>
    <contour>
      <point x="498.42857142857144" y="-28.380952380952383" type="line"/>
      <point x="508.5238095238095" y="-25.833333333333336" type="line"/>
      <point x="508.5238095238095" y="542.3333333333334" type="line"/>
      <point x="625.2619047619047" y="542.3333333333334" type="line"/>
      <point x="579.4285714285714" y="622.0" type="line"/>
      <point x="-37.19047619047619" y="622.0" type="line"/>
      <point x="7.5476190476190474" y="542.3333333333334" type="line"/>
      <point x="404.8333333333333" y="542.3333333333334" type="line"/>
      <point x="404.8333333333333" y="78.19047619047619" type="line"/>
      <point x="421.57142857142856" y="95.19047619047619" type="line"/>
      <point x="350.8333333333333" y="233.4047619047619"/>
      <point x="235.88095238095238" y="275.2142857142857"/>
      <point x="133.11904761904762" y="288.6190476190476" type="curve"/>
      <point x="168.69047619047618" y="241.59523809523807" type="line"/>
      <point x="216.11904761904762" y="277.2142857142857"/>
      <point x="300.95238095238096" y="316.40476190476187"/>
      <point x="382.14285714285717" y="350.95238095238096" type="curve"/>
      <point x="323.76190476190476" y="465.3571428571429" type="line"/>
      <point x="299.5" y="449.0"/>
      <point x="275.33333333333337" y="439.0"/>
      <point x="243.23809523809524" y="439.0" type="curve" smooth="yes"/>
      <point x="207.42857142857144" y="439.0"/>
      <point x="184.42857142857144" y="458.35714285714283"/>
      <point x="184.42857142857144" y="489.8095238095238" type="curve" smooth="yes"/>
      <point x="184.42857142857144" y="521.3333333333334"/>
      <point x="204.5" y="542.3333333333334"/>
      <point x="235.66666666666669" y="553.3333333333334" type="curve"/>
      <point x="81.38095238095238" y="604.7142857142858" type="line"/>
      <point x="57.85714285714286" y="585.8809523809524"/>
      <point x="31.261904761904763" y="555.4285714285714"/>
      <point x="31.261904761904763" y="507.90476190476187" type="curve" smooth="yes"/>
      <point x="31.261904761904763" y="426.07142857142856"/>
      <point x="107.09523809523809" y="393.8095238095238"/>
      <point x="177.8095238095238" y="390.0" type="curve"/>
      <point x="197.4047619047619" y="416.73809523809524" type="line"/>
      <point x="149.11904761904762" y="396.73809523809524"/>
      <point x="84.0" y="366.0"/>
      <point x="36.904761904761905" y="337.0" type="curve"/>
      <point x="101.47619047619047" y="184.5" type="line"/>
      <point x="228.38095238095238" y="177.2380952380952"/>
      <point x="354.7619047619048" y="117.33333333333331"/>
      <point x="420.1190476190476" y="15.809523809523807" type="curve"/>
    </contour>
  </outline>
</glyph>
<glyph name="nga-beng" format="2">
  <advance width="634.4761904761905"/>
  <unicode hex="0999"/>
  <anchor x="438.30952380952385" y="-5.761904761904763" name="bottom"/>
  <anchor x="566.4285714285714" y="-3.619047619047617" name="bottom.rakaar"/>
  <anchor x="460.85714285714283" y="-31.785714285714292" name="bottom.rvocalic"/>
  <anchor x="423.69047619047615" y="0.0" name="bottom.virama"/>
  <anchor x="379.76190476190476" y="587.9285714285714" name="top"/>
  <anchor x="375.78571428571433" y="571.547619047619" name="topright"/>
  <anchor x="316.73809523809524" y="0.0" name="vedic"/>
  <outline>
    <contour>
      <point x="380.9285714285714" y="-9.142857142857146" type="curve" smooth="yes"/>
      <point x="544.6904761904763" y="-9.142857142857146"/>
      <point x="613.5952380952381" y="108.97619047619047"/>
      <point x="613.5952380952381" y="254.0" type="curve" smooth="yes"/>
      <point x="613.5952380952381" y="345.92857142857144"/>
      <point x="566.5714285714286" y="418.11904761904765"/>
      <point x="527.3095238095239" y="457.2857142857143" type="curve"/>
      <point x="470.76190476190476" y="374.8095238095238"/>
      <point x="398.11904761904765" y="327.73809523809524"/>
      <point x="348.95238095238096" y="327.73809523809524" type="curve" smooth="yes"/>
      <point x="329.8571428571429" y="327.73809523809524"/>
      <point x="317.30952380952385" y="337.73809523809524"/>
      <point x="317.30952380952385" y="359.8333333333333" type="curve" smooth="yes"/>
      <point x="317.30952380952385" y="466.54761904761904" type="line" smooth="yes"/>
      <point x="317.30952380952385" y="522.8809523809524"/>
      <point x="335.11904761904765" y="555.8809523809524"/>
      <point x="374.4761904761905" y="555.8809523809524" type="curve" smooth="yes"/>
      <point x="402.8333333333333" y="555.8809523809524"/>
      <point x="416.09523809523813" y="539.4285714285714"/>
      <point x="416.09523809523813" y="518.6190476190476" type="curve" smooth="yes"/>
      <point x="416.09523809523813" y="491.1666666666667"/>
      <point x="398.45238095238096" y="467.8095238095238"/>
      <point x="345.73809523809524" y="467.8095238095238" type="curve" smooth="yes"/>
      <point x="250.11904761904762" y="467.8095238095238"/>
      <point x="205.38095238095238" y="517.2619047619048"/>
      <point x="154.1904761904762" y="626.6428571428572" type="curve"/>
      <point x="100.35714285714286" y="604.547619047619" type="line"/>
      <point x="155.0" y="480.6190476190476"/>
      <point x="218.0" y="389.3333333333333"/>
      <point x="350.9285714285714" y="389.3333333333333" type="curve" smooth="yes"/>
      <point x="449.73809523809524" y="389.3333333333333"/>
      <point x="499.8571428571429" y="452.42857142857144"/>
      <point x="499.85714285714283" y="514.8095238095237" type="curve" smooth="yes"/>
      <point x="499.85714285714283" y="582.452380952381"/>
      <point x="458.85714285714283" y="635.0952380952381"/>
      <point x="368.9285714285714" y="635.0952380952381" type="curve" smooth="yes"/>
      <point x="277.1904761904762" y="635.0952380952381"/>
      <point x="217.71428571428572" y="568.8095238095239"/>
      <point x="217.71428571428572" y="466.5238095238096" type="curve" smooth="yes"/>
      <point x="217.71428571428572" y="340.3571428571429" type="line" smooth="yes"/>
      <point x="217.71428571428572" y="289.9761904761905"/>
      <point x="239.45238095238096" y="256.7857142857143"/>
      <point x="263.0" y="235.2380952380952" type="curve" smooth="yes"/>
      <point x="290.73809523809524" y="210.04761904761904"/>
      <point x="323.38095238095235" y="199.04761904761904"/>
      <point x="363.5714285714286" y="199.04761904761904" type="curve" smooth="yes"/>
      <point x="435.95238095238096" y="199.04761904761904"/>
      <point x="524.8809523809524" y="254.14285714285714"/>
      <point x="560.4047619047618" y="315.1428571428571" type="curve"/>
      <point x="506.4761904761905" y="357.26190476190476" type="line"/>
      <point x="525.4761904761905" y="330.7142857142857"/>
      <point x="540.0238095238095" y="298.0714285714286"/>
      <point x="540.0238095238095" y="268.35714285714283" type="curve" smooth="yes"/>
      <point x="540.0238095238095" y="188.0"/>
      <point x="484.57142857142856" y="133.19047619047618"/>
      <point x="371.1904761904762" y="133.19047619047618" type="curve" smooth="yes"/>
      <point x="219.64285714285714" y="133.19047619047618"/>
      <point x="139.73809523809524" y="231.35714285714286"/>
      <point x="66.92857142857143" y="494.5476190476191" type="curve"/>
      <point x="4.357142857142858" y="478.45238095238096" type="line"/>
      <point x="73.16666666666667" y="155.97619047619048"/>
      <point x="183.07142857142856" y="-9.142857142857146"/>
    </contour>
  </outline>
</glyph>
<glyph name="ca-beng" format="2">
  <advance width="555.3571428571429"/>
  <unicode hex="099A"/>
  <anchor x="368.6904761904762" y="-2.3095238095238138" name="bottom"/>
  <anchor x="451.0" y="0.0" name="bottom.rakaar"/>
  <anchor x="389.80952380952385" y="-21.690476190476193" name="bottom.rvocalic"/>
  <anchor x="314.80952380952385" y="23.166666666666664" name="bottom.virama"/>
  <anchor x="155.02380952380952" y="587.9285714285714" name="top"/>
  <anchor x="156.47619047619048" y="571.547619047619" name="topright"/>
  <anchor x="277.4047619047619" y="0.0" name="vedic"/>
  <outline>
    <contour>
      <point x="249.04761904761904" y="-3.8571428571428577" type="curve" smooth="yes"/>
      <point x="420.45238095238096" y="-3.8571428571428577"/>
      <point x="513.8095238095239" y="187.88095238095238"/>
      <point x="513.8095238095239" y="297.88095238095235" type="curve" smooth="yes"/>
      <point x="513.8095238095239" y="363.54761904761904"/>
      <point x="456.6904761904762" y="405.38095238095235"/>
      <point x="426.95238095238096" y="419.92857142857144" type="curve"/>
      <point x="339.76190476190476" y="422.73809523809524"/>
      <point x="235.6904761904762" y="454.6428571428571"/>
      <point x="177.23809523809524" y="550.1666666666666" type="curve"/>
      <point x="175.14285714285714" y="466.88095238095235" type="line"/>
      <point x="213.5" y="372.33333333333337"/>
      <point x="301.6904761904762" y="298.5"/>
      <point x="425.69047619047615" y="291.69047619047615" type="curve"/>
      <point x="370.8333333333333" y="343.90476190476187" type="line"/>
      <point x="362.8333333333333" y="202.61904761904762"/>
      <point x="284.92857142857144" y="108.73809523809524"/>
      <point x="228.76190476190476" y="108.73809523809524" type="curve" smooth="yes"/>
      <point x="201.04761904761904" y="108.73809523809524"/>
      <point x="183.23809523809524" y="123.64285714285714"/>
      <point x="183.23809523809524" y="150.9047619047619" type="curve" smooth="yes"/>
      <point x="183.23809523809524" y="542.3333333333334" type="line"/>
      <point x="592.547619047619" y="542.3333333333334" type="line"/>
      <point x="548.8095238095239" y="622.0" type="line"/>
      <point x="-37.19047619047619" y="622.0" type="line"/>
      <point x="9.547619047619047" y="542.3333333333334" type="line"/>
      <point x="80.0" y="542.3333333333334" type="line"/>
      <point x="80.0" y="150.9047619047619" type="line" smooth="yes"/>
      <point x="80.0" y="64.07142857142857"/>
      <point x="164.7619047619048" y="-3.8571428571428577"/>
    </contour>
  </outline>
</glyph>
<glyph name="cha-beng" format="2">
  <advance width="566.8571428571429"/>
  <unicode hex="099B"/>
  <anchor x="361.14285714285717" y="-18.452380952380963" name="bottom"/>
  <anchor x="493.6904761904762" y="-149.7857142857143" name="bottom.rakaar"/>
  <anchor x="448.71428571428567" y="-25.904761904761912" name="bottom.rvocalic"/>
  <anchor x="353.23809523809524" y="-16.16666666666667" name="bottom.virama"/>
  <anchor x="121.54761904761905" y="587.9285714285714" name="top"/>
  <anchor x="123.0" y="571.547619047619" name="topright"/>
  <anchor x="282.92857142857144" y="0.0" name="vedic"/>
  <outline>
    <contour>
      <point x="561.5" y="-165.0" type="curve"/>
      <point x="602.2380952380952" y="-120.71428571428572" type="line"/>
      <point x="512.047619047619" y="-20.142857142857146"/>
      <point x="365.0" y="71.95238095238095"/>
      <point x="236.52380952380952" y="97.95238095238095" type="curve"/>
      <point x="226.07142857142856" y="53.476190476190474" type="line"/>
      <point x="234.52380952380952" y="49.476190476190474"/>
      <point x="268.90476190476187" y="43.83333333333333"/>
      <point x="296.09523809523813" y="43.83333333333333" type="curve" smooth="yes"/>
      <point x="437.14285714285717" y="43.83333333333333"/>
      <point x="544.0714285714286" y="126.66666666666667"/>
      <point x="544.0714285714286" y="270.5" type="curve" smooth="yes"/>
      <point x="544.0714285714286" y="419.09523809523813"/>
      <point x="434.85714285714283" y="488.35714285714283"/>
      <point x="307.64285714285717" y="488.35714285714283" type="curve" smooth="yes"/>
      <point x="237.3095238095238" y="488.35714285714283"/>
      <point x="173.38095238095238" y="504.35714285714283"/>
      <point x="143.21428571428572" y="543.8809523809524" type="curve"/>
      <point x="138.66666666666666" y="493.69047619047615" type="line"/>
      <point x="170.21428571428572" y="433.14285714285717"/>
      <point x="227.83333333333334" y="406.6190476190476"/>
      <point x="281.3571428571429" y="397.9761904761905" type="curve"/>
      <point x="248.26190476190476" y="446.1666666666667" type="line"/>
      <point x="248.45238095238096" y="366.0"/>
      <point x="217.54761904761904" y="303.3571428571429"/>
      <point x="178.38095238095238" y="303.3571428571429" type="curve" smooth="yes"/>
      <point x="162.21428571428572" y="303.3571428571429"/>
      <point x="149.76190476190476" y="313.61904761904765"/>
      <point x="149.76190476190476" y="329.9761904761905" type="curve" smooth="yes"/>
      <point x="149.76190476190476" y="542.3333333333334" type="line"/>
      <point x="604.047619047619" y="542.3333333333334" type="line"/>
      <point x="557.2142857142857" y="622.0" type="line"/>
      <point x="-37.19047619047619" y="622.0" type="line"/>
      <point x="7.5476190476190474" y="542.3333333333334" type="line"/>
      <point x="46.523809523809526" y="542.3333333333334" type="line"/>
      <point x="46.523809523809526" y="331.9761904761905" type="line" smooth="yes"/>
      <point x="46.523809523809526" y="268.23809523809524"/>
      <point x="120.73809523809524" y="208.14285714285714"/>
      <point x="198.02380952380952" y="208.14285714285714" type="curve" smooth="yes"/>
      <point x="300.04761904761904" y="208.14285714285714"/>
      <point x="370.5952380952381" y="277.5238095238096"/>
      <point x="386.3095238095238" y="435.2380952380952" type="curve"/>
      <point x="336.2142857142857" y="410.23809523809524" type="line"/>
      <point x="391.4047619047619" y="410.23809523809524"/>
      <point x="440.3809523809524" y="385.33333333333337"/>
      <point x="440.3809523809524" y="311.7142857142857" type="curve" smooth="yes"/>
      <point x="440.3809523809524" y="208.76190476190476"/>
      <point x="340.85714285714283" y="166.97619047619048"/>
      <point x="244.8095238095238" y="166.97619047619048" type="curve" smooth="yes"/>
      <point x="189.26190476190476" y="166.97619047619048"/>
      <point x="125.88095238095238" y="175.52380952380952"/>
      <point x="77.52380952380952" y="203.26190476190476" type="curve"/>
      <point x="114.45238095238095" y="26.357142857142854" type="line"/>
      <point x="255.78571428571428" y="2.357142857142847"/>
      <point x="402.5714285714286" y="-33.26190476190477"/>
    </contour>
  </outline>
</glyph>
<glyph name="ja-beng" format="2">
  <advance width="840.2380952380953"/>
  <unicode hex="099C"/>
  <anchor x="761.452380952381" y="22.38095238095238" name="bottom"/>
  <anchor x="773.3571428571429" y="45.88095238095238" name="bottom.rakaar"/>
  <anchor x="773.452380952381" y="-46.52380952380953" name="bottom.rvocalic"/>
  <anchor x="757.0" y="-44.5952380952381" name="bottom.virama"/>
  <anchor x="461.1190476190476" y="587.9285714285714" name="top"/>
  <anchor x="462.11904761904765" y="571.547619047619" name="topright"/>
  <anchor x="420.11904761904765" y="0.0" name="vedic"/>
  <outline>
    <contour>
      <point x="371.2142857142857" y="-37.833333333333336" type="curve" smooth="yes"/>
      <point x="523.2380952380952" y="-37.833333333333336"/>
      <point x="588.8809523809524" y="60.99999999999999"/>
      <point x="588.8809523809524" y="198.66666666666666" type="curve" smooth="yes"/>
      <point x="588.8809523809524" y="298.5238095238096"/>
      <point x="537.4761904761905" y="374.90476190476187"/>
      <point x="492.3095238095238" y="414.5238095238096" type="curve"/>
      <point x="436.5714285714286" y="351.6190476190476"/>
      <point x="392.1190476190476" y="318.8095238095238"/>
      <point x="353.85714285714283" y="318.8095238095238" type="curve" smooth="yes"/>
      <point x="323.04761904761904" y="318.8095238095238"/>
      <point x="300.59523809523813" y="335.1666666666667"/>
      <point x="300.59523809523813" y="364.4285714285714" type="curve" smooth="yes"/>
      <point x="300.59523809523813" y="420.1428571428571"/>
      <point x="402.3571428571429" y="496.0714285714286"/>
      <point x="514.2619047619048" y="542.3333333333334" type="curve"/>
      <point x="877.4285714285714" y="542.3333333333334" type="line"/>
      <point x="833.1428571428572" y="622.0" type="line"/>
      <point x="-37.19047619047619" y="622.0" type="line"/>
      <point x="8.095238095238095" y="542.3333333333334" type="line"/>
      <point x="369.14285714285717" y="542.3333333333334" type="line"/>
      <point x="336.2142857142857" y="580.452380952381" type="line"/>
      <point x="285.8809523809524" y="555.1190476190476"/>
      <point x="191.9047619047619" y="477.6428571428571"/>
      <point x="191.9047619047619" y="373.14285714285717" type="curve" smooth="yes"/>
      <point x="191.9047619047619" y="264.57142857142856"/>
      <point x="275.0238095238095" y="188.47619047619045"/>
      <point x="364.7619047619048" y="188.47619047619045" type="curve" smooth="yes"/>
      <point x="428.2142857142857" y="188.47619047619045"/>
      <point x="493.95238095238096" y="224.73809523809524"/>
      <point x="543.1428571428571" y="294.11904761904765" type="curve"/>
      <point x="487.6666666666667" y="317.04761904761904" type="line"/>
      <point x="507.3095238095238" y="291.95238095238096"/>
      <point x="522.952380952381" y="264.4047619047619"/>
      <point x="522.952380952381" y="227.4047619047619" type="curve" smooth="yes"/>
      <point x="522.952380952381" y="155.76190476190476"/>
      <point x="459.3809523809524" y="112.23809523809521"/>
      <point x="374.85714285714283" y="112.23809523809521" type="curve" smooth="yes"/>
      <point x="217.2857142857143" y="112.23809523809521"/>
      <point x="130.64285714285714" y="237.16666666666666"/>
      <point x="72.28571428571429" y="480.7142857142857" type="curve"/>
      <point x="12.80952380952381" y="465.61904761904765" type="line"/>
      <point x="68.6190476190476" y="134.76190476190476"/>
      <point x="172.07142857142858" y="-37.833333333333336"/>
    </contour>
    <contour>
      <point x="716.5238095238095" y="-86.80952380952382" type="curve"/>
      <point x="773.452380952381" y="-65.71428571428572" type="line"/>
      <point x="746.2619047619048" y="12.76190476190476"/>
      <point x="741.3571428571429" y="69.11904761904762"/>
      <point x="741.3571428571429" y="135.3095238095238" type="curve" smooth="yes"/>
      <point x="741.3571428571429" y="209.3095238095238"/>
      <point x="770.9047619047619" y="298.3333333333333"/>
      <point x="827.6428571428571" y="373.42857142857144" type="curve"/>
      <point x="753.8809523809524" y="470.64285714285717" type="line"/>
      <point x="626.2380952380953" y="455.7142857142857"/>
      <point x="541.952380952381" y="501.6428571428571"/>
      <point x="504.7857142857143" y="583.5238095238095" type="curve"/>
      <point x="453.8571428571429" y="543.5238095238095" type="line"/>
      <point x="502.7619047619048" y="406.4047619047619"/>
      <point x="615.2380952380953" y="347.6666666666667"/>
      <point x="717.8809523809524" y="328.0238095238095" type="curve"/>
      <point x="692.5952380952381" y="402.26190476190476" type="line"/>
      <point x="660.8571428571428" y="326.14285714285717"/>
      <point x="648.4047619047618" y="260.9761904761905"/>
      <point x="648.4047619047618" y="187.88095238095238" type="curve" smooth="yes"/>
      <point x="648.4047619047618" y="74.02380952380952"/>
      <point x="676.2380952380953" y="-6.714285714285715"/>
    </contour>
  </outline>
</glyph>
<glyph name="jha-beng" format="2">
  <advance width="743.9047619047619"/>
  <unicode hex="099D"/>
  <anchor x="470.59523809523813" y="35.642857142857146" name="bottom"/>
  <anchor x="479.6904761904762" y="92.57142857142858" name="bottom.rakaar"/>
  <anchor x="479.6904761904762" y="9.452380952380953" name="bottom.rvocalic"/>
  <anchor x="465.3333333333333" y="17.285714285714285" name="bottom.virama"/>
  <anchor x="431.4761904761905" y="587.9285714285714" name="top"/>
  <anchor x="497.3809523809524" y="587.9285714285714" name="topleft"/>
  <anchor x="432.4761904761904" y="571.547619047619" name="topright"/>
  <anchor x="371.95238095238096" y="0.0" name="vedic"/>
  <outline>
    <contour>
      <point x="469.04761904761904" y="-28.380952380952383" type="line"/>
      <point x="479.6904761904762" y="-25.833333333333336" type="line"/>
      <point x="479.6904761904762" y="622.0" type="line"/>
      <point x="-37.19047619047619" y="622.0" type="line"/>
      <point x="7.5476190476190474" y="542.3333333333334" type="line"/>
      <point x="376.0" y="542.3333333333334" type="line"/>
      <point x="376.0" y="456.30952380952385" type="line"/>
      <point x="387.6428571428571" y="515.8095238095239" type="line"/>
      <point x="252.0952380952381" y="483.64285714285717"/>
      <point x="119.33333333333331" y="423.90476190476187"/>
      <point x="7.071428571428569" y="352.6428571428571" type="curve"/>
      <point x="67.54761904761905" y="191.95238095238096" type="line"/>
      <point x="204.0" y="178.04761904761904"/>
      <point x="322.3809523809524" y="118.88095238095238"/>
      <point x="391.2857142857143" y="16.80952380952381" type="curve"/>
    </contour>
    <contour>
      <point x="376.0" y="84.83333333333333" type="line"/>
      <point x="392.73809523809524" y="107.47619047619047" type="line"/>
      <point x="334.2142857142857" y="220.26190476190476"/>
      <point x="232.5952380952381" y="271.5238095238095"/>
      <point x="161.16666666666669" y="289.88095238095235" type="curve"/>
      <point x="167.52380952380952" y="266.9761904761905" type="line"/>
      <point x="235.69047619047618" y="309.5"/>
      <point x="323.30952380952385" y="348.76190476190476"/>
      <point x="394.6428571428571" y="368.3809523809524" type="curve"/>
      <point x="376.0" y="409.04761904761904" type="line"/>
    </contour>
    <contour>
      <point x="654.7142857142857" y="46.595238095238095" type="line"/>
      <point x="664.3571428571429" y="49.14285714285714" type="line"/>
      <point x="664.3571428571429" y="542.3333333333334" type="line"/>
      <point x="781.0952380952381" y="542.3333333333334" type="line"/>
      <point x="735.8095238095239" y="622.0" type="line"/>
      <point x="654.6190476190476" y="622.0" type="line"/>
      <point x="645.5238095238095" y="681.9285714285714" type="line"/>
      <point x="568.7619047619048" y="719.0238095238096" type="line"/>
      <point x="560.6666666666666" y="715.4761904761905" type="line"/>
      <point x="560.6666666666666" y="159.26190476190476" type="line"/>
      <point x="577.4047619047618" y="176.80952380952382" type="line"/>
      <point x="539.4047619047618" y="268.3809523809524"/>
      <point x="497.5" y="306.0952380952381"/>
      <point x="437.2142857142857" y="339.54761904761904" type="curve"/>
      <point x="427.1190476190476" y="233.23809523809524" type="line"/>
      <point x="494.95238095238096" y="202.23809523809524"/>
      <point x="538.5" y="163.52380952380952"/>
      <point x="575.5" y="91.78571428571428" type="curve"/>
    </contour>
  </outline>
</glyph>
<glyph name="nya-beng" format="2">
  <advance width="977.8571428571428"/>
  <unicode hex="099E"/>
  <anchor x="613.1428571428571" y="28.452380952380953" name="bottom"/>
  <anchor x="656.0714285714286" y="86.92857142857143" name="bottom.rakaar"/>
  <anchor x="621.6904761904763" y="3.3571428571428568" name="bottom.rvocalic"/>
  <anchor x="601.6904761904763" y="10.095238095238095" name="bottom.virama"/>
  <anchor x="528.4047619047619" y="587.9285714285714" name="top"/>
  <anchor x="529.8571428571429" y="571.547619047619" name="topright"/>
  <anchor x="488.9285714285714" y="0.0" name="vedic"/>
  <outline>
    <contour>
      <point x="779.5952380952381" y="27.333333333333332" type="curve" smooth="yes"/>
      <point x="877.9761904761905" y="27.333333333333332"/>
      <point x="926.9761904761905" y="97.88095238095238"/>
      <point x="926.9761904761905" y="181.33333333333334" type="curve" smooth="yes"/>
      <point x="926.9761904761905" y="239.97619047619045"/>
      <point x="902.7857142857142" y="299.26190476190476"/>
      <point x="850.047619047619" y="339.8095238095238" type="curve"/>
      <point x="870.3333333333333" y="290.07142857142856" type="line"/>
      <point x="900.3333333333333" y="319.5238095238096"/>
      <point x="925.5238095238095" y="371.9761904761905"/>
      <point x="925.5238095238095" y="440.35714285714283" type="curve" smooth="yes"/>
      <point x="925.5238095238095" y="534.0952380952381"/>
      <point x="873.8809523809524" y="608.2857142857142"/>
      <point x="787.5952380952381" y="608.2857142857142" type="curve" smooth="yes"/>
      <point x="663.1190476190476" y="608.2857142857142"/>
      <point x="592.3095238095239" y="460.6428571428571"/>
      <point x="583.3095238095239" y="372.8095238095238" type="curve"/>
      <point x="583.3095238095239" y="265.7142857142857" type="line"/>
      <point x="601.8571428571429" y="137.33333333333331"/>
      <point x="672.1190476190476" y="27.333333333333332"/>
    </contour>
    <contour>
      <point x="769.8571428571428" y="150.38095238095238" type="curve" smooth="yes"/>
      <point x="694.5" y="150.38095238095238"/>
      <point x="624.5952380952381" y="220.45238095238096"/>
      <point x="624.5952380952381" y="314.26190476190476" type="curve" smooth="yes"/>
      <point x="624.5952380952381" y="401.3571428571429"/>
      <point x="689.6904761904763" y="496.42857142857144"/>
      <point x="779.5" y="496.42857142857144" type="curve" smooth="yes"/>
      <point x="813.1190476190476" y="496.42857142857144"/>
      <point x="836.4761904761905" y="480.9761904761905"/>
      <point x="836.4761904761905" y="448.1666666666667" type="curve" smooth="yes"/>
      <point x="836.4761904761905" y="415.6428571428571"/>
      <point x="802.3809523809524" y="382.0952380952381"/>
      <point x="764.4761904761905" y="366.6428571428571" type="curve"/>
      <point x="825.2142857142857" y="358.73809523809524" type="line"/>
      <point x="805.2142857142857" y="379.4523809523809"/>
      <point x="781.8571428571428" y="398.1904761904762"/>
      <point x="746.1190476190476" y="398.1904761904762" type="curve" smooth="yes"/>
      <point x="698.9285714285714" y="398.1904761904762"/>
      <point x="668.3809523809524" y="365.0"/>
      <point x="668.3809523809524" y="315.26190476190476" type="curve" smooth="yes"/>
      <point x="668.3809523809524" y="262.5238095238096"/>
      <point x="703.4761904761905" y="230.88095238095238"/>
      <point x="751.1190476190476" y="230.88095238095238" type="curve" smooth="yes"/>
      <point x="793.2142857142857" y="230.88095238095238"/>
      <point x="824.8571428571429" y="247.8809523809524"/>
      <point x="852.5" y="277.88095238095235" type="curve"/>
      <point x="801.5714285714286" y="306.8095238095238" type="line"/>
      <point x="821.4761904761905" y="288.26190476190476"/>
      <point x="849.6666666666666" y="264.45238095238096"/>
      <point x="849.6666666666666" y="223.45238095238093" type="curve" smooth="yes"/>
      <point x="849.6666666666666" y="175.64285714285714"/>
      <point x="819.6666666666666" y="150.38095238095238"/>
    </contour>
    <component base="e-beng"/>
  </outline>
</glyph>
<glyph name="tta-beng" format="2">
  <advance width="567.1666666666666"/>
  <unicode hex="099F"/>
  <anchor x="371.7857142857143" y="-2.3095238095238138" name="bottom"/>
  <anchor x="451.0" y="0.9047619047619042" name="bottom.rakaar"/>
  <anchor x="373.88095238095235" y="5.142857142857142" name="bottom.rvocalic"/>
  <anchor x="314.80952380952385" y="24.071428571428566" name="bottom.virama"/>
  <anchor x="305.4761904761905" y="686.8333333333334" name="top"/>
  <anchor x="215.47619047619048" y="633.8095238095237" name="topright"/>
  <anchor x="283.3095238095238" y="0.0" name="vedic"/>
  <anchor x="250.85714285714286" y="-111.5" name="nukta"/>
  <outline>
    <contour>
      <point x="417.95238095238096" y="592.5238095238095" type="curve"/>
      <point x="484.5238095238095" y="592.5238095238095" type="line"/>
      <point x="481.07142857142856" y="737.9047619047619"/>
      <point x="423.5" y="826.0238095238096"/>
      <point x="320.2142857142857" y="826.0238095238096" type="curve" smooth="yes"/>
      <point x="260.73809523809524" y="826.0238095238096"/>
      <point x="228.57142857142858" y="817.0238095238096"/>
      <point x="172.28571428571428" y="817.0238095238096" type="curve" smooth="yes"/>
      <point x="100.73809523809524" y="817.0238095238096"/>
      <point x="68.73809523809524" y="841.1190476190476"/>
      <point x="68.73809523809524" y="894.2857142857142" type="curve" smooth="yes"/>
      <point x="68.73809523809524" y="906.8333333333334"/>
      <point x="69.73809523809524" y="921.9285714285714"/>
      <point x="71.73809523809524" y="933.4761904761905" type="curve"/>
      <point x="16.904761904761905" y="939.5714285714286" type="line"/>
      <point x="11.357142857142858" y="915.8333333333334"/>
      <point x="7.809523809523808" y="886.6428571428572"/>
      <point x="7.809523809523808" y="859.9047619047619" type="curve" smooth="yes"/>
      <point x="7.809523809523808" y="759.6190476190476"/>
      <point x="65.73809523809524" y="687.4285714285714"/>
      <point x="184.66666666666669" y="687.4285714285714" type="curve" smooth="yes"/>
      <point x="248.85714285714286" y="687.4285714285714"/>
      <point x="291.7619047619048" y="698.9761904761904"/>
      <point x="336.4047619047619" y="698.9761904761904" type="curve" smooth="yes"/>
      <point x="387.8571428571429" y="698.9761904761904"/>
      <point x="418.5" y="678.7142857142858"/>
    </contour>
    <component base="ddha-beng"/>
  </outline>
</glyph>
<glyph name="ttha-beng" format="2">
  <advance width="559.2857142857142"/>
  <unicode hex="09A0"/>
  <anchor x="352.30952380952385" y="-40.50000000000001" name="bottom"/>
  <anchor x="491.1428571428571" y="-26.26190476190476" name="bottom.rakaar"/>
  <anchor x="402.30952380952385" y="-46.142857142857146" name="bottom.rvocalic"/>
  <anchor x="325.6428571428571" y="-16.380952380952383" name="bottom.virama"/>
  <anchor x="471.14285714285717" y="568.2857142857142" name="top"/>
  <anchor x="439.8333333333333" y="620.0952380952381" name="topleft"/>
  <anchor x="350.5" y="571.547619047619" name="topright"/>
  <anchor x="279.64285714285717" y="0.0" name="vedic"/>
  <outline>
    <contour>
      <point x="293.3809523809524" y="-42.69047619047619" type="curve" smooth="yes"/>
      <point x="431.66666666666663" y="-42.69047619047619"/>
      <point x="520.5" y="39.57142857142856"/>
      <point x="520.5" y="194.14285714285714" type="curve" smooth="yes"/>
      <point x="520.5" y="334.5238095238095"/>
      <point x="419.6428571428571" y="445.90476190476187"/>
      <point x="322.0238095238095" y="542.3333333333334" type="curve"/>
      <point x="596.4761904761905" y="542.3333333333334" type="line"/>
      <point x="551.1904761904761" y="622.0" type="line"/>
      <point x="251.64285714285714" y="622.0" type="line"/>
      <point x="213.0952380952381" y="657.452380952381"/>
      <point x="195.38095238095238" y="686.6190476190476"/>
      <point x="195.38095238095238" y="717.8809523809524" type="curve" smooth="yes"/>
      <point x="195.38095238095238" y="756.4285714285714"/>
      <point x="228.11904761904762" y="795.7142857142858"/>
      <point x="277.66666666666663" y="818.5238095238095" type="curve"/>
      <point x="179.26190476190476" y="896.9047619047619" type="line"/>
      <point x="112.6190476190476" y="863.0952380952381"/>
      <point x="73.04761904761905" y="810.8095238095239"/>
      <point x="73.04761904761905" y="761.6190476190476" type="curve" smooth="yes"/>
      <point x="73.04761904761905" y="700.6190476190476"/>
      <point x="113.5" y="664.452380952381"/>
      <point x="162.33333333333331" y="622.0" type="curve"/>
      <point x="-37.19047619047619" y="622.0" type="line"/>
      <point x="7.5476190476190474" y="542.3333333333334" type="line"/>
      <point x="209.9047619047619" y="542.3333333333334" type="line"/>
      <point x="220.26190476190476" y="520.6190476190476"/>
      <point x="226.7142857142857" y="491.3571428571429"/>
      <point x="226.7142857142857" y="457.54761904761904" type="curve" smooth="yes"/>
      <point x="226.7142857142857" y="350.07142857142856"/>
      <point x="148.95238095238096" y="273.26190476190476"/>
      <point x="14.428571428571429" y="248.9047619047619" type="curve"/>
      <point x="27.499999999999993" y="81.45238095238095"/>
      <point x="123.78571428571428" y="-42.69047619047619"/>
    </contour>
    <contour>
      <point x="265.0" y="61.357142857142854" type="curve" smooth="yes"/>
      <point x="198.83333333333334" y="61.357142857142854"/>
      <point x="155.11904761904762" y="117.35714285714286"/>
      <point x="155.11904761904762" y="173.14285714285714" type="curve"/>
      <point x="138.02380952380952" y="138.04761904761904" type="line"/>
      <point x="255.1904761904762" y="170.04761904761904"/>
      <point x="318.0238095238095" y="242.76190476190476"/>
      <point x="318.0238095238095" y="359.6904761904762" type="curve" smooth="yes"/>
      <point x="318.0238095238095" y="424.3095238095238"/>
      <point x="292.4761904761905" y="487.5"/>
      <point x="251.54761904761904" y="546.047619047619" type="curve"/>
      <point x="238.0" y="545.5" type="line"/>
      <point x="336.0714285714286" y="438.8095238095238"/>
      <point x="383.07142857142856" y="349.26190476190476"/>
      <point x="383.07142857142856" y="223.61904761904762" type="curve" smooth="yes"/>
      <point x="383.07142857142856" y="116.52380952380952"/>
      <point x="338.7142857142857" y="61.357142857142854"/>
    </contour>
  </outline>
</glyph>
<glyph name="dda-beng" format="2">
  <advance width="645.6666666666666"/>
  <unicode hex="09A1"/>
  <anchor x="465.5" y="-14.690476190476197" name="bottom"/>
  <anchor x="568.8809523809524" y="-10.095238095238095" name="bottom.rakaar"/>
  <anchor x="472.04761904761904" y="-14.523809523809533" name="bottom.rvocalic"/>
  <anchor x="426.14285714285717" y="-6.476190476190478" name="bottom.virama"/>
  <anchor x="346.2857142857143" y="-126.61904761904762" name="nukta"/>
  <anchor x="305.73809523809524" y="587.9285714285714" name="top"/>
  <anchor x="306.73809523809524" y="571.547619047619" name="topright"/>
  <anchor x="322.8333333333333" y="0.0" name="vedic"/>
  <outline>
    <contour>
      <point x="378.2857142857143" y="-12.523809523809529" type="curve" smooth="yes"/>
      <point x="542.5" y="-12.523809523809529"/>
      <point x="622.6904761904763" y="91.76190476190476"/>
      <point x="622.6904761904763" y="239.42857142857142" type="curve" smooth="yes"/>
      <point x="622.6904761904763" y="349.26190476190476"/>
      <point x="576.4047619047618" y="431.6428571428571"/>
      <point x="516.8571428571429" y="484.1904761904762" type="curve"/>
      <point x="459.92857142857144" y="406.26190476190476"/>
      <point x="404.4761904761904" y="366.2857142857143"/>
      <point x="368.5" y="366.2857142857143" type="curve" smooth="yes"/>
      <point x="350.59523809523813" y="366.2857142857143"/>
      <point x="333.95238095238096" y="372.73809523809524"/>
      <point x="333.95238095238096" y="397.3809523809524" type="curve" smooth="yes"/>
      <point x="333.95238095238096" y="542.3333333333334" type="line"/>
      <point x="682.8571428571428" y="542.3333333333334" type="line"/>
      <point x="636.5714285714286" y="622.0" type="line"/>
      <point x="-37.19047619047619" y="622.0" type="line"/>
      <point x="9.095238095238095" y="542.3333333333334" type="line"/>
      <point x="230.26190476190476" y="542.3333333333334" type="line"/>
      <point x="230.26190476190476" y="372.7142857142857" type="line" smooth="yes"/>
      <point x="230.26190476190476" y="321.23809523809524"/>
      <point x="248.45238095238096" y="290.14285714285717"/>
      <point x="276.09523809523813" y="263.5" type="curve" smooth="yes"/>
      <point x="303.8333333333333" y="236.76190476190476"/>
      <point x="339.0238095238095" y="220.66666666666669"/>
      <point x="382.85714285714283" y="220.66666666666669" type="curve" smooth="yes"/>
      <point x="444.8571428571429" y="220.66666666666669"/>
      <point x="523.6904761904761" y="270.76190476190476"/>
      <point x="573.3333333333333" y="345.95238095238096" type="curve"/>
      <point x="506.5714285714286" y="343.5" type="line"/>
      <point x="529.4761904761905" y="322.95238095238096"/>
      <point x="545.5714285714286" y="294.40476190476187"/>
      <point x="545.5714285714286" y="260.4285714285714" type="curve" smooth="yes"/>
      <point x="545.5714285714286" y="189.8095238095238"/>
      <point x="485.4761904761905" y="132.26190476190476"/>
      <point x="376.73809523809524" y="132.26190476190476" type="curve" smooth="yes"/>
      <point x="199.52380952380952" y="132.26190476190476"/>
      <point x="125.26190476190476" y="261.38095238095235"/>
      <point x="80.28571428571429" y="478.7142857142857" type="curve"/>
      <point x="15.714285714285715" y="465.61904761904765" type="line"/>
      <point x="60.69047619047619" y="159.33333333333334"/>
      <point x="168.5952380952381" y="-12.523809523809529"/>
    </contour>
  </outline>
</glyph>
<glyph name="ddha-beng" format="2">
  <advance width="567.1666666666666"/>
  <unicode hex="09A2"/>
  <anchor x="374.88095238095235" y="-2.3095238095238138" name="bottom"/>
  <anchor x="451.0" y="0.9047619047619042" name="bottom.rakaar"/>
  <anchor x="373.8809523809524" y="4.690476190476186" name="bottom.rvocalic"/>
  <anchor x="314.80952380952385" y="24.071428571428566" name="bottom.virama"/>
  <anchor x="250.85714285714286" y="-111.5" name="nukta"/>
  <anchor x="155.02380952380952" y="587.9285714285714" name="top"/>
  <anchor x="156.47619047619048" y="571.547619047619" name="topright"/>
  <anchor x="283.3095238095238" y="0.0" name="vedic"/>
  <outline>
    <contour>
      <point x="249.04761904761904" y="-2.952380952380956" type="curve" smooth="yes"/>
      <point x="408.26190476190476" y="-2.952380952380956"/>
      <point x="528.8095238095239" y="163.85714285714283"/>
      <point x="528.8095238095239" y="312.5238095238095" type="curve" smooth="yes"/>
      <point x="528.8095238095239" y="415.8095238095238"/>
      <point x="468.5238095238095" y="461.6428571428571"/>
      <point x="400.23809523809524" y="461.6428571428571" type="curve" smooth="yes"/>
      <point x="329.5" y="461.6428571428571"/>
      <point x="284.11904761904765" y="413.4523809523809"/>
      <point x="284.11904761904765" y="355.07142857142856" type="curve" smooth="yes"/>
      <point x="284.11904761904765" y="295.33333333333337"/>
      <point x="320.7619047619048" y="252.5952380952381"/>
      <point x="383.04761904761904" y="252.5952380952381" type="curve" smooth="yes"/>
      <point x="407.3095238095238" y="252.5952380952381"/>
      <point x="430.14285714285717" y="265.5952380952381"/>
      <point x="449.33333333333337" y="288.7857142857143" type="curve"/>
      <point x="384.2857142857143" y="326.5238095238095" type="line"/>
      <point x="379.2857142857143" y="192.85714285714286"/>
      <point x="289.6428571428571" y="110.19047619047619"/>
      <point x="226.76190476190476" y="110.19047619047619" type="curve" smooth="yes"/>
      <point x="202.5952380952381" y="110.19047619047619"/>
      <point x="183.23809523809524" y="125.0"/>
      <point x="183.23809523809524" y="152.26190476190476" type="curve" smooth="yes"/>
      <point x="183.23809523809524" y="542.3333333333334" type="line"/>
      <point x="604.3571428571429" y="542.3333333333334" type="line"/>
      <point x="560.6190476190476" y="622.0" type="line"/>
      <point x="-37.19047619047619" y="622.0" type="line"/>
      <point x="9.547619047619047" y="542.3333333333334" type="line"/>
      <point x="80.0" y="542.3333333333334" type="line"/>
      <point x="80.0" y="152.80952380952382" type="line" smooth="yes"/>
      <point x="80.0" y="63.97619047619047"/>
      <point x="164.7619047619048" y="-2.952380952380956"/>
    </contour>
  </outline>
</glyph>
<glyph name="nna-beng" format="2">
  <advance width="649.6428571428571"/>
  <unicode hex="09A3"/>
  <anchor x="548.3571428571429" y="59.73809523809524" name="bottom"/>
  <anchor x="569.6428571428571" y="-19.92857142857143" name="bottom.rakaar"/>
  <anchor x="569.6428571428571" y="-3.0" name="bottom.rvocalic"/>
  <anchor x="533.2619047619047" y="9.095238095238095" name="bottom.virama"/>
  <anchor x="537.3333333333333" y="577.9285714285714" name="top"/>
  <anchor x="523.2619047619047" y="568.3809523809524" name="topright"/>
  <anchor x="324.5952380952381" y="0.0" name="vedic"/>
  <outline>
    <contour>
      <point x="560.0" y="-39.38095238095238" type="line"/>
      <point x="569.6428571428571" y="-36.833333333333336" type="line"/>
      <point x="569.6428571428571" y="542.3333333333334" type="line"/>
      <point x="686.8333333333333" y="542.3333333333334" type="line"/>
      <point x="641.0952380952381" y="622.0" type="line"/>
      <point x="559.9047619047619" y="622.0" type="line"/>
      <point x="551.2619047619048" y="681.9285714285714" type="line"/>
      <point x="474.5" y="719.0238095238096" type="line"/>
      <point x="466.4047619047619" y="715.4761904761905" type="line"/>
      <point x="466.4047619047619" y="602.5238095238095" type="line" smooth="yes"/>
      <point x="466.4047619047619" y="529.952380952381"/>
      <point x="470.95238095238096" y="449.8333333333333"/>
      <point x="477.04761904761904" y="380.9761904761905" type="curve"/>
      <point x="487.23809523809524" y="391.42857142857144" type="line"/>
      <point x="411.8095238095238" y="538.4047619047619"/>
      <point x="332.88095238095235" y="630.0952380952381"/>
      <point x="216.47619047619048" y="630.0952380952381" type="curve" smooth="yes"/>
      <point x="117.83333333333333" y="630.0952380952381"/>
      <point x="31.809523809523807" y="558.0952380952381"/>
      <point x="31.809523809523807" y="425.7857142857143" type="curve" smooth="yes"/>
      <point x="31.809523809523807" y="272.3809523809524"/>
      <point x="136.11904761904762" y="205.7380952380952"/>
      <point x="233.95238095238096" y="205.7380952380952" type="curve" smooth="yes"/>
      <point x="312.9761904761905" y="205.7380952380952"/>
      <point x="356.16666666666663" y="251.57142857142856"/>
      <point x="356.16666666666663" y="317.5" type="curve" smooth="yes"/>
      <point x="356.16666666666663" y="378.33333333333337"/>
      <point x="317.9761904761905" y="426.7142857142857"/>
      <point x="252.5952380952381" y="426.7142857142857" type="curve" smooth="yes"/>
      <point x="198.7619047619048" y="426.7142857142857"/>
      <point x="161.11904761904762" y="388.5238095238095"/>
      <point x="161.11904761904762" y="335.23809523809524" type="curve" smooth="yes"/>
      <point x="161.11904761904762" y="314.04761904761904"/>
      <point x="165.11904761904762" y="292.95238095238096"/>
      <point x="173.11904761904762" y="280.85714285714283" type="curve"/>
      <point x="231.04761904761904" y="323.23809523809524" type="line"/>
      <point x="217.95238095238096" y="320.2380952380952"/>
      <point x="203.85714285714286" y="319.2380952380952"/>
      <point x="191.30952380952382" y="319.2380952380952" type="curve" smooth="yes"/>
      <point x="158.5" y="319.2380952380952"/>
      <point x="129.85714285714286" y="344.04761904761904"/>
      <point x="129.85714285714286" y="391.5" type="curve" smooth="yes"/>
      <point x="129.85714285714286" y="455.95238095238096"/>
      <point x="179.85714285714286" y="493.5"/>
      <point x="247.95238095238096" y="493.5" type="curve" smooth="yes"/>
      <point x="327.3095238095238" y="493.5"/>
      <point x="411.61904761904765" y="435.4761904761904"/>
      <point x="479.5" y="288.76190476190476" type="curve"/>
      <point x="466.4047619047619" y="354.14285714285717" type="line"/>
      <point x="466.4047619047619" y="-0.09523809523809534" type="line"/>
    </contour>
  </outline>
</glyph>
<glyph name="ta-beng" format="2">
  <advance width="649.1190476190476"/>
  <unicode hex="09A4"/>
  <anchor x="486.8809523809524" y="-4.142857142857146" name="bottom"/>
  <anchor x="568.2380952380953" y="0.0" name="bottom.rakaar"/>
  <anchor x="496.88095238095235" y="-4.976190476190482" name="bottom.rvocalic"/>
  <anchor x="425.5" y="4.071428571428569" name="bottom.virama"/>
  <anchor x="393.3809523809524" y="587.9285714285714" name="top"/>
  <anchor x="394.38095238095235" y="571.547619047619" name="topright"/>
  <anchor x="324.2857142857143" y="0.0" name="vedic"/>
  <outline>
    <contour>
      <point x="391.4761904761905" y="-1.4285714285714306" type="curve" smooth="yes"/>
      <point x="517.1190476190476" y="-1.4285714285714306"/>
      <point x="627.8809523809524" y="66.57142857142856"/>
      <point x="627.8809523809524" y="239.8809523809524" type="curve" smooth="yes"/>
      <point x="627.8809523809524" y="389.4523809523809"/>
      <point x="530.8571428571429" y="503.3571428571429"/>
      <point x="367.4761904761905" y="503.3571428571429" type="curve" smooth="yes"/>
      <point x="265.4523809523809" y="503.3571428571429"/>
      <point x="212.8095238095238" y="445.6190476190476"/>
      <point x="212.8095238095238" y="364.7857142857143" type="curve" smooth="yes"/>
      <point x="212.8095238095238" y="292.4047619047619"/>
      <point x="259.0952380952381" y="233.66666666666663"/>
      <point x="342.4761904761905" y="233.66666666666663" type="curve" smooth="yes"/>
      <point x="418.95238095238096" y="233.66666666666663"/>
      <point x="458.04761904761904" y="281.85714285714283"/>
      <point x="458.04761904761904" y="345.5952380952381" type="curve" smooth="yes"/>
      <point x="458.04761904761904" y="389.23809523809524"/>
      <point x="433.30952380952385" y="423.88095238095235"/>
      <point x="415.2142857142857" y="440.42857142857144" type="curve"/>
      <point x="372.8333333333333" y="355.3809523809524" type="line"/>
      <point x="385.38095238095235" y="362.4761904761904"/>
      <point x="409.0238095238095" y="372.66666666666663"/>
      <point x="435.30952380952385" y="372.66666666666663" type="curve" smooth="yes"/>
      <point x="496.04761904761904" y="372.66666666666663"/>
      <point x="541.5714285714286" y="341.95238095238096"/>
      <point x="541.5714285714286" y="271.6190476190476" type="curve" smooth="yes"/>
      <point x="541.5714285714286" y="192.0"/>
      <point x="478.9285714285714" y="145.9047619047619"/>
      <point x="384.73809523809524" y="145.9047619047619" type="curve" smooth="yes"/>
      <point x="243.19047619047618" y="145.9047619047619"/>
      <point x="130.80952380952382" y="234.26190476190476"/>
      <point x="57.0" y="488.07142857142856" type="curve"/>
      <point x="-5.0238095238095255" y="472.5238095238095" type="line"/>
      <point x="70.88095238095238" y="152.69047619047618"/>
      <point x="186.61904761904762" y="-1.4285714285714306"/>
    </contour>
    <contour>
      <point x="7.095238095238095" y="542.3333333333334" type="line"/>
      <point x="686.3095238095239" y="542.3333333333334" type="line"/>
      <point x="640.0238095238096" y="622.0" type="line"/>
      <point x="-37.19047619047619" y="622.0" type="line"/>
    </contour>
  </outline>
</glyph>
<glyph name="tha-beng" format="2">
  <advance width="631.452380952381"/>
  <unicode hex="09A5"/>
  <anchor x="543.3571428571429" y="35.642857142857146" name="bottom"/>
  <anchor x="551.9047619047619" y="94.11904761904762" name="bottom.rakaar"/>
  <anchor x="551.9047619047619" y="11.0" name="bottom.rvocalic"/>
  <anchor x="531.9047619047619" y="17.285714285714285" name="bottom.virama"/>
  <anchor x="519.1428571428571" y="577.9285714285714" name="top"/>
  <anchor x="505.5238095238096" y="568.3809523809524" name="topright"/>
  <anchor x="315.5" y="0.0" name="vedic"/>
  <outline>
    <contour>
      <point x="541.8095238095239" y="-28.380952380952383" type="line"/>
      <point x="551.9047619047619" y="-25.833333333333336" type="line"/>
      <point x="551.9047619047619" y="542.3333333333334" type="line"/>
      <point x="668.6428571428571" y="542.3333333333334" type="line"/>
      <point x="623.3571428571429" y="622.0" type="line"/>
      <point x="542.1666666666666" y="622.0" type="line"/>
      <point x="533.0714285714286" y="681.9285714285714" type="line"/>
      <point x="456.30952380952385" y="719.0238095238096" type="line"/>
      <point x="448.2142857142857" y="715.4761904761905" type="line"/>
      <point x="448.2142857142857" y="78.19047619047619" type="line"/>
      <point x="464.95238095238096" y="95.19047619047619" type="line"/>
      <point x="398.11904761904765" y="241.78571428571428"/>
      <point x="255.97619047619048" y="277.2857142857143"/>
      <point x="154.45238095238093" y="303.0" type="curve"/>
      <point x="200.3095238095238" y="244.78571428571428" type="line"/>
      <point x="342.7142857142857" y="254.04761904761904"/>
      <point x="402.07142857142856" y="324.07142857142856"/>
      <point x="402.07142857142856" y="425.4285714285714" type="curve" smooth="yes"/>
      <point x="402.07142857142856" y="546.2619047619048"/>
      <point x="306.04761904761904" y="625.0"/>
      <point x="192.66666666666666" y="625.0" type="curve" smooth="yes"/>
      <point x="91.3809523809524" y="625.0"/>
      <point x="29.095238095238095" y="575.452380952381"/>
      <point x="29.095238095238095" y="501.61904761904765" type="curve" smooth="yes"/>
      <point x="29.095238095238095" y="429.8809523809524"/>
      <point x="71.73809523809524" y="395.23809523809524"/>
      <point x="128.02380952380952" y="395.23809523809524" type="curve" smooth="yes"/>
      <point x="182.21428571428572" y="395.23809523809524"/>
      <point x="214.4047619047619" y="426.8809523809524"/>
      <point x="214.4047619047619" y="475.07142857142856" type="curve" smooth="yes"/>
      <point x="214.4047619047619" y="510.2619047619048"/>
      <point x="199.85714285714286" y="532.2619047619048"/>
      <point x="171.7619047619048" y="546.2619047619048" type="curve"/>
      <point x="174.40476190476193" y="496.2380952380952" type="line"/>
      <point x="189.95238095238096" y="517.2380952380952"/>
      <point x="206.3095238095238" y="527.2380952380952"/>
      <point x="231.7619047619048" y="527.2380952380952" type="curve" smooth="yes"/>
      <point x="273.11904761904765" y="527.2380952380952"/>
      <point x="294.73809523809524" y="496.7857142857143"/>
      <point x="294.73809523809524" y="458.7142857142857" type="curve" smooth="yes"/>
      <point x="294.73809523809524" y="366.90476190476187"/>
      <point x="187.85714285714286" y="342.5476190476191"/>
      <point x="72.28571428571429" y="344.45238095238096" type="curve"/>
      <point x="128.66666666666666" y="185.30952380952382" type="line"/>
      <point x="264.38095238095235" y="173.95238095238096"/>
      <point x="397.69047619047615" y="120.42857142857144"/>
      <point x="463.5" y="15.809523809523807" type="curve"/>
    </contour>
  </outline>
</glyph>
<glyph name="da-beng" format="2">
  <advance width="567.4285714285714"/>
  <unicode hex="09A6"/>
  <anchor x="478.3333333333333" y="66.97619047619048" name="bottom"/>
  <anchor x="495.9761904761905" y="53.61904761904761" name="bottom.rakaar"/>
  <anchor x="496.5238095238095" y="-38.78571428571429" name="bottom.rvocalic"/>
  <anchor x="479.6190476190476" y="-36.404761904761905" name="bottom.virama"/>
  <anchor x="140.47619047619048" y="587.9285714285714" name="top"/>
  <anchor x="141.92857142857142" y="571.547619047619" name="topright"/>
  <anchor x="283.2142857142857" y="0.0" name="vedic"/>
  <outline>
    <contour>
      <point x="440.14285714285717" y="-79.61904761904762" type="curve"/>
      <point x="496.5238095238095" y="-57.52380952380953" type="line"/>
      <point x="472.9761904761905" y="21.952380952380945"/>
      <point x="465.61904761904765" y="73.3095238095238"/>
      <point x="465.61904761904765" y="137.4047619047619" type="curve" smooth="yes"/>
      <point x="465.61904761904765" y="219.95238095238096"/>
      <point x="490.71428571428567" y="314.7857142857143"/>
      <point x="536.1666666666666" y="389.7857142857143" type="curve"/>
      <point x="409.2142857142857" y="495.4523809523809" type="line"/>
      <point x="312.04761904761904" y="443.64285714285717"/>
      <point x="206.95238095238096" y="366.3809523809524"/>
      <point x="143.04761904761907" y="295.92857142857144" type="curve"/>
      <point x="169.14285714285714" y="248.71428571428572" type="line"/>
      <point x="169.14285714285714" y="542.3333333333334" type="line"/>
      <point x="604.6190476190477" y="542.3333333333334" type="line"/>
      <point x="560.3333333333333" y="622.0" type="line"/>
      <point x="-37.19047619047619" y="622.0" type="line"/>
      <point x="8.095238095238095" y="542.3333333333334" type="line"/>
      <point x="65.45238095238096" y="542.3333333333334" type="line"/>
      <point x="65.45238095238096" y="192.71428571428572" type="line"/>
      <point x="168.7857142857143" y="115.11904761904762" type="line"/>
      <point x="259.6904761904762" y="209.57142857142856"/>
      <point x="354.88095238095235" y="295.21428571428567"/>
      <point x="453.78571428571433" y="359.76190476190476" type="curve"/>
      <point x="408.11904761904765" y="391.88095238095235" type="line"/>
      <point x="382.6666666666667" y="323.2380952380952"/>
      <point x="370.76190476190476" y="254.2380952380952"/>
      <point x="370.76190476190476" y="185.69047619047618" type="curve" smooth="yes"/>
      <point x="370.76190476190476" y="83.57142857142857"/>
      <point x="404.59523809523813" y="-8.261904761904773"/>
    </contour>
  </outline>
</glyph>
<glyph name="dha-beng" format="2">
  <advance width="564.6904761904763"/>
  <unicode hex="09A7"/>
  <anchor x="475.59523809523813" y="35.642857142857146" name="bottom"/>
  <anchor x="484.6904761904762" y="94.11904761904762" name="bottom.rakaar"/>
  <anchor x="484.6904761904762" y="11.0" name="bottom.rvocalic"/>
  <anchor x="464.6904761904762" y="17.285714285714285" name="bottom.virama"/>
  <anchor x="456.4761904761905" y="587.9285714285714" name="top"/>
  <anchor x="457.4761904761904" y="571.547619047619" name="topright"/>
  <anchor x="282.11904761904765" y="0.0" name="vedic"/>
  <outline>
    <contour>
      <point x="474.5952380952381" y="-28.380952380952383" type="line"/>
      <point x="484.6904761904762" y="-25.833333333333336" type="line"/>
      <point x="484.6904761904762" y="542.3333333333334" type="line"/>
      <point x="601.8809523809524" y="542.3333333333334" type="line"/>
      <point x="556.1428571428571" y="622.0" type="line"/>
      <point x="381.0" y="622.0" type="line"/>
      <point x="381.0" y="441.30952380952385" type="line"/>
      <point x="393.6428571428571" y="498.26190476190476" type="line"/>
      <point x="258.0952380952381" y="457.9047619047619"/>
      <point x="121.78571428571428" y="400.7142857142857"/>
      <point x="14.619047619047617" y="332.0" type="curve"/>
      <point x="79.19047619047619" y="172.3095238095238" type="line"/>
      <point x="208.83333333333334" y="160.59523809523807"/>
      <point x="322.73809523809524" y="110.33333333333331"/>
      <point x="396.8333333333333" y="15.809523809523807" type="curve"/>
    </contour>
    <contour>
      <point x="381.0" y="87.38095238095238" type="line"/>
      <point x="397.73809523809524" y="103.92857142857143" type="line"/>
      <point x="356.5" y="186.33333333333334"/>
      <point x="248.33333333333331" y="255.71428571428572"/>
      <point x="157.97619047619048" y="276.42857142857144" type="curve"/>
      <point x="167.42857142857144" y="245.78571428571428" type="line"/>
      <point x="233.5" y="288.85714285714283"/>
      <point x="324.2142857142857" y="331.2142857142857"/>
      <point x="399.6428571428571" y="350.8333333333333" type="curve"/>
      <point x="381.0" y="388.40476190476187" type="line"/>
    </contour>
    <contour>
      <point x="210.83333333333334" y="393.7142857142857" type="curve"/>
      <point x="233.38095238095238" y="429.8095238095238" type="line"/>
      <point x="180.83333333333334" y="435.8095238095238"/>
      <point x="147.83333333333334" y="465.8095238095238"/>
      <point x="147.83333333333334" y="498.8095238095238" type="curve" smooth="yes"/>
      <point x="147.83333333333334" y="532.2619047619048"/>
      <point x="167.73809523809524" y="553.3571428571428"/>
      <point x="200.83333333333334" y="553.3571428571428" type="curve" smooth="yes"/>
      <point x="208.83333333333334" y="553.3571428571428"/>
      <point x="217.83333333333334" y="552.3571428571428"/>
      <point x="227.38095238095238" y="549.3571428571428" type="curve"/>
      <point x="184.64285714285714" y="590.0" type="line"/>
      <point x="175.0952380952381" y="576.452380952381"/>
      <point x="172.0952380952381" y="560.9047619047619"/>
      <point x="172.0952380952381" y="542.2619047619048" type="curve" smooth="yes"/>
      <point x="172.0952380952381" y="501.6190476190476"/>
      <point x="204.1904761904762" y="478.5238095238095"/>
      <point x="241.38095238095238" y="478.5238095238095" type="curve" smooth="yes"/>
      <point x="281.57142857142856" y="478.5238095238095"/>
      <point x="313.2142857142857" y="507.1666666666667"/>
      <point x="313.2142857142857" y="550.3571428571428" type="curve" smooth="yes"/>
      <point x="313.2142857142857" y="600.547619047619"/>
      <point x="277.0238095238095" y="643.8333333333334"/>
      <point x="197.64285714285714" y="643.8333333333334" type="curve" smooth="yes"/>
      <point x="110.26190476190476" y="643.8333333333334"/>
      <point x="53.61904761904761" y="594.1904761904763"/>
      <point x="53.61904761904761" y="521.452380952381" type="curve" smooth="yes"/>
      <point x="53.61904761904761" y="423.42857142857144"/>
      <point x="153.64285714285714" y="393.7142857142857"/>
    </contour>
  </outline>
</glyph>
<glyph name="na-beng" format="2">
  <advance width="582.9761904761905"/>
  <unicode hex="09A8"/>
  <anchor x="489.88095238095235" y="68.45238095238096" name="bottom"/>
  <anchor x="502.9761904761905" y="94.11904761904762" name="bottom.rakaar"/>
  <anchor x="502.9761904761905" y="2.8095238095238084" name="bottom.rvocalic"/>
  <anchor x="482.9761904761905" y="17.285714285714285" name="bottom.virama"/>
  <anchor x="474.76190476190476" y="587.9285714285714" name="top"/>
  <anchor x="476.2142857142857" y="571.547619047619" name="topright"/>
  <anchor x="291.2142857142857" y="0.0" name="vedic"/>
  <outline>
    <contour>
      <point x="493.3333333333333" y="-31.476190476190478" type="line"/>
      <point x="502.9761904761905" y="-28.92857142857143" type="line"/>
      <point x="502.9761904761905" y="542.3333333333334" type="line"/>
      <point x="620.1666666666666" y="542.3333333333334" type="line"/>
      <point x="575.8809523809524" y="622.0" type="line"/>
      <point x="-37.19047619047619" y="622.0" type="line"/>
      <point x="7.5476190476190474" y="542.3333333333334" type="line"/>
      <point x="399.73809523809524" y="542.3333333333334" type="line"/>
      <point x="399.73809523809524" y="372.69047619047615" type="line" smooth="yes"/>
      <point x="399.73809523809524" y="310.23809523809524"/>
      <point x="407.2857142857143" y="201.47619047619048"/>
      <point x="412.38095238095235" y="158.28571428571428" type="curve"/>
      <point x="432.66666666666663" y="174.95238095238096" type="line"/>
      <point x="405.73809523809524" y="296.57142857142856"/>
      <point x="318.2857142857143" y="437.3809523809524"/>
      <point x="168.1904761904762" y="437.3809523809524" type="curve" smooth="yes"/>
      <point x="82.9047619047619" y="437.3809523809524"/>
      <point x="21.619047619047613" y="388.73809523809524"/>
      <point x="21.619047619047613" y="297.61904761904765" type="curve" smooth="yes"/>
      <point x="21.619047619047613" y="218.69047619047618"/>
      <point x="73.54761904761904" y="161.4047619047619"/>
      <point x="155.83333333333334" y="161.4047619047619" type="curve" smooth="yes"/>
      <point x="233.3095238095238" y="161.4047619047619"/>
      <point x="272.5" y="214.88095238095238"/>
      <point x="272.5" y="275.0714285714286" type="curve" smooth="yes"/>
      <point x="272.5" y="302.7142857142857"/>
      <point x="261.85714285714283" y="328.1666666666667"/>
      <point x="236.66666666666669" y="344.8095238095238" type="curve"/>
      <point x="202.38095238095238" y="266.11904761904765" type="line"/>
      <point x="212.92857142857144" y="272.11904761904765"/>
      <point x="235.66666666666666" y="278.76190476190476"/>
      <point x="252.76190476190476" y="278.76190476190476" type="curve" smooth="yes"/>
      <point x="355.3095238095238" y="278.76190476190476"/>
      <point x="406.3809523809524" y="119.14285714285714"/>
      <point x="422.66666666666663" y="20.0" type="curve"/>
    </contour>
  </outline>
</glyph>
<glyph name="pa-beng" format="2">
  <advance width="728.9285714285714"/>
  <unicode hex="09AA"/>
  <anchor x="627.6428571428571" y="59.73809523809524" name="bottom"/>
  <anchor x="648.9285714285714" y="-19.92857142857143" name="bottom.rakaar"/>
  <anchor x="648.9285714285714" y="-3.0" name="bottom.rvocalic"/>
  <anchor x="613.0" y="9.095238095238095" name="bottom.virama"/>
  <anchor x="616.6190476190476" y="577.9285714285714" name="top"/>
  <anchor x="603.0" y="568.3809523809524" name="topright"/>
  <anchor x="364.23809523809524" y="0.0" name="vedic"/>
  <outline>
    <contour>
      <point x="639.7380952380953" y="-39.38095238095238" type="line"/>
      <point x="648.9285714285714" y="-36.833333333333336" type="line"/>
      <point x="648.9285714285714" y="542.3333333333334" type="line"/>
      <point x="766.1190476190477" y="542.3333333333334" type="line"/>
      <point x="720.3809523809523" y="622.0" type="line"/>
      <point x="639.1904761904763" y="622.0" type="line"/>
      <point x="630.547619047619" y="681.9285714285714" type="line"/>
      <point x="553.7857142857142" y="719.0238095238096" type="line"/>
      <point x="545.6904761904763" y="715.4761904761905" type="line"/>
      <point x="545.6904761904763" y="578.4047619047618" type="line" smooth="yes"/>
      <point x="545.6904761904763" y="525.8571428571429"/>
      <point x="550.2380952380952" y="467.73809523809524"/>
      <point x="555.3333333333333" y="394.35714285714283" type="curve"/>
      <point x="558.3333333333333" y="396.6190476190476" type="line"/>
      <point x="494.61904761904765" y="558.0952380952381"/>
      <point x="388.4047619047619" y="631.0952380952381"/>
      <point x="275.57142857142856" y="631.0952380952381" type="curve" smooth="yes"/>
      <point x="164.0" y="631.0952380952381"/>
      <point x="63.523809523809526" y="546.0714285714286"/>
      <point x="-5.023809523809527" y="416.14285714285717" type="curve"/>
      <point x="110.11904761904762" y="320.57142857142856" type="line"/>
      <point x="131.66666666666666" y="340.2142857142857"/>
      <point x="154.30952380952382" y="348.6666666666667"/>
      <point x="173.02380952380952" y="348.6666666666667" type="curve" smooth="yes"/>
      <point x="198.47619047619048" y="348.6666666666667"/>
      <point x="212.73809523809524" y="336.76190476190476"/>
      <point x="212.73809523809524" y="310.5" type="curve" smooth="yes"/>
      <point x="212.73809523809524" y="274.69047619047615"/>
      <point x="184.0952380952381" y="243.14285714285714"/>
      <point x="150.64285714285714" y="219.2380952380952" type="curve"/>
      <point x="253.6904761904762" y="111.64285714285714" type="line"/>
      <point x="514.6190476190476" y="378.21428571428567" type="line"/>
      <point x="422.11904761904765" y="485.7142857142857" type="line"/>
      <point x="249.76190476190476" y="307.26190476190476" type="line"/>
      <point x="260.8571428571429" y="291.0" type="line"/>
      <point x="271.3095238095238" y="315.0"/>
      <point x="280.4047619047619" y="334.90476190476187"/>
      <point x="280.4047619047619" y="364.64285714285717" type="curve" smooth="yes"/>
      <point x="280.4047619047619" y="410.26190476190476"/>
      <point x="249.5" y="436.88095238095235"/>
      <point x="207.7857142857143" y="436.88095238095235" type="curve" smooth="yes"/>
      <point x="177.23809523809524" y="436.88095238095235"/>
      <point x="148.04761904761904" y="424.3333333333333"/>
      <point x="130.5952380952381" y="407.14285714285717" type="curve"/>
      <point x="171.97619047619048" y="384.40476190476187" type="line"/>
      <point x="195.85714285714286" y="458.11904761904765"/>
      <point x="243.02380952380952" y="512.5952380952382"/>
      <point x="305.30952380952385" y="512.5952380952382" type="curve" smooth="yes"/>
      <point x="385.5714285714286" y="512.5952380952382"/>
      <point x="484.5238095238095" y="424.76190476190476"/>
      <point x="550.1428571428572" y="272.4761904761904" type="curve"/>
      <point x="545.6904761904763" y="359.33333333333337" type="line"/>
      <point x="545.6904761904763" y="-0.09523809523809534" type="line"/>
    </contour>
  </outline>
</glyph>
